<svg width="362" height="64" viewBox="0 0 362 64" fill="none" xmlns="http://www.w3.org/2000/svg">
<path d="M19.9135 36.7303C19.5095 36.7291 19.1073 36.6773 18.7161 36.5759C17.671 36.3007 16.7534 35.6705 16.1197 34.7927C15.486 33.9148 15.1754 32.8437 15.241 31.7619C15.3066 30.6801 15.7443 29.6546 16.4794 28.8603C17.2144 28.0659 18.2015 27.5519 19.2722 27.4057C20.3429 27.2596 21.4309 27.4905 22.3509 28.059C23.2708 28.6275 23.9657 29.4985 24.3171 30.5234C24.6684 31.5483 24.6545 32.6637 24.2776 33.6795C23.9008 34.6952 23.1844 35.5484 22.2505 36.0937C21.5412 36.5091 20.7349 36.7288 19.9135 36.7303ZM19.9135 29.4956C19.3532 29.4972 18.809 29.6844 18.3655 30.028C17.9221 30.3716 17.6042 30.8525 17.4611 31.3959C17.3335 31.8834 17.3527 32.3978 17.5161 32.8743C17.6796 33.3508 17.9802 33.768 18.3798 34.0735C18.7795 34.3789 19.2604 34.5587 19.7618 34.5904C20.2632 34.622 20.7628 34.504 21.1975 34.2512C21.6806 33.9687 22.0575 33.5343 22.2697 33.0153C22.4819 32.4963 22.5177 31.9216 22.3716 31.3802C22.2254 30.8388 21.9053 30.3607 21.461 30.02C21.0167 29.6794 20.4728 29.4951 19.9135 29.4956Z" fill="#0AA5A5"/>
<path d="M21.4208 44.65C18.6548 45.004 15.85 44.4226 13.4505 42.9979C11.051 41.573 9.19387 39.3862 8.17304 36.7835C7.49788 37.0237 6.80267 37.2029 6.0957 37.3189C6.3815 38.08 6.73056 38.8157 7.13919 39.5182C8.44562 41.7567 10.3129 43.6136 12.5559 44.9047C14.7988 46.1957 17.3393 46.8761 19.9254 46.8782C20.2379 46.8782 20.5457 46.8782 20.8582 46.8445C20.9497 46.0915 21.1388 45.3538 21.4208 44.65Z" fill="#0AA5A5"/>
<path d="M32.6642 24.5912C31.1316 21.9459 28.8193 19.8419 26.0456 18.5687C23.2719 17.2955 20.1729 16.9157 17.1752 17.4816C14.1774 18.0474 11.4281 19.531 9.30553 21.7284C7.18294 23.9257 5.79137 26.7288 5.32227 29.7519C6.52313 29.2413 7.53277 28.3636 8.20745 27.2439C9.15021 24.9115 10.7642 22.9135 12.8436 21.5048C14.923 20.096 17.3735 19.3403 19.8828 19.3341C22.6722 19.3228 25.3871 20.236 27.6056 21.9318C29.8242 23.6277 31.422 26.0111 32.1507 28.7116C32.8795 31.4122 32.6984 34.2786 31.6356 36.8653C30.5727 39.452 28.6877 41.614 26.2735 43.0154C26.0619 43.1408 25.8407 43.2469 25.6195 43.3578C24.7031 44.1421 24.0514 45.1918 23.7538 46.3626C25.0113 46.0221 26.2177 45.5143 27.341 44.853C30.7228 42.8713 33.1825 39.625 34.1805 35.8263C35.1785 32.0277 34.6331 27.9871 32.6642 24.5912Z" fill="#0AA5A5"/>
<path d="M12.6896 29.2407L12.8723 28.8935C13.5815 27.3159 14.7988 26.0233 16.3287 25.2231C17.8585 24.4229 19.6121 24.1618 21.3078 24.4816C23.0034 24.8014 24.5427 25.6836 25.6783 26.9864C26.8139 28.2892 27.4799 29.9371 27.5695 31.6653C27.659 33.3935 27.1667 35.1017 26.1718 36.5155C25.1769 37.9294 23.737 38.9668 22.0836 39.4611C20.4301 39.9554 18.659 39.8778 17.0547 39.241C15.4504 38.6042 14.1061 37.445 13.2378 35.9496C12.907 35.3735 12.6501 34.7576 12.4732 34.1169C11.9315 34.6388 11.3423 35.1087 10.7132 35.5204C11.5147 37.6387 13.0232 39.413 14.982 40.5414C16.9408 41.6699 19.2289 42.0827 21.457 41.7098C23.6851 41.3368 25.7156 40.2011 27.2028 38.4959C28.6901 36.7906 29.5425 34.6211 29.6148 32.3566C29.687 30.092 28.9748 27.8723 27.5992 26.0751C26.2237 24.2779 24.2699 23.0143 22.0701 22.4992C19.8703 21.9841 17.5606 22.2493 15.5338 23.2498C13.5071 24.2503 11.8886 25.9242 10.9536 27.9868L10.8046 28.2665C10.2212 29.3483 9.42668 30.3012 8.46837 31.0685C7.51005 31.8358 6.40756 32.4017 5.22656 32.7327C5.25341 33.3633 5.32087 33.9917 5.42853 34.6136C6.40652 34.4824 7.35855 34.201 8.2512 33.7793C10.1257 32.7138 11.6637 31.1411 12.6896 29.2407Z" fill="#0AA5A5"/>
<path d="M54.408 31.216C53.58 31.216 52.83 31.078 52.158 30.802C51.486 30.526 50.91 30.112 50.43 29.56C49.962 29.008 49.596 28.33 49.332 27.526C49.068 26.722 48.936 25.786 48.936 24.718C48.936 23.662 49.068 22.732 49.332 21.928C49.596 21.112 49.962 20.428 50.43 19.876C50.91 19.324 51.486 18.91 52.158 18.634C52.83 18.358 53.58 18.22 54.408 18.22C55.236 18.22 55.986 18.358 56.658 18.634C57.33 18.91 57.906 19.324 58.386 19.876C58.866 20.428 59.232 21.112 59.484 21.928C59.748 22.732 59.88 23.662 59.88 24.718C59.88 25.786 59.748 26.722 59.484 27.526C59.232 28.33 58.866 29.008 58.386 29.56C57.906 30.112 57.33 30.526 56.658 30.802C55.986 31.078 55.236 31.216 54.408 31.216ZM54.408 29.11C55.308 29.11 56.022 28.81 56.55 28.21C57.09 27.61 57.36 26.77 57.36 25.69V23.746C57.36 22.666 57.09 21.826 56.55 21.226C56.022 20.626 55.308 20.326 54.408 20.326C53.508 20.326 52.788 20.626 52.248 21.226C51.72 21.826 51.456 22.666 51.456 23.746V25.69C51.456 26.77 51.72 27.61 52.248 28.21C52.788 28.81 53.508 29.11 54.408 29.11ZM62.6145 23.422H61.2285V21.604H62.6145V20.254C62.6145 19.426 62.8305 18.79 63.2625 18.346C63.7065 17.902 64.3545 17.68 65.2065 17.68H66.8445V19.516H64.9185V21.604H66.8445V23.422H64.9185V31H62.6145V23.422ZM68.9602 23.422H67.5742V21.604H68.9602V20.254C68.9602 19.426 69.1762 18.79 69.6082 18.346C70.0522 17.902 70.7002 17.68 71.5522 17.68H73.1902V19.516H71.2642V21.604H73.1902V23.422H71.2642V31H68.9602V23.422ZM77.0891 31C76.2971 31 75.7151 30.802 75.3431 30.406C74.9711 30.01 74.7851 29.452 74.7851 28.732V17.68H77.0891V29.164H78.3311V31H77.0891ZM81.2281 20.236C80.7481 20.236 80.4001 20.128 80.1841 19.912C79.9801 19.696 79.8781 19.42 79.8781 19.084V18.724C79.8781 18.388 79.9801 18.112 80.1841 17.896C80.4001 17.68 80.7481 17.572 81.2281 17.572C81.6961 17.572 82.0381 17.68 82.2541 17.896C82.4701 18.112 82.5781 18.388 82.5781 18.724V19.084C82.5781 19.42 82.4701 19.696 82.2541 19.912C82.0381 20.128 81.6961 20.236 81.2281 20.236ZM80.0761 21.604H82.3801V31H80.0761V21.604ZM85.0508 31V21.604H87.3548V23.17H87.4448C87.6368 22.666 87.9368 22.246 88.3447 21.91C88.7648 21.562 89.3408 21.388 90.0728 21.388C91.0448 21.388 91.7888 21.706 92.3048 22.342C92.8208 22.978 93.0788 23.884 93.0788 25.06V31H90.7748V25.294C90.7748 24.622 90.6548 24.118 90.4148 23.782C90.1748 23.446 89.7788 23.278 89.2268 23.278C88.9868 23.278 88.7528 23.314 88.5248 23.386C88.3088 23.446 88.1108 23.542 87.9308 23.674C87.7628 23.794 87.6248 23.95 87.5168 24.142C87.4088 24.322 87.3548 24.538 87.3548 24.79V31H85.0508ZM99.4308 31.216C98.7348 31.216 98.1108 31.102 97.5588 30.874C97.0188 30.634 96.5568 30.304 96.1728 29.884C95.8008 29.452 95.5128 28.936 95.3088 28.336C95.1048 27.724 95.0028 27.04 95.0028 26.284C95.0028 25.54 95.0988 24.868 95.2908 24.268C95.4948 23.668 95.7828 23.158 96.1548 22.738C96.5268 22.306 96.9828 21.976 97.5228 21.748C98.0628 21.508 98.6748 21.388 99.3588 21.388C100.091 21.388 100.727 21.514 101.267 21.766C101.807 22.018 102.251 22.36 102.599 22.792C102.947 23.224 103.205 23.728 103.373 24.304C103.553 24.868 103.643 25.474 103.643 26.122V26.878H97.3968V27.112C97.3968 27.796 97.5888 28.348 97.9728 28.768C98.3568 29.176 98.9268 29.38 99.6828 29.38C100.259 29.38 100.727 29.26 101.087 29.02C101.459 28.78 101.789 28.474 102.077 28.102L103.319 29.488C102.935 30.028 102.407 30.454 101.735 30.766C101.075 31.066 100.307 31.216 99.4308 31.216ZM99.3948 23.116C98.7828 23.116 98.2968 23.32 97.9368 23.728C97.5768 24.136 97.3968 24.664 97.3968 25.312V25.456H101.249V25.294C101.249 24.646 101.087 24.124 100.763 23.728C100.451 23.32 99.9948 23.116 99.3948 23.116ZM114.946 31.216C114.118 31.216 113.368 31.084 112.696 30.82C112.036 30.544 111.466 30.136 110.986 29.596C110.518 29.056 110.158 28.39 109.906 27.598C109.654 26.794 109.528 25.864 109.528 24.808C109.528 23.752 109.654 22.816 109.906 22C110.158 21.172 110.518 20.482 110.986 19.93C111.466 19.366 112.036 18.94 112.696 18.652C113.368 18.364 114.118 18.22 114.946 18.22C116.074 18.22 117.01 18.46 117.754 18.94C118.498 19.42 119.092 20.146 119.536 21.118L117.502 22.198C117.322 21.634 117.028 21.184 116.62 20.848C116.212 20.5 115.654 20.326 114.946 20.326C114.058 20.326 113.35 20.626 112.822 21.226C112.306 21.826 112.048 22.666 112.048 23.746V25.726C112.048 26.818 112.306 27.658 112.822 28.246C113.35 28.822 114.058 29.11 114.946 29.11C115.654 29.11 116.23 28.918 116.674 28.534C117.13 28.15 117.46 27.676 117.664 27.112L119.59 28.246C119.134 29.182 118.528 29.914 117.772 30.442C117.016 30.958 116.074 31.216 114.946 31.216ZM125.523 31.216C124.443 31.216 123.525 31.024 122.769 30.64C122.025 30.256 121.383 29.752 120.843 29.128L122.445 27.58C122.877 28.084 123.357 28.468 123.885 28.732C124.425 28.996 125.019 29.128 125.667 29.128C126.399 29.128 126.951 28.972 127.323 28.66C127.695 28.336 127.881 27.904 127.881 27.364C127.881 26.944 127.761 26.602 127.521 26.338C127.281 26.074 126.831 25.882 126.171 25.762L124.983 25.582C122.475 25.186 121.221 23.968 121.221 21.928C121.221 21.364 121.323 20.854 121.527 20.398C121.743 19.942 122.049 19.552 122.445 19.228C122.841 18.904 123.315 18.658 123.867 18.49C124.431 18.31 125.067 18.22 125.775 18.22C126.723 18.22 127.551 18.376 128.259 18.688C128.967 19 129.573 19.462 130.077 20.074L128.457 21.604C128.145 21.22 127.767 20.908 127.323 20.668C126.879 20.428 126.321 20.308 125.649 20.308C124.965 20.308 124.449 20.44 124.101 20.704C123.765 20.956 123.597 21.316 123.597 21.784C123.597 22.264 123.735 22.618 124.011 22.846C124.287 23.074 124.731 23.242 125.343 23.35L126.513 23.566C127.785 23.794 128.721 24.202 129.321 24.79C129.933 25.366 130.239 26.176 130.239 27.22C130.239 27.82 130.131 28.366 129.915 28.858C129.711 29.338 129.405 29.758 128.997 30.118C128.601 30.466 128.109 30.736 127.521 30.928C126.945 31.12 126.279 31.216 125.523 31.216ZM135.308 31L131.204 18.436H133.634L135.56 24.556L136.676 28.732H136.73L137.828 24.556L139.754 18.436H142.112L138.008 31H135.308ZM148.124 31V18.436H156.404V20.542H150.5V23.584H155.72V25.69H150.5V28.894H156.404V31H148.124ZM164.43 29.434H164.34C164.172 29.974 163.854 30.406 163.386 30.73C162.918 31.054 162.372 31.216 161.748 31.216C160.56 31.216 159.648 30.79 159.012 29.938C158.388 29.086 158.076 27.868 158.076 26.284C158.076 24.712 158.388 23.506 159.012 22.666C159.648 21.814 160.56 21.388 161.748 21.388C162.372 21.388 162.918 21.55 163.386 21.874C163.854 22.186 164.172 22.612 164.34 23.152H164.43V17.68H166.734V31H164.43V29.434ZM162.486 29.308C163.038 29.308 163.5 29.176 163.872 28.912C164.244 28.648 164.43 28.27 164.43 27.778V24.79C164.43 24.334 164.244 23.968 163.872 23.692C163.5 23.416 163.038 23.278 162.486 23.278C161.886 23.278 161.4 23.482 161.028 23.89C160.668 24.286 160.488 24.82 160.488 25.492V27.112C160.488 27.784 160.668 28.318 161.028 28.714C161.4 29.11 161.886 29.308 162.486 29.308ZM170.543 20.236C170.063 20.236 169.715 20.128 169.499 19.912C169.295 19.696 169.193 19.42 169.193 19.084V18.724C169.193 18.388 169.295 18.112 169.499 17.896C169.715 17.68 170.063 17.572 170.543 17.572C171.011 17.572 171.353 17.68 171.569 17.896C171.785 18.112 171.893 18.388 171.893 18.724V19.084C171.893 19.42 171.785 19.696 171.569 19.912C171.353 20.128 171.011 20.236 170.543 20.236ZM169.391 21.604H171.695V31H169.391V21.604ZM177.299 31C176.507 31 175.901 30.796 175.481 30.388C175.073 29.968 174.869 29.374 174.869 28.606V23.44H173.483V21.604H174.203C174.551 21.604 174.785 21.526 174.905 21.37C175.037 21.202 175.103 20.956 175.103 20.632V19.03H177.173V21.604H179.099V23.44H177.173V29.164H178.955V31H177.299ZM184.753 31.216C184.081 31.216 183.475 31.102 182.935 30.874C182.407 30.646 181.951 30.316 181.567 29.884C181.195 29.452 180.907 28.936 180.703 28.336C180.499 27.724 180.397 27.04 180.397 26.284C180.397 25.528 180.499 24.85 180.703 24.25C180.907 23.65 181.195 23.14 181.567 22.72C181.951 22.288 182.407 21.958 182.935 21.73C183.475 21.502 184.081 21.388 184.753 21.388C185.425 21.388 186.031 21.502 186.571 21.73C187.111 21.958 187.567 22.288 187.939 22.72C188.323 23.14 188.617 23.65 188.821 24.25C189.025 24.85 189.127 25.528 189.127 26.284C189.127 27.04 189.025 27.724 188.821 28.336C188.617 28.936 188.323 29.452 187.939 29.884C187.567 30.316 187.111 30.646 186.571 30.874C186.031 31.102 185.425 31.216 184.753 31.216ZM184.753 29.362C185.365 29.362 185.845 29.176 186.193 28.804C186.541 28.432 186.715 27.886 186.715 27.166V25.42C186.715 24.712 186.541 24.172 186.193 23.8C185.845 23.428 185.365 23.242 184.753 23.242C184.153 23.242 183.679 23.428 183.331 23.8C182.983 24.172 182.809 24.712 182.809 25.42V27.166C182.809 27.886 182.983 28.432 183.331 28.804C183.679 29.176 184.153 29.362 184.753 29.362ZM191.17 31V21.604H193.474V23.548H193.564C193.624 23.296 193.714 23.056 193.834 22.828C193.966 22.588 194.134 22.378 194.338 22.198C194.542 22.018 194.782 21.874 195.058 21.766C195.346 21.658 195.676 21.604 196.048 21.604H196.552V23.782H195.832C195.052 23.782 194.464 23.896 194.068 24.124C193.672 24.352 193.474 24.724 193.474 25.24V31H191.17Z" fill="#080C36"/>
<path d="M55.134 44.224C55.198 44.224 55.254 44.25 55.302 44.302L55.764 44.8C55.412 45.208 54.984 45.526 54.48 45.754C53.98 45.982 53.374 46.096 52.662 46.096C52.046 46.096 51.486 45.99 50.982 45.778C50.478 45.562 50.048 45.262 49.692 44.878C49.336 44.49 49.06 44.026 48.864 43.486C48.668 42.946 48.57 42.352 48.57 41.704C48.57 41.056 48.672 40.462 48.876 39.922C49.08 39.382 49.366 38.918 49.734 38.53C50.106 38.142 50.55 37.842 51.066 37.63C51.582 37.414 52.152 37.306 52.776 37.306C53.388 37.306 53.928 37.404 54.396 37.6C54.864 37.796 55.276 38.062 55.632 38.398L55.248 38.932C55.224 38.972 55.192 39.006 55.152 39.034C55.116 39.058 55.066 39.07 55.002 39.07C54.93 39.07 54.842 39.032 54.738 38.956C54.634 38.876 54.498 38.788 54.33 38.692C54.162 38.596 53.952 38.51 53.7 38.434C53.448 38.354 53.138 38.314 52.77 38.314C52.326 38.314 51.92 38.392 51.552 38.548C51.184 38.7 50.866 38.922 50.598 39.214C50.334 39.506 50.128 39.862 49.98 40.282C49.832 40.702 49.758 41.176 49.758 41.704C49.758 42.24 49.834 42.718 49.986 43.138C50.142 43.558 50.352 43.914 50.616 44.206C50.884 44.494 51.198 44.714 51.558 44.866C51.922 45.018 52.314 45.094 52.734 45.094C52.99 45.094 53.22 45.08 53.424 45.052C53.632 45.02 53.822 44.972 53.994 44.908C54.17 44.844 54.332 44.764 54.48 44.668C54.632 44.568 54.782 44.45 54.93 44.314C54.998 44.254 55.066 44.224 55.134 44.224ZM57.9356 40.732C58.1956 40.456 58.4836 40.236 58.7996 40.072C59.1156 39.908 59.4796 39.826 59.8916 39.826C60.2236 39.826 60.5156 39.882 60.7676 39.994C61.0236 40.102 61.2356 40.258 61.4036 40.462C61.5756 40.662 61.7056 40.904 61.7936 41.188C61.8816 41.472 61.9256 41.786 61.9256 42.13V46H60.8516V42.13C60.8516 41.67 60.7456 41.314 60.5336 41.062C60.3256 40.806 60.0076 40.678 59.5796 40.678C59.2636 40.678 58.9676 40.754 58.6916 40.906C58.4196 41.058 58.1676 41.264 57.9356 41.524V46H56.8616V37.162H57.9356V40.732ZM66.847 43.264C66.355 43.28 65.935 43.32 65.587 43.384C65.243 43.444 64.961 43.524 64.741 43.624C64.525 43.724 64.367 43.842 64.267 43.978C64.171 44.114 64.123 44.266 64.123 44.434C64.123 44.594 64.149 44.732 64.201 44.848C64.253 44.964 64.323 45.06 64.411 45.136C64.503 45.208 64.609 45.262 64.729 45.298C64.853 45.33 64.985 45.346 65.125 45.346C65.313 45.346 65.485 45.328 65.641 45.292C65.797 45.252 65.943 45.196 66.079 45.124C66.219 45.052 66.351 44.966 66.475 44.866C66.603 44.766 66.727 44.652 66.847 44.524V43.264ZM63.397 40.78C63.733 40.456 64.095 40.214 64.483 40.054C64.871 39.894 65.301 39.814 65.773 39.814C66.113 39.814 66.415 39.87 66.679 39.982C66.943 40.094 67.165 40.25 67.345 40.45C67.525 40.65 67.661 40.892 67.753 41.176C67.845 41.46 67.891 41.772 67.891 42.112V46H67.417C67.313 46 67.233 45.984 67.177 45.952C67.121 45.916 67.077 45.848 67.045 45.748L66.925 45.172C66.765 45.32 66.609 45.452 66.457 45.568C66.305 45.68 66.145 45.776 65.977 45.856C65.809 45.932 65.629 45.99 65.437 46.03C65.249 46.074 65.039 46.096 64.807 46.096C64.571 46.096 64.349 46.064 64.141 46C63.933 45.932 63.751 45.832 63.595 45.7C63.443 45.568 63.321 45.402 63.229 45.202C63.141 44.998 63.097 44.758 63.097 44.482C63.097 44.242 63.163 44.012 63.295 43.792C63.427 43.568 63.641 43.37 63.937 43.198C64.233 43.026 64.619 42.886 65.095 42.778C65.571 42.666 66.155 42.602 66.847 42.586V42.112C66.847 41.64 66.745 41.284 66.541 41.044C66.337 40.8 66.039 40.678 65.647 40.678C65.383 40.678 65.161 40.712 64.981 40.78C64.805 40.844 64.651 40.918 64.519 41.002C64.391 41.082 64.279 41.156 64.183 41.224C64.091 41.288 63.999 41.32 63.907 41.32C63.835 41.32 63.773 41.302 63.721 41.266C63.669 41.226 63.625 41.178 63.589 41.122L63.397 40.78ZM70.5259 40.804C70.6579 40.656 70.7979 40.522 70.9459 40.402C71.0939 40.282 71.2499 40.18 71.4139 40.096C71.5819 40.008 71.7579 39.942 71.9419 39.898C72.1299 39.85 72.3319 39.826 72.5479 39.826C72.8799 39.826 73.1719 39.882 73.4239 39.994C73.6799 40.102 73.8919 40.258 74.0599 40.462C74.2319 40.662 74.3619 40.904 74.4499 41.188C74.5379 41.472 74.5819 41.786 74.5819 42.13V46H73.5079V42.13C73.5079 41.67 73.4019 41.314 73.1899 41.062C72.9819 40.806 72.6639 40.678 72.2359 40.678C71.9199 40.678 71.6239 40.754 71.3479 40.906C71.0759 41.058 70.8239 41.264 70.5919 41.524V46H69.5179V39.922H70.1599C70.3119 39.922 70.4059 39.996 70.4419 40.144L70.5259 40.804ZM78.3273 43.03C78.5433 43.03 78.7333 43 78.8973 42.94C79.0613 42.88 79.1993 42.796 79.3113 42.688C79.4233 42.58 79.5073 42.452 79.5633 42.304C79.6193 42.152 79.6473 41.986 79.6473 41.806C79.6473 41.434 79.5333 41.138 79.3053 40.918C79.0813 40.698 78.7553 40.588 78.3273 40.588C77.8953 40.588 77.5653 40.698 77.3373 40.918C77.1133 41.138 77.0013 41.434 77.0013 41.806C77.0013 41.986 77.0293 42.152 77.0853 42.304C77.1453 42.452 77.2313 42.58 77.3433 42.688C77.4553 42.796 77.5933 42.88 77.7573 42.94C77.9213 43 78.1113 43.03 78.3273 43.03ZM80.2533 46.33C80.2533 46.182 80.2113 46.062 80.1273 45.97C80.0433 45.878 79.9293 45.806 79.7853 45.754C79.6453 45.702 79.4813 45.666 79.2933 45.646C79.1053 45.622 78.9053 45.604 78.6933 45.592C78.4853 45.58 78.2733 45.568 78.0573 45.556C77.8413 45.544 77.6333 45.524 77.4333 45.496C77.2093 45.6 77.0253 45.732 76.8813 45.892C76.7413 46.048 76.6713 46.232 76.6713 46.444C76.6713 46.58 76.7053 46.706 76.7733 46.822C76.8453 46.942 76.9533 47.044 77.0973 47.128C77.2413 47.216 77.4213 47.284 77.6373 47.332C77.8573 47.384 78.1153 47.41 78.4113 47.41C78.6993 47.41 78.9573 47.384 79.1853 47.332C79.4133 47.28 79.6053 47.206 79.7613 47.11C79.9213 47.014 80.0433 46.9 80.1273 46.768C80.2113 46.636 80.2533 46.49 80.2533 46.33ZM81.3393 40.162V40.558C81.3393 40.69 81.2553 40.774 81.0873 40.81L80.3973 40.9C80.5333 41.164 80.6013 41.456 80.6013 41.776C80.6013 42.072 80.5433 42.342 80.4273 42.586C80.3153 42.826 80.1593 43.032 79.9593 43.204C79.7593 43.376 79.5193 43.508 79.2393 43.6C78.9593 43.692 78.6553 43.738 78.3273 43.738C78.0433 43.738 77.7753 43.704 77.5233 43.636C77.3953 43.716 77.2973 43.802 77.2293 43.894C77.1613 43.982 77.1273 44.072 77.1273 44.164C77.1273 44.308 77.1853 44.418 77.3013 44.494C77.4213 44.566 77.5773 44.618 77.7693 44.65C77.9613 44.682 78.1793 44.702 78.4233 44.71C78.6713 44.718 78.9233 44.732 79.1793 44.752C79.4393 44.768 79.6913 44.798 79.9353 44.842C80.1833 44.886 80.4033 44.958 80.5953 45.058C80.7873 45.158 80.9413 45.296 81.0573 45.472C81.1773 45.648 81.2373 45.876 81.2373 46.156C81.2373 46.416 81.1713 46.668 81.0393 46.912C80.9113 47.156 80.7253 47.372 80.4813 47.56C80.2373 47.752 79.9373 47.904 79.5813 48.016C79.2293 48.132 78.8313 48.19 78.3873 48.19C77.9433 48.19 77.5553 48.146 77.2233 48.058C76.8913 47.97 76.6153 47.852 76.3953 47.704C76.1753 47.556 76.0093 47.384 75.8973 47.188C75.7893 46.996 75.7353 46.794 75.7353 46.582C75.7353 46.282 75.8293 46.028 76.0173 45.82C76.2053 45.612 76.4633 45.446 76.7913 45.322C76.6113 45.242 76.4673 45.136 76.3593 45.004C76.2553 44.868 76.2033 44.686 76.2033 44.458C76.2033 44.37 76.2193 44.28 76.2513 44.188C76.2833 44.092 76.3313 43.998 76.3953 43.906C76.4633 43.81 76.5453 43.72 76.6413 43.636C76.7373 43.552 76.8493 43.478 76.9773 43.414C76.6773 43.246 76.4433 43.024 76.2753 42.748C76.1073 42.468 76.0233 42.144 76.0233 41.776C76.0233 41.48 76.0793 41.212 76.1913 40.972C76.3073 40.728 76.4673 40.522 76.6713 40.354C76.8753 40.182 77.1173 40.05 77.3973 39.958C77.6813 39.866 77.9913 39.82 78.3273 39.82C78.5913 39.82 78.8373 39.85 79.0653 39.91C79.2933 39.966 79.5013 40.05 79.6893 40.162H81.3393ZM86.4179 42.298C86.4179 42.05 86.3819 41.824 86.3099 41.62C86.2419 41.412 86.1399 41.234 86.0039 41.086C85.8719 40.934 85.7099 40.818 85.5179 40.738C85.3259 40.654 85.1079 40.612 84.8639 40.612C84.3519 40.612 83.9459 40.762 83.6459 41.062C83.3499 41.358 83.1659 41.77 83.0939 42.298H86.4179ZM87.2819 45.148C87.1499 45.308 86.9919 45.448 86.8079 45.568C86.6239 45.684 86.4259 45.78 86.2139 45.856C86.0059 45.932 85.7899 45.988 85.5659 46.024C85.3419 46.064 85.1199 46.084 84.8999 46.084C84.4799 46.084 84.0919 46.014 83.7359 45.874C83.3839 45.73 83.0779 45.522 82.8179 45.25C82.5619 44.974 82.3619 44.634 82.2179 44.23C82.0739 43.826 82.0019 43.362 82.0019 42.838C82.0019 42.414 82.0659 42.018 82.1939 41.65C82.3259 41.282 82.5139 40.964 82.7579 40.696C83.0019 40.424 83.2999 40.212 83.6519 40.06C84.0039 39.904 84.3999 39.826 84.8399 39.826C85.2039 39.826 85.5399 39.888 85.8479 40.012C86.1599 40.132 86.4279 40.308 86.6519 40.54C86.8799 40.768 87.0579 41.052 87.1859 41.392C87.3139 41.728 87.3779 42.112 87.3779 42.544C87.3779 42.712 87.3599 42.824 87.3239 42.88C87.2879 42.936 87.2199 42.964 87.1199 42.964H83.0579C83.0699 43.348 83.1219 43.682 83.2139 43.966C83.3099 44.25 83.4419 44.488 83.6099 44.68C83.7779 44.868 83.9779 45.01 84.2099 45.106C84.4419 45.198 84.7019 45.244 84.9899 45.244C85.2579 45.244 85.4879 45.214 85.6799 45.154C85.8759 45.09 86.0439 45.022 86.1839 44.95C86.3239 44.878 86.4399 44.812 86.5319 44.752C86.6279 44.688 86.7099 44.656 86.7779 44.656C86.8659 44.656 86.9339 44.69 86.9819 44.758L87.2819 45.148ZM96.6994 39.922L93.3094 47.794C93.2734 47.874 93.2274 47.938 93.1714 47.986C93.1194 48.034 93.0374 48.058 92.9254 48.058H92.1334L93.2434 45.646L90.7354 39.922H91.6594C91.7514 39.922 91.8234 39.946 91.8754 39.994C91.9314 40.038 91.9694 40.088 91.9894 40.144L93.6154 43.972C93.6794 44.14 93.7334 44.316 93.7774 44.5C93.8334 44.312 93.8934 44.134 93.9574 43.966L95.5354 40.144C95.5594 40.08 95.5994 40.028 95.6554 39.988C95.7154 39.944 95.7814 39.922 95.8534 39.922H96.6994ZM100.041 39.826C100.485 39.826 100.885 39.9 101.241 40.048C101.597 40.196 101.901 40.406 102.153 40.678C102.405 40.95 102.597 41.28 102.729 41.668C102.865 42.052 102.933 42.482 102.933 42.958C102.933 43.438 102.865 43.87 102.729 44.254C102.597 44.638 102.405 44.966 102.153 45.238C101.901 45.51 101.597 45.72 101.241 45.868C100.885 46.012 100.485 46.084 100.041 46.084C99.5928 46.084 99.1888 46.012 98.8288 45.868C98.4728 45.72 98.1688 45.51 97.9168 45.238C97.6648 44.966 97.4708 44.638 97.3348 44.254C97.2028 43.87 97.1368 43.438 97.1368 42.958C97.1368 42.482 97.2028 42.052 97.3348 41.668C97.4708 41.28 97.6648 40.95 97.9168 40.678C98.1688 40.406 98.4728 40.196 98.8288 40.048C99.1888 39.9 99.5928 39.826 100.041 39.826ZM100.041 45.25C100.641 45.25 101.089 45.05 101.385 44.65C101.681 44.246 101.829 43.684 101.829 42.964C101.829 42.24 101.681 41.676 101.385 41.272C101.089 40.868 100.641 40.666 100.041 40.666C99.7368 40.666 99.4708 40.718 99.2428 40.822C99.0188 40.926 98.8308 41.076 98.6788 41.272C98.5308 41.468 98.4188 41.71 98.3428 41.998C98.2708 42.282 98.2348 42.604 98.2348 42.964C98.2348 43.684 98.3828 44.246 98.6788 44.65C98.9788 45.05 99.4328 45.25 100.041 45.25ZM109.285 39.922V46H108.649C108.497 46 108.401 45.926 108.361 45.778L108.277 45.124C108.013 45.416 107.717 45.652 107.389 45.832C107.061 46.008 106.685 46.096 106.261 46.096C105.929 46.096 105.635 46.042 105.379 45.934C105.127 45.822 104.915 45.666 104.743 45.466C104.571 45.266 104.441 45.024 104.353 44.74C104.269 44.456 104.227 44.142 104.227 43.798V39.922H105.295V43.798C105.295 44.258 105.399 44.614 105.607 44.866C105.819 45.118 106.141 45.244 106.573 45.244C106.889 45.244 107.183 45.17 107.455 45.022C107.731 44.87 107.985 44.662 108.217 44.398V39.922H109.285ZM111.993 41.14C112.185 40.724 112.421 40.4 112.701 40.168C112.981 39.932 113.323 39.814 113.727 39.814C113.855 39.814 113.977 39.828 114.093 39.856C114.213 39.884 114.319 39.928 114.411 39.988L114.333 40.786C114.309 40.886 114.249 40.936 114.153 40.936C114.097 40.936 114.015 40.924 113.907 40.9C113.799 40.876 113.677 40.864 113.541 40.864C113.349 40.864 113.177 40.892 113.025 40.948C112.877 41.004 112.743 41.088 112.623 41.2C112.507 41.308 112.401 41.444 112.305 41.608C112.213 41.768 112.129 41.952 112.053 42.16V46H110.979V39.922H111.591C111.707 39.922 111.787 39.944 111.831 39.988C111.875 40.032 111.905 40.108 111.921 40.216L111.993 41.14ZM124.45 44.224C124.514 44.224 124.57 44.25 124.618 44.302L125.08 44.8C124.728 45.208 124.3 45.526 123.796 45.754C123.296 45.982 122.69 46.096 121.978 46.096C121.362 46.096 120.802 45.99 120.298 45.778C119.794 45.562 119.364 45.262 119.008 44.878C118.652 44.49 118.376 44.026 118.18 43.486C117.984 42.946 117.886 42.352 117.886 41.704C117.886 41.056 117.988 40.462 118.192 39.922C118.396 39.382 118.682 38.918 119.05 38.53C119.422 38.142 119.866 37.842 120.382 37.63C120.898 37.414 121.468 37.306 122.092 37.306C122.704 37.306 123.244 37.404 123.712 37.6C124.18 37.796 124.592 38.062 124.948 38.398L124.564 38.932C124.54 38.972 124.508 39.006 124.468 39.034C124.432 39.058 124.382 39.07 124.318 39.07C124.246 39.07 124.158 39.032 124.054 38.956C123.95 38.876 123.814 38.788 123.646 38.692C123.478 38.596 123.268 38.51 123.016 38.434C122.764 38.354 122.454 38.314 122.086 38.314C121.642 38.314 121.236 38.392 120.868 38.548C120.5 38.7 120.182 38.922 119.914 39.214C119.65 39.506 119.444 39.862 119.296 40.282C119.148 40.702 119.074 41.176 119.074 41.704C119.074 42.24 119.15 42.718 119.302 43.138C119.458 43.558 119.668 43.914 119.932 44.206C120.2 44.494 120.514 44.714 120.874 44.866C121.238 45.018 121.63 45.094 122.05 45.094C122.306 45.094 122.536 45.08 122.74 45.052C122.948 45.02 123.138 44.972 123.31 44.908C123.486 44.844 123.648 44.764 123.796 44.668C123.948 44.568 124.098 44.45 124.246 44.314C124.314 44.254 124.382 44.224 124.45 44.224ZM130.828 38.746C130.792 38.806 130.752 38.852 130.708 38.884C130.668 38.912 130.618 38.926 130.558 38.926C130.49 38.926 130.41 38.892 130.318 38.824C130.226 38.756 130.11 38.682 129.97 38.602C129.834 38.518 129.668 38.442 129.472 38.374C129.28 38.306 129.046 38.272 128.77 38.272C128.51 38.272 128.28 38.308 128.08 38.38C127.884 38.448 127.718 38.542 127.582 38.662C127.45 38.782 127.35 38.924 127.282 39.088C127.214 39.248 127.18 39.422 127.18 39.61C127.18 39.85 127.238 40.05 127.354 40.21C127.474 40.366 127.63 40.5 127.822 40.612C128.018 40.724 128.238 40.822 128.482 40.906C128.73 40.986 128.982 41.07 129.238 41.158C129.498 41.246 129.75 41.346 129.994 41.458C130.242 41.566 130.462 41.704 130.654 41.872C130.85 42.04 131.006 42.246 131.122 42.49C131.242 42.734 131.302 43.034 131.302 43.39C131.302 43.766 131.238 44.12 131.11 44.452C130.982 44.78 130.794 45.066 130.546 45.31C130.302 45.554 130 45.746 129.64 45.886C129.284 46.026 128.878 46.096 128.422 46.096C127.862 46.096 127.354 45.996 126.898 45.796C126.442 45.592 126.052 45.318 125.728 44.974L126.064 44.422C126.096 44.378 126.134 44.342 126.178 44.314C126.226 44.282 126.278 44.266 126.334 44.266C126.386 44.266 126.444 44.288 126.508 44.332C126.576 44.372 126.652 44.424 126.736 44.488C126.82 44.552 126.916 44.622 127.024 44.698C127.132 44.774 127.254 44.844 127.39 44.908C127.53 44.972 127.688 45.026 127.864 45.07C128.04 45.11 128.238 45.13 128.458 45.13C128.734 45.13 128.98 45.092 129.196 45.016C129.412 44.94 129.594 44.834 129.742 44.698C129.894 44.558 130.01 44.392 130.09 44.2C130.17 44.008 130.21 43.794 130.21 43.558C130.21 43.298 130.15 43.086 130.03 42.922C129.914 42.754 129.76 42.614 129.568 42.502C129.376 42.39 129.156 42.296 128.908 42.22C128.66 42.14 128.408 42.06 128.152 41.98C127.896 41.896 127.644 41.8 127.396 41.692C127.148 41.584 126.928 41.444 126.736 41.272C126.544 41.1 126.388 40.886 126.268 40.63C126.152 40.37 126.094 40.05 126.094 39.67C126.094 39.366 126.152 39.072 126.268 38.788C126.388 38.504 126.56 38.252 126.784 38.032C127.012 37.812 127.29 37.636 127.618 37.504C127.95 37.372 128.33 37.306 128.758 37.306C129.238 37.306 129.674 37.382 130.066 37.534C130.462 37.686 130.81 37.906 131.11 38.194L130.828 38.746ZM139.783 37.402L136.279 46H135.235L131.731 37.402H132.661C132.765 37.402 132.849 37.428 132.913 37.48C132.977 37.532 133.025 37.598 133.057 37.678L135.481 43.744C135.533 43.88 135.583 44.028 135.631 44.188C135.683 44.348 135.729 44.516 135.769 44.692C135.809 44.516 135.851 44.348 135.895 44.188C135.939 44.028 135.987 43.88 136.039 43.744L138.457 37.678C138.481 37.61 138.527 37.548 138.595 37.492C138.667 37.432 138.753 37.402 138.853 37.402H139.783ZM143.37 40.924C143.322 41.012 143.248 41.056 143.148 41.056C143.088 41.056 143.02 41.034 142.944 40.99C142.868 40.946 142.774 40.898 142.662 40.846C142.554 40.79 142.424 40.74 142.272 40.696C142.12 40.648 141.94 40.624 141.732 40.624C141.552 40.624 141.39 40.648 141.246 40.696C141.102 40.74 140.978 40.802 140.874 40.882C140.774 40.962 140.696 41.056 140.64 41.164C140.588 41.268 140.562 41.382 140.562 41.506C140.562 41.662 140.606 41.792 140.694 41.896C140.786 42 140.906 42.09 141.054 42.166C141.202 42.242 141.37 42.31 141.558 42.37C141.746 42.426 141.938 42.488 142.134 42.556C142.334 42.62 142.528 42.692 142.716 42.772C142.904 42.852 143.072 42.952 143.22 43.072C143.368 43.192 143.486 43.34 143.574 43.516C143.666 43.688 143.712 43.896 143.712 44.14C143.712 44.42 143.662 44.68 143.562 44.92C143.462 45.156 143.314 45.362 143.118 45.538C142.922 45.71 142.682 45.846 142.398 45.946C142.114 46.046 141.786 46.096 141.414 46.096C140.99 46.096 140.606 46.028 140.262 45.892C139.918 45.752 139.626 45.574 139.386 45.358L139.638 44.95C139.67 44.898 139.708 44.858 139.752 44.83C139.796 44.802 139.852 44.788 139.92 44.788C139.992 44.788 140.068 44.816 140.148 44.872C140.228 44.928 140.324 44.99 140.436 45.058C140.552 45.126 140.692 45.188 140.856 45.244C141.02 45.3 141.224 45.328 141.468 45.328C141.676 45.328 141.858 45.302 142.014 45.25C142.17 45.194 142.3 45.12 142.404 45.028C142.508 44.936 142.584 44.83 142.632 44.71C142.684 44.59 142.71 44.462 142.71 44.326C142.71 44.158 142.664 44.02 142.572 43.912C142.484 43.8 142.366 43.706 142.218 43.63C142.07 43.55 141.9 43.482 141.708 43.426C141.52 43.366 141.326 43.304 141.126 43.24C140.93 43.176 140.736 43.104 140.544 43.024C140.356 42.94 140.188 42.836 140.04 42.712C139.892 42.588 139.772 42.436 139.68 42.256C139.592 42.072 139.548 41.85 139.548 41.59C139.548 41.358 139.596 41.136 139.692 40.924C139.788 40.708 139.928 40.52 140.112 40.36C140.296 40.196 140.522 40.066 140.79 39.97C141.058 39.874 141.364 39.826 141.708 39.826C142.108 39.826 142.466 39.89 142.782 40.018C143.102 40.142 143.378 40.314 143.61 40.534L143.37 40.924ZM152.052 41.368C151.852 41.1 151.636 40.914 151.404 40.81C151.172 40.702 150.912 40.648 150.624 40.648C150.06 40.648 149.626 40.85 149.322 41.254C149.018 41.658 148.866 42.234 148.866 42.982C148.866 43.378 148.9 43.718 148.968 44.002C149.036 44.282 149.136 44.514 149.268 44.698C149.4 44.878 149.562 45.01 149.754 45.094C149.946 45.178 150.164 45.22 150.408 45.22C150.76 45.22 151.066 45.14 151.326 44.98C151.59 44.82 151.832 44.594 152.052 44.302V41.368ZM153.12 37.162V46H152.484C152.332 46 152.236 45.926 152.196 45.778L152.1 45.04C151.84 45.352 151.544 45.604 151.212 45.796C150.88 45.988 150.496 46.084 150.06 46.084C149.712 46.084 149.396 46.018 149.112 45.886C148.828 45.75 148.586 45.552 148.386 45.292C148.186 45.032 148.032 44.708 147.924 44.32C147.816 43.932 147.762 43.486 147.762 42.982C147.762 42.534 147.822 42.118 147.942 41.734C148.062 41.346 148.234 41.01 148.458 40.726C148.682 40.442 148.956 40.22 149.28 40.06C149.608 39.896 149.976 39.814 150.384 39.814C150.756 39.814 151.074 39.878 151.338 40.006C151.606 40.13 151.844 40.304 152.052 40.528V37.162H153.12ZM158.875 42.298C158.875 42.05 158.839 41.824 158.767 41.62C158.699 41.412 158.597 41.234 158.461 41.086C158.329 40.934 158.167 40.818 157.975 40.738C157.783 40.654 157.565 40.612 157.321 40.612C156.809 40.612 156.403 40.762 156.103 41.062C155.807 41.358 155.623 41.77 155.551 42.298H158.875ZM159.739 45.148C159.607 45.308 159.449 45.448 159.265 45.568C159.081 45.684 158.883 45.78 158.671 45.856C158.463 45.932 158.247 45.988 158.023 46.024C157.799 46.064 157.577 46.084 157.357 46.084C156.937 46.084 156.549 46.014 156.193 45.874C155.841 45.73 155.535 45.522 155.275 45.25C155.019 44.974 154.819 44.634 154.675 44.23C154.531 43.826 154.459 43.362 154.459 42.838C154.459 42.414 154.523 42.018 154.651 41.65C154.783 41.282 154.971 40.964 155.215 40.696C155.459 40.424 155.757 40.212 156.109 40.06C156.461 39.904 156.857 39.826 157.297 39.826C157.661 39.826 157.997 39.888 158.305 40.012C158.617 40.132 158.885 40.308 159.109 40.54C159.337 40.768 159.515 41.052 159.643 41.392C159.771 41.728 159.835 42.112 159.835 42.544C159.835 42.712 159.817 42.824 159.781 42.88C159.745 42.936 159.677 42.964 159.577 42.964H155.515C155.527 43.348 155.579 43.682 155.671 43.966C155.767 44.25 155.899 44.488 156.067 44.68C156.235 44.868 156.435 45.01 156.667 45.106C156.899 45.198 157.159 45.244 157.447 45.244C157.715 45.244 157.945 45.214 158.137 45.154C158.333 45.09 158.501 45.022 158.641 44.95C158.781 44.878 158.897 44.812 158.989 44.752C159.085 44.688 159.167 44.656 159.235 44.656C159.323 44.656 159.391 44.69 159.439 44.758L159.739 45.148ZM162.251 37.162V46H161.183V37.162H162.251ZM165.111 39.922V46H164.043V39.922H165.111ZM165.339 38.014C165.339 38.118 165.317 38.216 165.273 38.308C165.233 38.396 165.177 38.476 165.105 38.548C165.037 38.616 164.955 38.67 164.859 38.71C164.767 38.75 164.669 38.77 164.565 38.77C164.461 38.77 164.363 38.75 164.271 38.71C164.183 38.67 164.105 38.616 164.037 38.548C163.969 38.476 163.915 38.396 163.875 38.308C163.835 38.216 163.815 38.118 163.815 38.014C163.815 37.91 163.835 37.812 163.875 37.72C163.915 37.624 163.969 37.542 164.037 37.474C164.105 37.402 164.183 37.346 164.271 37.306C164.363 37.266 164.461 37.246 164.565 37.246C164.669 37.246 164.767 37.266 164.859 37.306C164.955 37.346 165.037 37.402 165.105 37.474C165.177 37.542 165.233 37.624 165.273 37.72C165.317 37.812 165.339 37.91 165.339 38.014ZM166.866 46V39.922H167.508C167.66 39.922 167.754 39.996 167.79 40.144L167.868 40.768C168.092 40.492 168.344 40.266 168.624 40.09C168.904 39.914 169.228 39.826 169.596 39.826C170.004 39.826 170.334 39.94 170.586 40.168C170.842 40.396 171.026 40.704 171.138 41.092C171.226 40.872 171.338 40.682 171.474 40.522C171.614 40.362 171.77 40.23 171.942 40.126C172.114 40.022 172.296 39.946 172.488 39.898C172.684 39.85 172.882 39.826 173.082 39.826C173.402 39.826 173.686 39.878 173.934 39.982C174.186 40.082 174.398 40.23 174.57 40.426C174.746 40.622 174.88 40.864 174.972 41.152C175.064 41.436 175.11 41.762 175.11 42.13V46H174.036V42.13C174.036 41.654 173.932 41.294 173.724 41.05C173.516 40.802 173.216 40.678 172.824 40.678C172.648 40.678 172.48 40.71 172.32 40.774C172.164 40.834 172.026 40.924 171.906 41.044C171.786 41.164 171.69 41.316 171.618 41.5C171.55 41.68 171.516 41.89 171.516 42.13V46H170.442V42.13C170.442 41.642 170.344 41.278 170.148 41.038C169.952 40.798 169.666 40.678 169.29 40.678C169.026 40.678 168.782 40.75 168.558 40.894C168.334 41.034 168.128 41.226 167.94 41.47V46H166.866ZM177.861 39.922V46H176.793V39.922H177.861ZM178.089 38.014C178.089 38.118 178.067 38.216 178.023 38.308C177.983 38.396 177.927 38.476 177.855 38.548C177.787 38.616 177.705 38.67 177.609 38.71C177.517 38.75 177.419 38.77 177.315 38.77C177.211 38.77 177.113 38.75 177.021 38.71C176.933 38.67 176.855 38.616 176.787 38.548C176.719 38.476 176.665 38.396 176.625 38.308C176.585 38.216 176.565 38.118 176.565 38.014C176.565 37.91 176.585 37.812 176.625 37.72C176.665 37.624 176.719 37.542 176.787 37.474C176.855 37.402 176.933 37.346 177.021 37.306C177.113 37.266 177.211 37.246 177.315 37.246C177.419 37.246 177.517 37.266 177.609 37.306C177.705 37.346 177.787 37.402 177.855 37.474C177.927 37.542 177.983 37.624 178.023 37.72C178.067 37.812 178.089 37.91 178.089 38.014ZM181.482 46.096C181.002 46.096 180.632 45.962 180.372 45.694C180.116 45.426 179.988 45.04 179.988 44.536V40.816H179.256C179.192 40.816 179.138 40.798 179.094 40.762C179.05 40.722 179.028 40.662 179.028 40.582V40.156L180.024 40.03L180.27 38.152C180.282 38.092 180.308 38.044 180.348 38.008C180.392 37.968 180.448 37.948 180.516 37.948H181.056V40.042H182.814V40.816H181.056V44.464C181.056 44.72 181.118 44.91 181.242 45.034C181.366 45.158 181.526 45.22 181.722 45.22C181.834 45.22 181.93 45.206 182.01 45.178C182.094 45.146 182.166 45.112 182.226 45.076C182.286 45.04 182.336 45.008 182.376 44.98C182.42 44.948 182.458 44.932 182.49 44.932C182.546 44.932 182.596 44.966 182.64 45.034L182.952 45.544C182.768 45.716 182.546 45.852 182.286 45.952C182.026 46.048 181.758 46.096 181.482 46.096ZM187.949 42.298C187.949 42.05 187.913 41.824 187.841 41.62C187.773 41.412 187.671 41.234 187.535 41.086C187.403 40.934 187.241 40.818 187.049 40.738C186.857 40.654 186.639 40.612 186.395 40.612C185.883 40.612 185.477 40.762 185.177 41.062C184.881 41.358 184.697 41.77 184.625 42.298H187.949ZM188.813 45.148C188.681 45.308 188.523 45.448 188.339 45.568C188.155 45.684 187.957 45.78 187.745 45.856C187.537 45.932 187.321 45.988 187.097 46.024C186.873 46.064 186.651 46.084 186.431 46.084C186.011 46.084 185.623 46.014 185.267 45.874C184.915 45.73 184.609 45.522 184.349 45.25C184.093 44.974 183.893 44.634 183.749 44.23C183.605 43.826 183.533 43.362 183.533 42.838C183.533 42.414 183.597 42.018 183.725 41.65C183.857 41.282 184.045 40.964 184.289 40.696C184.533 40.424 184.831 40.212 185.183 40.06C185.535 39.904 185.931 39.826 186.371 39.826C186.735 39.826 187.071 39.888 187.379 40.012C187.691 40.132 187.959 40.308 188.183 40.54C188.411 40.768 188.589 41.052 188.717 41.392C188.845 41.728 188.909 42.112 188.909 42.544C188.909 42.712 188.891 42.824 188.855 42.88C188.819 42.936 188.751 42.964 188.651 42.964H184.589C184.601 43.348 184.653 43.682 184.745 43.966C184.841 44.25 184.973 44.488 185.141 44.68C185.309 44.868 185.509 45.01 185.741 45.106C185.973 45.198 186.233 45.244 186.521 45.244C186.789 45.244 187.019 45.214 187.211 45.154C187.407 45.09 187.575 45.022 187.715 44.95C187.855 44.878 187.971 44.812 188.063 44.752C188.159 44.688 188.241 44.656 188.309 44.656C188.397 44.656 188.465 44.69 188.513 44.758L188.813 45.148ZM191.235 41.14C191.427 40.724 191.663 40.4 191.943 40.168C192.223 39.932 192.565 39.814 192.969 39.814C193.097 39.814 193.219 39.828 193.335 39.856C193.455 39.884 193.561 39.928 193.653 39.988L193.575 40.786C193.551 40.886 193.491 40.936 193.395 40.936C193.339 40.936 193.257 40.924 193.149 40.9C193.041 40.876 192.919 40.864 192.783 40.864C192.591 40.864 192.419 40.892 192.267 40.948C192.119 41.004 191.985 41.088 191.865 41.2C191.749 41.308 191.643 41.444 191.547 41.608C191.455 41.768 191.371 41.952 191.295 42.16V46H190.221V39.922H190.833C190.949 39.922 191.029 39.944 191.073 39.988C191.117 40.032 191.147 40.108 191.163 40.216L191.235 41.14ZM200.699 43.264C200.207 43.28 199.787 43.32 199.439 43.384C199.095 43.444 198.813 43.524 198.593 43.624C198.377 43.724 198.219 43.842 198.119 43.978C198.023 44.114 197.975 44.266 197.975 44.434C197.975 44.594 198.001 44.732 198.053 44.848C198.105 44.964 198.175 45.06 198.263 45.136C198.355 45.208 198.461 45.262 198.581 45.298C198.705 45.33 198.837 45.346 198.977 45.346C199.165 45.346 199.337 45.328 199.493 45.292C199.649 45.252 199.795 45.196 199.931 45.124C200.071 45.052 200.203 44.966 200.327 44.866C200.455 44.766 200.579 44.652 200.699 44.524V43.264ZM197.249 40.78C197.585 40.456 197.947 40.214 198.335 40.054C198.723 39.894 199.153 39.814 199.625 39.814C199.965 39.814 200.267 39.87 200.531 39.982C200.795 40.094 201.017 40.25 201.197 40.45C201.377 40.65 201.513 40.892 201.605 41.176C201.697 41.46 201.743 41.772 201.743 42.112V46H201.269C201.165 46 201.085 45.984 201.029 45.952C200.973 45.916 200.929 45.848 200.897 45.748L200.777 45.172C200.617 45.32 200.461 45.452 200.309 45.568C200.157 45.68 199.997 45.776 199.829 45.856C199.661 45.932 199.481 45.99 199.289 46.03C199.101 46.074 198.891 46.096 198.659 46.096C198.423 46.096 198.201 46.064 197.993 46C197.785 45.932 197.603 45.832 197.447 45.7C197.295 45.568 197.173 45.402 197.081 45.202C196.993 44.998 196.949 44.758 196.949 44.482C196.949 44.242 197.015 44.012 197.147 43.792C197.279 43.568 197.493 43.37 197.789 43.198C198.085 43.026 198.471 42.886 198.947 42.778C199.423 42.666 200.007 42.602 200.699 42.586V42.112C200.699 41.64 200.597 41.284 200.393 41.044C200.189 40.8 199.891 40.678 199.499 40.678C199.235 40.678 199.013 40.712 198.833 40.78C198.657 40.844 198.503 40.918 198.371 41.002C198.243 41.082 198.131 41.156 198.035 41.224C197.943 41.288 197.851 41.32 197.759 41.32C197.687 41.32 197.625 41.302 197.573 41.266C197.521 41.226 197.477 41.178 197.441 41.122L197.249 40.78ZM204.377 40.804C204.509 40.656 204.649 40.522 204.797 40.402C204.945 40.282 205.101 40.18 205.265 40.096C205.433 40.008 205.609 39.942 205.793 39.898C205.981 39.85 206.183 39.826 206.399 39.826C206.731 39.826 207.023 39.882 207.275 39.994C207.531 40.102 207.743 40.258 207.911 40.462C208.083 40.662 208.213 40.904 208.301 41.188C208.389 41.472 208.433 41.786 208.433 42.13V46H207.359V42.13C207.359 41.67 207.253 41.314 207.041 41.062C206.833 40.806 206.515 40.678 206.087 40.678C205.771 40.678 205.475 40.754 205.199 40.906C204.927 41.058 204.675 41.264 204.443 41.524V46H203.369V39.922H204.011C204.163 39.922 204.257 39.996 204.293 40.144L204.377 40.804ZM214.021 41.368C213.821 41.1 213.605 40.914 213.373 40.81C213.141 40.702 212.881 40.648 212.593 40.648C212.029 40.648 211.595 40.85 211.291 41.254C210.987 41.658 210.835 42.234 210.835 42.982C210.835 43.378 210.869 43.718 210.937 44.002C211.005 44.282 211.105 44.514 211.237 44.698C211.369 44.878 211.531 45.01 211.723 45.094C211.915 45.178 212.133 45.22 212.377 45.22C212.729 45.22 213.035 45.14 213.295 44.98C213.559 44.82 213.801 44.594 214.021 44.302V41.368ZM215.089 37.162V46H214.453C214.301 46 214.205 45.926 214.165 45.778L214.069 45.04C213.809 45.352 213.513 45.604 213.181 45.796C212.849 45.988 212.465 46.084 212.029 46.084C211.681 46.084 211.365 46.018 211.081 45.886C210.797 45.75 210.555 45.552 210.355 45.292C210.155 45.032 210.001 44.708 209.893 44.32C209.785 43.932 209.731 43.486 209.731 42.982C209.731 42.534 209.791 42.118 209.911 41.734C210.031 41.346 210.203 41.01 210.427 40.726C210.651 40.442 210.925 40.22 211.249 40.06C211.577 39.896 211.945 39.814 212.353 39.814C212.725 39.814 213.043 39.878 213.307 40.006C213.575 40.13 213.813 40.304 214.021 40.528V37.162H215.089ZM220.86 41.14C221.052 40.724 221.288 40.4 221.568 40.168C221.848 39.932 222.19 39.814 222.594 39.814C222.722 39.814 222.844 39.828 222.96 39.856C223.08 39.884 223.186 39.928 223.278 39.988L223.2 40.786C223.176 40.886 223.116 40.936 223.02 40.936C222.964 40.936 222.882 40.924 222.774 40.9C222.666 40.876 222.544 40.864 222.408 40.864C222.216 40.864 222.044 40.892 221.892 40.948C221.744 41.004 221.61 41.088 221.49 41.2C221.374 41.308 221.268 41.444 221.172 41.608C221.08 41.768 220.996 41.952 220.92 42.16V46H219.846V39.922H220.458C220.574 39.922 220.654 39.944 220.698 39.988C220.742 40.032 220.772 40.108 220.788 40.216L220.86 41.14ZM228.039 42.298C228.039 42.05 228.003 41.824 227.931 41.62C227.863 41.412 227.761 41.234 227.625 41.086C227.493 40.934 227.331 40.818 227.139 40.738C226.947 40.654 226.729 40.612 226.485 40.612C225.973 40.612 225.567 40.762 225.267 41.062C224.971 41.358 224.787 41.77 224.715 42.298H228.039ZM228.903 45.148C228.771 45.308 228.613 45.448 228.429 45.568C228.245 45.684 228.047 45.78 227.835 45.856C227.627 45.932 227.411 45.988 227.187 46.024C226.963 46.064 226.741 46.084 226.521 46.084C226.101 46.084 225.713 46.014 225.357 45.874C225.005 45.73 224.699 45.522 224.439 45.25C224.183 44.974 223.983 44.634 223.839 44.23C223.695 43.826 223.623 43.362 223.623 42.838C223.623 42.414 223.687 42.018 223.815 41.65C223.947 41.282 224.135 40.964 224.379 40.696C224.623 40.424 224.921 40.212 225.273 40.06C225.625 39.904 226.021 39.826 226.461 39.826C226.825 39.826 227.161 39.888 227.469 40.012C227.781 40.132 228.049 40.308 228.273 40.54C228.501 40.768 228.679 41.052 228.807 41.392C228.935 41.728 228.999 42.112 228.999 42.544C228.999 42.712 228.981 42.824 228.945 42.88C228.909 42.936 228.841 42.964 228.741 42.964H224.679C224.691 43.348 224.743 43.682 224.835 43.966C224.931 44.25 225.063 44.488 225.231 44.68C225.399 44.868 225.599 45.01 225.831 45.106C226.063 45.198 226.323 45.244 226.611 45.244C226.879 45.244 227.109 45.214 227.301 45.154C227.497 45.09 227.665 45.022 227.805 44.95C227.945 44.878 228.061 44.812 228.153 44.752C228.249 44.688 228.331 44.656 228.399 44.656C228.487 44.656 228.555 44.69 228.603 44.758L228.903 45.148ZM230.311 46V39.922H230.953C231.105 39.922 231.199 39.996 231.235 40.144L231.313 40.768C231.537 40.492 231.789 40.266 232.069 40.09C232.349 39.914 232.673 39.826 233.041 39.826C233.449 39.826 233.779 39.94 234.031 40.168C234.287 40.396 234.471 40.704 234.583 41.092C234.671 40.872 234.783 40.682 234.919 40.522C235.059 40.362 235.215 40.23 235.387 40.126C235.559 40.022 235.741 39.946 235.933 39.898C236.129 39.85 236.327 39.826 236.527 39.826C236.847 39.826 237.131 39.878 237.379 39.982C237.631 40.082 237.843 40.23 238.015 40.426C238.191 40.622 238.325 40.864 238.417 41.152C238.509 41.436 238.555 41.762 238.555 42.13V46H237.481V42.13C237.481 41.654 237.377 41.294 237.169 41.05C236.961 40.802 236.661 40.678 236.269 40.678C236.093 40.678 235.925 40.71 235.765 40.774C235.609 40.834 235.471 40.924 235.351 41.044C235.231 41.164 235.135 41.316 235.063 41.5C234.995 41.68 234.961 41.89 234.961 42.13V46H233.887V42.13C233.887 41.642 233.789 41.278 233.593 41.038C233.397 40.798 233.111 40.678 232.735 40.678C232.471 40.678 232.227 40.75 232.003 40.894C231.779 41.034 231.573 41.226 231.385 41.47V46H230.311ZM243.472 43.264C242.98 43.28 242.56 43.32 242.212 43.384C241.868 43.444 241.586 43.524 241.366 43.624C241.15 43.724 240.992 43.842 240.892 43.978C240.796 44.114 240.748 44.266 240.748 44.434C240.748 44.594 240.774 44.732 240.826 44.848C240.878 44.964 240.948 45.06 241.036 45.136C241.128 45.208 241.234 45.262 241.354 45.298C241.478 45.33 241.61 45.346 241.75 45.346C241.938 45.346 242.11 45.328 242.266 45.292C242.422 45.252 242.568 45.196 242.704 45.124C242.844 45.052 242.976 44.966 243.1 44.866C243.228 44.766 243.352 44.652 243.472 44.524V43.264ZM240.022 40.78C240.358 40.456 240.72 40.214 241.108 40.054C241.496 39.894 241.926 39.814 242.398 39.814C242.738 39.814 243.04 39.87 243.304 39.982C243.568 40.094 243.79 40.25 243.97 40.45C244.15 40.65 244.286 40.892 244.378 41.176C244.47 41.46 244.516 41.772 244.516 42.112V46H244.042C243.938 46 243.858 45.984 243.802 45.952C243.746 45.916 243.702 45.848 243.67 45.748L243.55 45.172C243.39 45.32 243.234 45.452 243.082 45.568C242.93 45.68 242.77 45.776 242.602 45.856C242.434 45.932 242.254 45.99 242.062 46.03C241.874 46.074 241.664 46.096 241.432 46.096C241.196 46.096 240.974 46.064 240.766 46C240.558 45.932 240.376 45.832 240.22 45.7C240.068 45.568 239.946 45.402 239.854 45.202C239.766 44.998 239.722 44.758 239.722 44.482C239.722 44.242 239.788 44.012 239.92 43.792C240.052 43.568 240.266 43.37 240.562 43.198C240.858 43.026 241.244 42.886 241.72 42.778C242.196 42.666 242.78 42.602 243.472 42.586V42.112C243.472 41.64 243.37 41.284 243.166 41.044C242.962 40.8 242.664 40.678 242.272 40.678C242.008 40.678 241.786 40.712 241.606 40.78C241.43 40.844 241.276 40.918 241.144 41.002C241.016 41.082 240.904 41.156 240.808 41.224C240.716 41.288 240.624 41.32 240.532 41.32C240.46 41.32 240.398 41.302 240.346 41.266C240.294 41.226 240.25 41.178 240.214 41.122L240.022 40.78ZM247.217 44.536C247.413 44.8 247.627 44.986 247.859 45.094C248.091 45.202 248.351 45.256 248.639 45.256C249.207 45.256 249.643 45.054 249.947 44.65C250.251 44.246 250.403 43.67 250.403 42.922C250.403 42.526 250.367 42.186 250.295 41.902C250.227 41.618 250.127 41.386 249.995 41.206C249.863 41.022 249.701 40.888 249.509 40.804C249.317 40.72 249.099 40.678 248.855 40.678C248.507 40.678 248.201 40.758 247.937 40.918C247.677 41.078 247.437 41.304 247.217 41.596V44.536ZM247.163 40.864C247.419 40.548 247.715 40.294 248.051 40.102C248.387 39.91 248.771 39.814 249.203 39.814C249.555 39.814 249.873 39.882 250.157 40.018C250.441 40.15 250.683 40.348 250.883 40.612C251.083 40.872 251.237 41.196 251.345 41.584C251.453 41.972 251.507 42.418 251.507 42.922C251.507 43.37 251.447 43.788 251.327 44.176C251.207 44.56 251.033 44.894 250.805 45.178C250.581 45.458 250.305 45.68 249.977 45.844C249.653 46.004 249.287 46.084 248.879 46.084C248.507 46.084 248.187 46.022 247.919 45.898C247.655 45.77 247.421 45.594 247.217 45.37V48.058H246.143V39.922H246.785C246.937 39.922 247.031 39.996 247.067 40.144L247.163 40.864ZM260.17 41.002C260.138 41.046 260.106 41.08 260.074 41.104C260.042 41.128 259.998 41.14 259.942 41.14C259.882 41.14 259.816 41.116 259.744 41.068C259.672 41.016 259.582 40.96 259.474 40.9C259.37 40.84 259.24 40.786 259.084 40.738C258.932 40.686 258.744 40.66 258.52 40.66C258.22 40.66 257.956 40.714 257.728 40.822C257.5 40.926 257.308 41.078 257.152 41.278C257 41.478 256.884 41.72 256.804 42.004C256.728 42.288 256.69 42.606 256.69 42.958C256.69 43.326 256.732 43.654 256.816 43.942C256.9 44.226 257.018 44.466 257.17 44.662C257.326 44.854 257.512 45.002 257.728 45.106C257.948 45.206 258.194 45.256 258.466 45.256C258.726 45.256 258.94 45.226 259.108 45.166C259.276 45.102 259.414 45.032 259.522 44.956C259.634 44.88 259.726 44.812 259.798 44.752C259.874 44.688 259.948 44.656 260.02 44.656C260.108 44.656 260.176 44.69 260.224 44.758L260.524 45.148C260.392 45.312 260.242 45.452 260.074 45.568C259.906 45.684 259.724 45.782 259.528 45.862C259.336 45.938 259.134 45.994 258.922 46.03C258.71 46.066 258.494 46.084 258.274 46.084C257.894 46.084 257.54 46.014 257.212 45.874C256.888 45.734 256.606 45.532 256.366 45.268C256.126 45 255.938 44.672 255.802 44.284C255.666 43.896 255.598 43.454 255.598 42.958C255.598 42.506 255.66 42.088 255.784 41.704C255.912 41.32 256.096 40.99 256.336 40.714C256.58 40.434 256.878 40.216 257.23 40.06C257.586 39.904 257.994 39.826 258.454 39.826C258.882 39.826 259.258 39.896 259.582 40.036C259.91 40.172 260.2 40.366 260.452 40.618L260.17 41.002ZM264.127 39.826C264.571 39.826 264.971 39.9 265.327 40.048C265.683 40.196 265.987 40.406 266.239 40.678C266.491 40.95 266.683 41.28 266.815 41.668C266.951 42.052 267.019 42.482 267.019 42.958C267.019 43.438 266.951 43.87 266.815 44.254C266.683 44.638 266.491 44.966 266.239 45.238C265.987 45.51 265.683 45.72 265.327 45.868C264.971 46.012 264.571 46.084 264.127 46.084C263.679 46.084 263.275 46.012 262.915 45.868C262.559 45.72 262.255 45.51 262.003 45.238C261.751 44.966 261.557 44.638 261.421 44.254C261.289 43.87 261.223 43.438 261.223 42.958C261.223 42.482 261.289 42.052 261.421 41.668C261.557 41.28 261.751 40.95 262.003 40.678C262.255 40.406 262.559 40.196 262.915 40.048C263.275 39.9 263.679 39.826 264.127 39.826ZM264.127 45.25C264.727 45.25 265.175 45.05 265.471 44.65C265.767 44.246 265.915 43.684 265.915 42.964C265.915 42.24 265.767 41.676 265.471 41.272C265.175 40.868 264.727 40.666 264.127 40.666C263.823 40.666 263.557 40.718 263.329 40.822C263.105 40.926 262.917 41.076 262.765 41.272C262.617 41.468 262.505 41.71 262.429 41.998C262.357 42.282 262.321 42.604 262.321 42.964C262.321 43.684 262.469 44.246 262.765 44.65C263.065 45.05 263.519 45.25 264.127 45.25ZM269.477 37.162V46H268.409V37.162H269.477ZM276.207 39.922V46H275.571C275.419 46 275.323 45.926 275.283 45.778L275.199 45.124C274.935 45.416 274.639 45.652 274.311 45.832C273.983 46.008 273.607 46.096 273.183 46.096C272.851 46.096 272.557 46.042 272.301 45.934C272.049 45.822 271.837 45.666 271.665 45.466C271.493 45.266 271.363 45.024 271.275 44.74C271.191 44.456 271.149 44.142 271.149 43.798V39.922H272.217V43.798C272.217 44.258 272.321 44.614 272.529 44.866C272.741 45.118 273.063 45.244 273.495 45.244C273.811 45.244 274.105 45.17 274.377 45.022C274.653 44.87 274.907 44.662 275.139 44.398V39.922H276.207ZM277.901 46V39.922H278.543C278.695 39.922 278.789 39.996 278.825 40.144L278.903 40.768C279.127 40.492 279.379 40.266 279.659 40.09C279.939 39.914 280.263 39.826 280.631 39.826C281.039 39.826 281.369 39.94 281.621 40.168C281.877 40.396 282.061 40.704 282.173 41.092C282.261 40.872 282.373 40.682 282.509 40.522C282.649 40.362 282.805 40.23 282.977 40.126C283.149 40.022 283.331 39.946 283.523 39.898C283.719 39.85 283.917 39.826 284.117 39.826C284.437 39.826 284.721 39.878 284.969 39.982C285.221 40.082 285.433 40.23 285.605 40.426C285.781 40.622 285.915 40.864 286.007 41.152C286.099 41.436 286.145 41.762 286.145 42.13V46H285.071V42.13C285.071 41.654 284.967 41.294 284.759 41.05C284.551 40.802 284.251 40.678 283.859 40.678C283.683 40.678 283.515 40.71 283.355 40.774C283.199 40.834 283.061 40.924 282.941 41.044C282.821 41.164 282.725 41.316 282.653 41.5C282.585 41.68 282.551 41.89 282.551 42.13V46H281.477V42.13C281.477 41.642 281.379 41.278 281.183 41.038C280.987 40.798 280.701 40.678 280.325 40.678C280.061 40.678 279.817 40.75 279.593 40.894C279.369 41.034 279.163 41.226 278.975 41.47V46H277.901ZM288.776 40.804C288.908 40.656 289.048 40.522 289.196 40.402C289.344 40.282 289.5 40.18 289.664 40.096C289.832 40.008 290.008 39.942 290.192 39.898C290.38 39.85 290.582 39.826 290.798 39.826C291.13 39.826 291.422 39.882 291.674 39.994C291.93 40.102 292.142 40.258 292.31 40.462C292.482 40.662 292.612 40.904 292.7 41.188C292.788 41.472 292.832 41.786 292.832 42.13V46H291.758V42.13C291.758 41.67 291.652 41.314 291.44 41.062C291.232 40.806 290.914 40.678 290.486 40.678C290.17 40.678 289.874 40.754 289.598 40.906C289.326 41.058 289.074 41.264 288.842 41.524V46H287.768V39.922H288.41C288.562 39.922 288.656 39.996 288.692 40.144L288.776 40.804ZM298.604 40.732C298.864 40.456 299.152 40.236 299.468 40.072C299.784 39.908 300.148 39.826 300.56 39.826C300.892 39.826 301.184 39.882 301.436 39.994C301.692 40.102 301.904 40.258 302.072 40.462C302.244 40.662 302.374 40.904 302.462 41.188C302.55 41.472 302.594 41.786 302.594 42.13V46H301.52V42.13C301.52 41.67 301.414 41.314 301.202 41.062C300.994 40.806 300.676 40.678 300.248 40.678C299.932 40.678 299.636 40.754 299.36 40.906C299.088 41.058 298.836 41.264 298.604 41.524V46H297.53V37.162H298.604V40.732ZM308.289 42.298C308.289 42.05 308.253 41.824 308.181 41.62C308.113 41.412 308.011 41.234 307.875 41.086C307.743 40.934 307.581 40.818 307.389 40.738C307.197 40.654 306.979 40.612 306.735 40.612C306.223 40.612 305.817 40.762 305.517 41.062C305.221 41.358 305.037 41.77 304.965 42.298H308.289ZM309.153 45.148C309.021 45.308 308.863 45.448 308.679 45.568C308.495 45.684 308.297 45.78 308.085 45.856C307.877 45.932 307.661 45.988 307.437 46.024C307.213 46.064 306.991 46.084 306.771 46.084C306.351 46.084 305.963 46.014 305.607 45.874C305.255 45.73 304.949 45.522 304.689 45.25C304.433 44.974 304.233 44.634 304.089 44.23C303.945 43.826 303.873 43.362 303.873 42.838C303.873 42.414 303.937 42.018 304.065 41.65C304.197 41.282 304.385 40.964 304.629 40.696C304.873 40.424 305.171 40.212 305.523 40.06C305.875 39.904 306.271 39.826 306.711 39.826C307.075 39.826 307.411 39.888 307.719 40.012C308.031 40.132 308.299 40.308 308.523 40.54C308.751 40.768 308.929 41.052 309.057 41.392C309.185 41.728 309.249 42.112 309.249 42.544C309.249 42.712 309.231 42.824 309.195 42.88C309.159 42.936 309.091 42.964 308.991 42.964H304.929C304.941 43.348 304.993 43.682 305.085 43.966C305.181 44.25 305.313 44.488 305.481 44.68C305.649 44.868 305.849 45.01 306.081 45.106C306.313 45.198 306.573 45.244 306.861 45.244C307.129 45.244 307.359 45.214 307.551 45.154C307.747 45.09 307.915 45.022 308.055 44.95C308.195 44.878 308.311 44.812 308.403 44.752C308.499 44.688 308.581 44.656 308.649 44.656C308.737 44.656 308.805 44.69 308.853 44.758L309.153 45.148ZM313.855 43.264C313.363 43.28 312.943 43.32 312.595 43.384C312.251 43.444 311.969 43.524 311.749 43.624C311.533 43.724 311.375 43.842 311.275 43.978C311.179 44.114 311.131 44.266 311.131 44.434C311.131 44.594 311.157 44.732 311.209 44.848C311.261 44.964 311.331 45.06 311.419 45.136C311.511 45.208 311.617 45.262 311.737 45.298C311.861 45.33 311.993 45.346 312.133 45.346C312.321 45.346 312.493 45.328 312.649 45.292C312.805 45.252 312.951 45.196 313.087 45.124C313.227 45.052 313.359 44.966 313.483 44.866C313.611 44.766 313.735 44.652 313.855 44.524V43.264ZM310.405 40.78C310.741 40.456 311.103 40.214 311.491 40.054C311.879 39.894 312.309 39.814 312.781 39.814C313.121 39.814 313.423 39.87 313.687 39.982C313.951 40.094 314.173 40.25 314.353 40.45C314.533 40.65 314.669 40.892 314.761 41.176C314.853 41.46 314.899 41.772 314.899 42.112V46H314.425C314.321 46 314.241 45.984 314.185 45.952C314.129 45.916 314.085 45.848 314.053 45.748L313.933 45.172C313.773 45.32 313.617 45.452 313.465 45.568C313.313 45.68 313.153 45.776 312.985 45.856C312.817 45.932 312.637 45.99 312.445 46.03C312.257 46.074 312.047 46.096 311.815 46.096C311.579 46.096 311.357 46.064 311.149 46C310.941 45.932 310.759 45.832 310.603 45.7C310.451 45.568 310.329 45.402 310.237 45.202C310.149 44.998 310.105 44.758 310.105 44.482C310.105 44.242 310.171 44.012 310.303 43.792C310.435 43.568 310.649 43.37 310.945 43.198C311.241 43.026 311.627 42.886 312.103 42.778C312.579 42.666 313.163 42.602 313.855 42.586V42.112C313.855 41.64 313.753 41.284 313.549 41.044C313.345 40.8 313.047 40.678 312.655 40.678C312.391 40.678 312.169 40.712 311.989 40.78C311.813 40.844 311.659 40.918 311.527 41.002C311.399 41.082 311.287 41.156 311.191 41.224C311.099 41.288 311.007 41.32 310.915 41.32C310.843 41.32 310.781 41.302 310.729 41.266C310.677 41.226 310.633 41.178 310.597 41.122L310.405 40.78ZM320.486 41.368C320.286 41.1 320.07 40.914 319.838 40.81C319.606 40.702 319.346 40.648 319.058 40.648C318.494 40.648 318.06 40.85 317.756 41.254C317.452 41.658 317.3 42.234 317.3 42.982C317.3 43.378 317.334 43.718 317.402 44.002C317.47 44.282 317.57 44.514 317.702 44.698C317.834 44.878 317.996 45.01 318.188 45.094C318.38 45.178 318.598 45.22 318.842 45.22C319.194 45.22 319.5 45.14 319.76 44.98C320.024 44.82 320.266 44.594 320.486 44.302V41.368ZM321.554 37.162V46H320.918C320.766 46 320.67 45.926 320.63 45.778L320.534 45.04C320.274 45.352 319.978 45.604 319.646 45.796C319.314 45.988 318.93 46.084 318.494 46.084C318.146 46.084 317.83 46.018 317.546 45.886C317.262 45.75 317.02 45.552 316.82 45.292C316.62 45.032 316.466 44.708 316.358 44.32C316.25 43.932 316.196 43.486 316.196 42.982C316.196 42.534 316.256 42.118 316.376 41.734C316.496 41.346 316.668 41.01 316.892 40.726C317.116 40.442 317.39 40.22 317.714 40.06C318.042 39.896 318.41 39.814 318.818 39.814C319.19 39.814 319.508 39.878 319.772 40.006C320.04 40.13 320.278 40.304 320.486 40.528V37.162H321.554ZM327.309 42.298C327.309 42.05 327.273 41.824 327.201 41.62C327.133 41.412 327.031 41.234 326.895 41.086C326.763 40.934 326.601 40.818 326.409 40.738C326.217 40.654 325.999 40.612 325.755 40.612C325.243 40.612 324.837 40.762 324.537 41.062C324.241 41.358 324.057 41.77 323.985 42.298H327.309ZM328.173 45.148C328.041 45.308 327.883 45.448 327.699 45.568C327.515 45.684 327.317 45.78 327.105 45.856C326.897 45.932 326.681 45.988 326.457 46.024C326.233 46.064 326.011 46.084 325.791 46.084C325.371 46.084 324.983 46.014 324.627 45.874C324.275 45.73 323.969 45.522 323.709 45.25C323.453 44.974 323.253 44.634 323.109 44.23C322.965 43.826 322.893 43.362 322.893 42.838C322.893 42.414 322.957 42.018 323.085 41.65C323.217 41.282 323.405 40.964 323.649 40.696C323.893 40.424 324.191 40.212 324.543 40.06C324.895 39.904 325.291 39.826 325.731 39.826C326.095 39.826 326.431 39.888 326.739 40.012C327.051 40.132 327.319 40.308 327.543 40.54C327.771 40.768 327.949 41.052 328.077 41.392C328.205 41.728 328.269 42.112 328.269 42.544C328.269 42.712 328.251 42.824 328.215 42.88C328.179 42.936 328.111 42.964 328.011 42.964H323.949C323.961 43.348 324.013 43.682 324.105 43.966C324.201 44.25 324.333 44.488 324.501 44.68C324.669 44.868 324.869 45.01 325.101 45.106C325.333 45.198 325.593 45.244 325.881 45.244C326.149 45.244 326.379 45.214 326.571 45.154C326.767 45.09 326.935 45.022 327.075 44.95C327.215 44.878 327.331 44.812 327.423 44.752C327.519 44.688 327.601 44.656 327.669 44.656C327.757 44.656 327.825 44.69 327.873 44.758L328.173 45.148ZM330.594 41.14C330.786 40.724 331.022 40.4 331.302 40.168C331.582 39.932 331.924 39.814 332.328 39.814C332.456 39.814 332.578 39.828 332.694 39.856C332.814 39.884 332.92 39.928 333.012 39.988L332.934 40.786C332.91 40.886 332.85 40.936 332.754 40.936C332.698 40.936 332.616 40.924 332.508 40.9C332.4 40.876 332.278 40.864 332.142 40.864C331.95 40.864 331.778 40.892 331.626 40.948C331.478 41.004 331.344 41.088 331.224 41.2C331.108 41.308 331.002 41.444 330.906 41.608C330.814 41.768 330.73 41.952 330.654 42.16V46H329.58V39.922H330.192C330.308 39.922 330.388 39.944 330.432 39.988C330.476 40.032 330.506 40.108 330.522 40.216L330.594 41.14ZM337.456 40.924C337.408 41.012 337.334 41.056 337.234 41.056C337.174 41.056 337.106 41.034 337.03 40.99C336.954 40.946 336.86 40.898 336.748 40.846C336.64 40.79 336.51 40.74 336.358 40.696C336.206 40.648 336.026 40.624 335.818 40.624C335.638 40.624 335.476 40.648 335.332 40.696C335.188 40.74 335.064 40.802 334.96 40.882C334.86 40.962 334.782 41.056 334.726 41.164C334.674 41.268 334.648 41.382 334.648 41.506C334.648 41.662 334.692 41.792 334.78 41.896C334.872 42 334.992 42.09 335.14 42.166C335.288 42.242 335.456 42.31 335.644 42.37C335.832 42.426 336.024 42.488 336.22 42.556C336.42 42.62 336.614 42.692 336.802 42.772C336.99 42.852 337.158 42.952 337.306 43.072C337.454 43.192 337.572 43.34 337.66 43.516C337.752 43.688 337.798 43.896 337.798 44.14C337.798 44.42 337.748 44.68 337.648 44.92C337.548 45.156 337.4 45.362 337.204 45.538C337.008 45.71 336.768 45.846 336.484 45.946C336.2 46.046 335.872 46.096 335.5 46.096C335.076 46.096 334.692 46.028 334.348 45.892C334.004 45.752 333.712 45.574 333.472 45.358L333.724 44.95C333.756 44.898 333.794 44.858 333.838 44.83C333.882 44.802 333.938 44.788 334.006 44.788C334.078 44.788 334.154 44.816 334.234 44.872C334.314 44.928 334.41 44.99 334.522 45.058C334.638 45.126 334.778 45.188 334.942 45.244C335.106 45.3 335.31 45.328 335.554 45.328C335.762 45.328 335.944 45.302 336.1 45.25C336.256 45.194 336.386 45.12 336.49 45.028C336.594 44.936 336.67 44.83 336.718 44.71C336.77 44.59 336.796 44.462 336.796 44.326C336.796 44.158 336.75 44.02 336.658 43.912C336.57 43.8 336.452 43.706 336.304 43.63C336.156 43.55 335.986 43.482 335.794 43.426C335.606 43.366 335.412 43.304 335.212 43.24C335.016 43.176 334.822 43.104 334.63 43.024C334.442 42.94 334.274 42.836 334.126 42.712C333.978 42.588 333.858 42.436 333.766 42.256C333.678 42.072 333.634 41.85 333.634 41.59C333.634 41.358 333.682 41.136 333.778 40.924C333.874 40.708 334.014 40.52 334.198 40.36C334.382 40.196 334.608 40.066 334.876 39.97C335.144 39.874 335.45 39.826 335.794 39.826C336.194 39.826 336.552 39.89 336.868 40.018C337.188 40.142 337.464 40.314 337.696 40.534L337.456 40.924ZM338.928 45.34C338.928 45.236 338.946 45.138 338.982 45.046C339.022 44.954 339.074 44.874 339.138 44.806C339.206 44.738 339.286 44.684 339.378 44.644C339.47 44.604 339.568 44.584 339.672 44.584C339.776 44.584 339.874 44.604 339.966 44.644C340.058 44.684 340.138 44.738 340.206 44.806C340.274 44.874 340.328 44.954 340.368 45.046C340.408 45.138 340.428 45.236 340.428 45.34C340.428 45.448 340.408 45.548 340.368 45.64C340.328 45.728 340.274 45.806 340.206 45.874C340.138 45.942 340.058 45.994 339.966 46.03C339.874 46.07 339.776 46.09 339.672 46.09C339.568 46.09 339.47 46.07 339.378 46.03C339.286 45.994 339.206 45.942 339.138 45.874C339.074 45.806 339.022 45.728 338.982 45.64C338.946 45.548 338.928 45.448 338.928 45.34Z" fill="#080C36"/>
</svg>
