<svg width="368" height="65" viewBox="0 0 368 65" fill="none" xmlns="http://www.w3.org/2000/svg">
<path d="M56.2045 20.6026L39.4598 3.8555C39.2898 3.68617 39.0609 3.59 38.8214 3.59H19.8541C15.4397 3.59 11.8483 7.18251 11.8483 11.5969V27.4419H4.82145C3.46386 27.4419 2.35938 28.5464 2.35938 29.904V44.0563C2.35938 45.4139 3.46386 46.5184 4.82145 46.5184H11.8478V53.4037C11.8483 57.8175 15.4391 61.41 19.8541 61.41H48.4637C52.8781 61.41 56.4695 57.8175 56.4695 53.4031V21.2422C56.4689 21.0027 56.3739 20.772 56.2045 20.6026ZM10.9061 38.9157V35.0476C10.9061 32.9437 12.6171 31.2315 14.7199 31.2315C16.8215 31.2315 18.5325 32.9437 18.5325 35.0476C18.5325 35.5468 18.1283 35.9509 17.6292 35.9509C17.1312 35.9509 16.7271 35.5468 16.7271 35.0476C16.7271 33.9396 15.8267 33.0375 14.7205 33.0375C13.6136 33.0375 12.7127 33.9396 12.7127 35.0476V38.9157C12.7127 40.0225 13.6136 40.9222 14.7205 40.9222C15.8273 40.9222 16.7271 40.0219 16.7271 38.9157C16.7271 38.4165 17.1312 38.0124 17.6292 38.0124C18.1283 38.0124 18.5325 38.4165 18.5325 38.9157C18.5325 41.0172 16.8215 42.7282 14.7199 42.7282C12.6171 42.7282 10.9061 41.0172 10.9061 38.9157ZM54.6635 53.4031C54.6635 56.8227 51.8822 59.604 48.4637 59.604H19.8541C16.4356 59.604 13.6543 56.8227 13.6543 53.4031V46.5178H43.3992C44.7568 46.5178 45.8613 45.4133 45.8613 44.0557V29.904C45.8613 28.5464 44.7568 27.4419 43.3992 27.4419H13.6537V11.5969C13.6537 8.17725 16.435 5.39599 19.8535 5.39599H37.9175V19.4333C37.9175 20.9283 39.1329 22.1449 40.6256 22.1449H54.6629L54.6635 53.4031ZM24.3971 37.8843C23.6324 37.8843 22.5132 37.8289 21.6282 37.3492C20.9302 36.971 20.0977 36.1804 20.0977 34.5585C20.0977 32.7254 21.5887 31.235 23.42 31.235H24.8608C26.4385 31.235 27.7223 32.5177 27.7223 34.0942C27.7223 34.5921 27.3181 34.9963 26.8202 34.9963C26.321 34.9963 25.9169 34.5921 25.9169 34.0942C25.9169 33.5124 25.4437 33.0404 24.8608 33.0404H23.42C22.5834 33.0404 21.9025 33.7213 21.9025 34.5585C21.9025 35.3898 22.0913 36.0783 24.3971 36.0783C26.2308 36.0783 27.7229 37.5693 27.7229 39.4018C27.7229 41.2349 26.2314 42.7276 24.3971 42.7276H22.9563C21.3798 42.7276 20.0977 41.4438 20.0977 39.8661C20.0977 39.367 20.5019 38.9629 20.9998 38.9629C21.499 38.9629 21.9019 39.367 21.9019 39.8661C21.9019 40.4479 22.3751 40.9222 22.9557 40.9222H24.3965C25.2343 40.9222 25.9163 40.2402 25.9163 39.4024C25.9169 38.5652 25.2349 37.8843 24.3971 37.8843ZM29.6958 31.2781C30.169 31.1212 30.6794 31.3772 30.8363 31.8504L33.1945 38.9581L35.5534 31.8504C35.7115 31.3772 36.2218 31.1212 36.695 31.2781C37.1682 31.435 37.4243 31.9466 37.2673 32.4198L34.05 42.1093C33.9267 42.4787 33.5828 42.7282 33.1928 42.7282C32.9987 42.7282 32.8158 42.6663 32.6641 42.5577C32.5149 42.4492 32.3975 42.2934 32.3367 42.1093L29.123 32.4198C28.966 31.9466 29.2227 31.435 29.6958 31.2781Z" fill="#393D5E"/>
<path d="M80.408 31.716C79.58 31.716 78.83 31.578 78.158 31.302C77.486 31.026 76.91 30.612 76.43 30.06C75.962 29.508 75.596 28.83 75.332 28.026C75.068 27.222 74.936 26.286 74.936 25.218C74.936 24.162 75.068 23.232 75.332 22.428C75.596 21.612 75.962 20.928 76.43 20.376C76.91 19.824 77.486 19.41 78.158 19.134C78.83 18.858 79.58 18.72 80.408 18.72C81.236 18.72 81.986 18.858 82.658 19.134C83.33 19.41 83.906 19.824 84.386 20.376C84.866 20.928 85.232 21.612 85.484 22.428C85.748 23.232 85.88 24.162 85.88 25.218C85.88 26.286 85.748 27.222 85.484 28.026C85.232 28.83 84.866 29.508 84.386 30.06C83.906 30.612 83.33 31.026 82.658 31.302C81.986 31.578 81.236 31.716 80.408 31.716ZM80.408 29.61C81.308 29.61 82.022 29.31 82.55 28.71C83.09 28.11 83.36 27.27 83.36 26.19V24.246C83.36 23.166 83.09 22.326 82.55 21.726C82.022 21.126 81.308 20.826 80.408 20.826C79.508 20.826 78.788 21.126 78.248 21.726C77.72 22.326 77.456 23.166 77.456 24.246V26.19C77.456 27.27 77.72 28.11 78.248 28.71C78.788 29.31 79.508 29.61 80.408 29.61ZM88.6145 23.922H87.2285V22.104H88.6145V20.754C88.6145 19.926 88.8305 19.29 89.2625 18.846C89.7065 18.402 90.3545 18.18 91.2065 18.18H92.8445V20.016H90.9185V22.104H92.8445V23.922H90.9185V31.5H88.6145V23.922ZM94.9602 23.922H93.5742V22.104H94.9602V20.754C94.9602 19.926 95.1762 19.29 95.6082 18.846C96.0522 18.402 96.7002 18.18 97.5522 18.18H99.1902V20.016H97.2642V22.104H99.1902V23.922H97.2642V31.5H94.9602V23.922ZM103.089 31.5C102.297 31.5 101.715 31.302 101.343 30.906C100.971 30.51 100.785 29.952 100.785 29.232V18.18H103.089V29.664H104.331V31.5H103.089ZM107.228 20.736C106.748 20.736 106.4 20.628 106.184 20.412C105.98 20.196 105.878 19.92 105.878 19.584V19.224C105.878 18.888 105.98 18.612 106.184 18.396C106.4 18.18 106.748 18.072 107.228 18.072C107.696 18.072 108.038 18.18 108.254 18.396C108.47 18.612 108.578 18.888 108.578 19.224V19.584C108.578 19.92 108.47 20.196 108.254 20.412C108.038 20.628 107.696 20.736 107.228 20.736ZM106.076 22.104H108.38V31.5H106.076V22.104ZM111.051 31.5V22.104H113.355V23.67H113.445C113.637 23.166 113.937 22.746 114.345 22.41C114.765 22.062 115.341 21.888 116.073 21.888C117.045 21.888 117.789 22.206 118.305 22.842C118.821 23.478 119.079 24.384 119.079 25.56V31.5H116.775V25.794C116.775 25.122 116.655 24.618 116.415 24.282C116.175 23.946 115.779 23.778 115.227 23.778C114.987 23.778 114.753 23.814 114.525 23.886C114.309 23.946 114.111 24.042 113.931 24.174C113.763 24.294 113.625 24.45 113.517 24.642C113.409 24.822 113.355 25.038 113.355 25.29V31.5H111.051ZM125.431 31.716C124.735 31.716 124.111 31.602 123.559 31.374C123.019 31.134 122.557 30.804 122.173 30.384C121.801 29.952 121.513 29.436 121.309 28.836C121.105 28.224 121.003 27.54 121.003 26.784C121.003 26.04 121.099 25.368 121.291 24.768C121.495 24.168 121.783 23.658 122.155 23.238C122.527 22.806 122.983 22.476 123.523 22.248C124.063 22.008 124.675 21.888 125.359 21.888C126.091 21.888 126.727 22.014 127.267 22.266C127.807 22.518 128.251 22.86 128.599 23.292C128.947 23.724 129.205 24.228 129.373 24.804C129.553 25.368 129.643 25.974 129.643 26.622V27.378H123.397V27.612C123.397 28.296 123.589 28.848 123.973 29.268C124.357 29.676 124.927 29.88 125.683 29.88C126.259 29.88 126.727 29.76 127.087 29.52C127.459 29.28 127.789 28.974 128.077 28.602L129.319 29.988C128.935 30.528 128.407 30.954 127.735 31.266C127.075 31.566 126.307 31.716 125.431 31.716ZM125.395 23.616C124.783 23.616 124.297 23.82 123.937 24.228C123.577 24.636 123.397 25.164 123.397 25.812V25.956H127.249V25.794C127.249 25.146 127.087 24.624 126.763 24.228C126.451 23.82 125.995 23.616 125.395 23.616ZM140.946 31.716C140.118 31.716 139.368 31.584 138.696 31.32C138.036 31.044 137.466 30.636 136.986 30.096C136.518 29.556 136.158 28.89 135.906 28.098C135.654 27.294 135.528 26.364 135.528 25.308C135.528 24.252 135.654 23.316 135.906 22.5C136.158 21.672 136.518 20.982 136.986 20.43C137.466 19.866 138.036 19.44 138.696 19.152C139.368 18.864 140.118 18.72 140.946 18.72C142.074 18.72 143.01 18.96 143.754 19.44C144.498 19.92 145.092 20.646 145.536 21.618L143.502 22.698C143.322 22.134 143.028 21.684 142.62 21.348C142.212 21 141.654 20.826 140.946 20.826C140.058 20.826 139.35 21.126 138.822 21.726C138.306 22.326 138.048 23.166 138.048 24.246V26.226C138.048 27.318 138.306 28.158 138.822 28.746C139.35 29.322 140.058 29.61 140.946 29.61C141.654 29.61 142.23 29.418 142.674 29.034C143.13 28.65 143.46 28.176 143.664 27.612L145.59 28.746C145.134 29.682 144.528 30.414 143.772 30.942C143.016 31.458 142.074 31.716 140.946 31.716ZM151.523 31.716C150.443 31.716 149.525 31.524 148.769 31.14C148.025 30.756 147.383 30.252 146.843 29.628L148.445 28.08C148.877 28.584 149.357 28.968 149.885 29.232C150.425 29.496 151.019 29.628 151.667 29.628C152.399 29.628 152.951 29.472 153.323 29.16C153.695 28.836 153.881 28.404 153.881 27.864C153.881 27.444 153.761 27.102 153.521 26.838C153.281 26.574 152.831 26.382 152.171 26.262L150.983 26.082C148.475 25.686 147.221 24.468 147.221 22.428C147.221 21.864 147.323 21.354 147.527 20.898C147.743 20.442 148.049 20.052 148.445 19.728C148.841 19.404 149.315 19.158 149.867 18.99C150.431 18.81 151.067 18.72 151.775 18.72C152.723 18.72 153.551 18.876 154.259 19.188C154.967 19.5 155.573 19.962 156.077 20.574L154.457 22.104C154.145 21.72 153.767 21.408 153.323 21.168C152.879 20.928 152.321 20.808 151.649 20.808C150.965 20.808 150.449 20.94 150.101 21.204C149.765 21.456 149.597 21.816 149.597 22.284C149.597 22.764 149.735 23.118 150.011 23.346C150.287 23.574 150.731 23.742 151.343 23.85L152.513 24.066C153.785 24.294 154.721 24.702 155.321 25.29C155.933 25.866 156.239 26.676 156.239 27.72C156.239 28.32 156.131 28.866 155.915 29.358C155.711 29.838 155.405 30.258 154.997 30.618C154.601 30.966 154.109 31.236 153.521 31.428C152.945 31.62 152.279 31.716 151.523 31.716ZM161.308 31.5L157.204 18.936H159.634L161.56 25.056L162.676 29.232H162.73L163.828 25.056L165.754 18.936H168.112L164.008 31.5H161.308ZM174.124 31.5V18.936H182.404V21.042H176.5V24.084H181.72V26.19H176.5V29.394H182.404V31.5H174.124ZM190.43 29.934H190.34C190.172 30.474 189.854 30.906 189.386 31.23C188.918 31.554 188.372 31.716 187.748 31.716C186.56 31.716 185.648 31.29 185.012 30.438C184.388 29.586 184.076 28.368 184.076 26.784C184.076 25.212 184.388 24.006 185.012 23.166C185.648 22.314 186.56 21.888 187.748 21.888C188.372 21.888 188.918 22.05 189.386 22.374C189.854 22.686 190.172 23.112 190.34 23.652H190.43V18.18H192.734V31.5H190.43V29.934ZM188.486 29.808C189.038 29.808 189.5 29.676 189.872 29.412C190.244 29.148 190.43 28.77 190.43 28.278V25.29C190.43 24.834 190.244 24.468 189.872 24.192C189.5 23.916 189.038 23.778 188.486 23.778C187.886 23.778 187.4 23.982 187.028 24.39C186.668 24.786 186.488 25.32 186.488 25.992V27.612C186.488 28.284 186.668 28.818 187.028 29.214C187.4 29.61 187.886 29.808 188.486 29.808ZM196.543 20.736C196.063 20.736 195.715 20.628 195.499 20.412C195.295 20.196 195.193 19.92 195.193 19.584V19.224C195.193 18.888 195.295 18.612 195.499 18.396C195.715 18.18 196.063 18.072 196.543 18.072C197.011 18.072 197.353 18.18 197.569 18.396C197.785 18.612 197.893 18.888 197.893 19.224V19.584C197.893 19.92 197.785 20.196 197.569 20.412C197.353 20.628 197.011 20.736 196.543 20.736ZM195.391 22.104H197.695V31.5H195.391V22.104ZM203.299 31.5C202.507 31.5 201.901 31.296 201.481 30.888C201.073 30.468 200.869 29.874 200.869 29.106V23.94H199.483V22.104H200.203C200.551 22.104 200.785 22.026 200.905 21.87C201.037 21.702 201.103 21.456 201.103 21.132V19.53H203.173V22.104H205.099V23.94H203.173V29.664H204.955V31.5H203.299ZM210.753 31.716C210.081 31.716 209.475 31.602 208.935 31.374C208.407 31.146 207.951 30.816 207.567 30.384C207.195 29.952 206.907 29.436 206.703 28.836C206.499 28.224 206.397 27.54 206.397 26.784C206.397 26.028 206.499 25.35 206.703 24.75C206.907 24.15 207.195 23.64 207.567 23.22C207.951 22.788 208.407 22.458 208.935 22.23C209.475 22.002 210.081 21.888 210.753 21.888C211.425 21.888 212.031 22.002 212.571 22.23C213.111 22.458 213.567 22.788 213.939 23.22C214.323 23.64 214.617 24.15 214.821 24.75C215.025 25.35 215.127 26.028 215.127 26.784C215.127 27.54 215.025 28.224 214.821 28.836C214.617 29.436 214.323 29.952 213.939 30.384C213.567 30.816 213.111 31.146 212.571 31.374C212.031 31.602 211.425 31.716 210.753 31.716ZM210.753 29.862C211.365 29.862 211.845 29.676 212.193 29.304C212.541 28.932 212.715 28.386 212.715 27.666V25.92C212.715 25.212 212.541 24.672 212.193 24.3C211.845 23.928 211.365 23.742 210.753 23.742C210.153 23.742 209.679 23.928 209.331 24.3C208.983 24.672 208.809 25.212 208.809 25.92V27.666C208.809 28.386 208.983 28.932 209.331 29.304C209.679 29.676 210.153 29.862 210.753 29.862ZM217.17 31.5V22.104H219.474V24.048H219.564C219.624 23.796 219.714 23.556 219.834 23.328C219.966 23.088 220.134 22.878 220.338 22.698C220.542 22.518 220.782 22.374 221.058 22.266C221.346 22.158 221.676 22.104 222.048 22.104H222.552V24.282H221.832C221.052 24.282 220.464 24.396 220.068 24.624C219.672 24.852 219.474 25.224 219.474 25.74V31.5H217.17Z" fill="#393D5E"/>
<path d="M81.134 44.724C81.198 44.724 81.254 44.75 81.302 44.802L81.764 45.3C81.412 45.708 80.984 46.026 80.48 46.254C79.98 46.482 79.374 46.596 78.662 46.596C78.046 46.596 77.486 46.49 76.982 46.278C76.478 46.062 76.048 45.762 75.692 45.378C75.336 44.99 75.06 44.526 74.864 43.986C74.668 43.446 74.57 42.852 74.57 42.204C74.57 41.556 74.672 40.962 74.876 40.422C75.08 39.882 75.366 39.418 75.734 39.03C76.106 38.642 76.55 38.342 77.066 38.13C77.582 37.914 78.152 37.806 78.776 37.806C79.388 37.806 79.928 37.904 80.396 38.1C80.864 38.296 81.276 38.562 81.632 38.898L81.248 39.432C81.224 39.472 81.192 39.506 81.152 39.534C81.116 39.558 81.066 39.57 81.002 39.57C80.93 39.57 80.842 39.532 80.738 39.456C80.634 39.376 80.498 39.288 80.33 39.192C80.162 39.096 79.952 39.01 79.7 38.934C79.448 38.854 79.138 38.814 78.77 38.814C78.326 38.814 77.92 38.892 77.552 39.048C77.184 39.2 76.866 39.422 76.598 39.714C76.334 40.006 76.128 40.362 75.98 40.782C75.832 41.202 75.758 41.676 75.758 42.204C75.758 42.74 75.834 43.218 75.986 43.638C76.142 44.058 76.352 44.414 76.616 44.706C76.884 44.994 77.198 45.214 77.558 45.366C77.922 45.518 78.314 45.594 78.734 45.594C78.99 45.594 79.22 45.58 79.424 45.552C79.632 45.52 79.822 45.472 79.994 45.408C80.17 45.344 80.332 45.264 80.48 45.168C80.632 45.068 80.782 44.95 80.93 44.814C80.998 44.754 81.066 44.724 81.134 44.724ZM83.9356 41.232C84.1956 40.956 84.4836 40.736 84.7996 40.572C85.1156 40.408 85.4796 40.326 85.8916 40.326C86.2236 40.326 86.5156 40.382 86.7676 40.494C87.0236 40.602 87.2356 40.758 87.4036 40.962C87.5756 41.162 87.7056 41.404 87.7936 41.688C87.8816 41.972 87.9256 42.286 87.9256 42.63V46.5H86.8516V42.63C86.8516 42.17 86.7456 41.814 86.5336 41.562C86.3256 41.306 86.0076 41.178 85.5796 41.178C85.2636 41.178 84.9676 41.254 84.6916 41.406C84.4196 41.558 84.1676 41.764 83.9356 42.024V46.5H82.8616V37.662H83.9356V41.232ZM92.847 43.764C92.355 43.78 91.935 43.82 91.587 43.884C91.243 43.944 90.961 44.024 90.741 44.124C90.525 44.224 90.367 44.342 90.267 44.478C90.171 44.614 90.123 44.766 90.123 44.934C90.123 45.094 90.149 45.232 90.201 45.348C90.253 45.464 90.323 45.56 90.411 45.636C90.503 45.708 90.609 45.762 90.729 45.798C90.853 45.83 90.985 45.846 91.125 45.846C91.313 45.846 91.485 45.828 91.641 45.792C91.797 45.752 91.943 45.696 92.079 45.624C92.219 45.552 92.351 45.466 92.475 45.366C92.603 45.266 92.727 45.152 92.847 45.024V43.764ZM89.397 41.28C89.733 40.956 90.095 40.714 90.483 40.554C90.871 40.394 91.301 40.314 91.773 40.314C92.113 40.314 92.415 40.37 92.679 40.482C92.943 40.594 93.165 40.75 93.345 40.95C93.525 41.15 93.661 41.392 93.753 41.676C93.845 41.96 93.891 42.272 93.891 42.612V46.5H93.417C93.313 46.5 93.233 46.484 93.177 46.452C93.121 46.416 93.077 46.348 93.045 46.248L92.925 45.672C92.765 45.82 92.609 45.952 92.457 46.068C92.305 46.18 92.145 46.276 91.977 46.356C91.809 46.432 91.629 46.49 91.437 46.53C91.249 46.574 91.039 46.596 90.807 46.596C90.571 46.596 90.349 46.564 90.141 46.5C89.933 46.432 89.751 46.332 89.595 46.2C89.443 46.068 89.321 45.902 89.229 45.702C89.141 45.498 89.097 45.258 89.097 44.982C89.097 44.742 89.163 44.512 89.295 44.292C89.427 44.068 89.641 43.87 89.937 43.698C90.233 43.526 90.619 43.386 91.095 43.278C91.571 43.166 92.155 43.102 92.847 43.086V42.612C92.847 42.14 92.745 41.784 92.541 41.544C92.337 41.3 92.039 41.178 91.647 41.178C91.383 41.178 91.161 41.212 90.981 41.28C90.805 41.344 90.651 41.418 90.519 41.502C90.391 41.582 90.279 41.656 90.183 41.724C90.091 41.788 89.999 41.82 89.907 41.82C89.835 41.82 89.773 41.802 89.721 41.766C89.669 41.726 89.625 41.678 89.589 41.622L89.397 41.28ZM96.5259 41.304C96.6579 41.156 96.7979 41.022 96.9459 40.902C97.0939 40.782 97.2499 40.68 97.4139 40.596C97.5819 40.508 97.7579 40.442 97.9419 40.398C98.1299 40.35 98.3319 40.326 98.5479 40.326C98.8799 40.326 99.1719 40.382 99.4239 40.494C99.6799 40.602 99.8919 40.758 100.06 40.962C100.232 41.162 100.362 41.404 100.45 41.688C100.538 41.972 100.582 42.286 100.582 42.63V46.5H99.5079V42.63C99.5079 42.17 99.4019 41.814 99.1899 41.562C98.9819 41.306 98.6639 41.178 98.2359 41.178C97.9199 41.178 97.6239 41.254 97.3479 41.406C97.0759 41.558 96.8239 41.764 96.5919 42.024V46.5H95.5179V40.422H96.1599C96.3119 40.422 96.4059 40.496 96.4419 40.644L96.5259 41.304ZM104.327 43.53C104.543 43.53 104.733 43.5 104.897 43.44C105.061 43.38 105.199 43.296 105.311 43.188C105.423 43.08 105.507 42.952 105.563 42.804C105.619 42.652 105.647 42.486 105.647 42.306C105.647 41.934 105.533 41.638 105.305 41.418C105.081 41.198 104.755 41.088 104.327 41.088C103.895 41.088 103.565 41.198 103.337 41.418C103.113 41.638 103.001 41.934 103.001 42.306C103.001 42.486 103.029 42.652 103.085 42.804C103.145 42.952 103.231 43.08 103.343 43.188C103.455 43.296 103.593 43.38 103.757 43.44C103.921 43.5 104.111 43.53 104.327 43.53ZM106.253 46.83C106.253 46.682 106.211 46.562 106.127 46.47C106.043 46.378 105.929 46.306 105.785 46.254C105.645 46.202 105.481 46.166 105.293 46.146C105.105 46.122 104.905 46.104 104.693 46.092C104.485 46.08 104.273 46.068 104.057 46.056C103.841 46.044 103.633 46.024 103.433 45.996C103.209 46.1 103.025 46.232 102.881 46.392C102.741 46.548 102.671 46.732 102.671 46.944C102.671 47.08 102.705 47.206 102.773 47.322C102.845 47.442 102.953 47.544 103.097 47.628C103.241 47.716 103.421 47.784 103.637 47.832C103.857 47.884 104.115 47.91 104.411 47.91C104.699 47.91 104.957 47.884 105.185 47.832C105.413 47.78 105.605 47.706 105.761 47.61C105.921 47.514 106.043 47.4 106.127 47.268C106.211 47.136 106.253 46.99 106.253 46.83ZM107.339 40.662V41.058C107.339 41.19 107.255 41.274 107.087 41.31L106.397 41.4C106.533 41.664 106.601 41.956 106.601 42.276C106.601 42.572 106.543 42.842 106.427 43.086C106.315 43.326 106.159 43.532 105.959 43.704C105.759 43.876 105.519 44.008 105.239 44.1C104.959 44.192 104.655 44.238 104.327 44.238C104.043 44.238 103.775 44.204 103.523 44.136C103.395 44.216 103.297 44.302 103.229 44.394C103.161 44.482 103.127 44.572 103.127 44.664C103.127 44.808 103.185 44.918 103.301 44.994C103.421 45.066 103.577 45.118 103.769 45.15C103.961 45.182 104.179 45.202 104.423 45.21C104.671 45.218 104.923 45.232 105.179 45.252C105.439 45.268 105.691 45.298 105.935 45.342C106.183 45.386 106.403 45.458 106.595 45.558C106.787 45.658 106.941 45.796 107.057 45.972C107.177 46.148 107.237 46.376 107.237 46.656C107.237 46.916 107.171 47.168 107.039 47.412C106.911 47.656 106.725 47.872 106.481 48.06C106.237 48.252 105.937 48.404 105.581 48.516C105.229 48.632 104.831 48.69 104.387 48.69C103.943 48.69 103.555 48.646 103.223 48.558C102.891 48.47 102.615 48.352 102.395 48.204C102.175 48.056 102.009 47.884 101.897 47.688C101.789 47.496 101.735 47.294 101.735 47.082C101.735 46.782 101.829 46.528 102.017 46.32C102.205 46.112 102.463 45.946 102.791 45.822C102.611 45.742 102.467 45.636 102.359 45.504C102.255 45.368 102.203 45.186 102.203 44.958C102.203 44.87 102.219 44.78 102.251 44.688C102.283 44.592 102.331 44.498 102.395 44.406C102.463 44.31 102.545 44.22 102.641 44.136C102.737 44.052 102.849 43.978 102.977 43.914C102.677 43.746 102.443 43.524 102.275 43.248C102.107 42.968 102.023 42.644 102.023 42.276C102.023 41.98 102.079 41.712 102.191 41.472C102.307 41.228 102.467 41.022 102.671 40.854C102.875 40.682 103.117 40.55 103.397 40.458C103.681 40.366 103.991 40.32 104.327 40.32C104.591 40.32 104.837 40.35 105.065 40.41C105.293 40.466 105.501 40.55 105.689 40.662H107.339ZM112.418 42.798C112.418 42.55 112.382 42.324 112.31 42.12C112.242 41.912 112.14 41.734 112.004 41.586C111.872 41.434 111.71 41.318 111.518 41.238C111.326 41.154 111.108 41.112 110.864 41.112C110.352 41.112 109.946 41.262 109.646 41.562C109.35 41.858 109.166 42.27 109.094 42.798H112.418ZM113.282 45.648C113.15 45.808 112.992 45.948 112.808 46.068C112.624 46.184 112.426 46.28 112.214 46.356C112.006 46.432 111.79 46.488 111.566 46.524C111.342 46.564 111.12 46.584 110.9 46.584C110.48 46.584 110.092 46.514 109.736 46.374C109.384 46.23 109.078 46.022 108.818 45.75C108.562 45.474 108.362 45.134 108.218 44.73C108.074 44.326 108.002 43.862 108.002 43.338C108.002 42.914 108.066 42.518 108.194 42.15C108.326 41.782 108.514 41.464 108.758 41.196C109.002 40.924 109.3 40.712 109.652 40.56C110.004 40.404 110.4 40.326 110.84 40.326C111.204 40.326 111.54 40.388 111.848 40.512C112.16 40.632 112.428 40.808 112.652 41.04C112.88 41.268 113.058 41.552 113.186 41.892C113.314 42.228 113.378 42.612 113.378 43.044C113.378 43.212 113.36 43.324 113.324 43.38C113.288 43.436 113.22 43.464 113.12 43.464H109.058C109.07 43.848 109.122 44.182 109.214 44.466C109.31 44.75 109.442 44.988 109.61 45.18C109.778 45.368 109.978 45.51 110.21 45.606C110.442 45.698 110.702 45.744 110.99 45.744C111.258 45.744 111.488 45.714 111.68 45.654C111.876 45.59 112.044 45.522 112.184 45.45C112.324 45.378 112.44 45.312 112.532 45.252C112.628 45.188 112.71 45.156 112.778 45.156C112.866 45.156 112.934 45.19 112.982 45.258L113.282 45.648ZM122.699 40.422L119.309 48.294C119.273 48.374 119.227 48.438 119.171 48.486C119.119 48.534 119.037 48.558 118.925 48.558H118.133L119.243 46.146L116.735 40.422H117.659C117.751 40.422 117.823 40.446 117.875 40.494C117.931 40.538 117.969 40.588 117.989 40.644L119.615 44.472C119.679 44.64 119.733 44.816 119.777 45C119.833 44.812 119.893 44.634 119.957 44.466L121.535 40.644C121.559 40.58 121.599 40.528 121.655 40.488C121.715 40.444 121.781 40.422 121.853 40.422H122.699ZM126.041 40.326C126.485 40.326 126.885 40.4 127.241 40.548C127.597 40.696 127.901 40.906 128.153 41.178C128.405 41.45 128.597 41.78 128.729 42.168C128.865 42.552 128.933 42.982 128.933 43.458C128.933 43.938 128.865 44.37 128.729 44.754C128.597 45.138 128.405 45.466 128.153 45.738C127.901 46.01 127.597 46.22 127.241 46.368C126.885 46.512 126.485 46.584 126.041 46.584C125.593 46.584 125.189 46.512 124.829 46.368C124.473 46.22 124.169 46.01 123.917 45.738C123.665 45.466 123.471 45.138 123.335 44.754C123.203 44.37 123.137 43.938 123.137 43.458C123.137 42.982 123.203 42.552 123.335 42.168C123.471 41.78 123.665 41.45 123.917 41.178C124.169 40.906 124.473 40.696 124.829 40.548C125.189 40.4 125.593 40.326 126.041 40.326ZM126.041 45.75C126.641 45.75 127.089 45.55 127.385 45.15C127.681 44.746 127.829 44.184 127.829 43.464C127.829 42.74 127.681 42.176 127.385 41.772C127.089 41.368 126.641 41.166 126.041 41.166C125.737 41.166 125.471 41.218 125.243 41.322C125.019 41.426 124.831 41.576 124.679 41.772C124.531 41.968 124.419 42.21 124.343 42.498C124.271 42.782 124.235 43.104 124.235 43.464C124.235 44.184 124.383 44.746 124.679 45.15C124.979 45.55 125.433 45.75 126.041 45.75ZM135.285 40.422V46.5H134.649C134.497 46.5 134.401 46.426 134.361 46.278L134.277 45.624C134.013 45.916 133.717 46.152 133.389 46.332C133.061 46.508 132.685 46.596 132.261 46.596C131.929 46.596 131.635 46.542 131.379 46.434C131.127 46.322 130.915 46.166 130.743 45.966C130.571 45.766 130.441 45.524 130.353 45.24C130.269 44.956 130.227 44.642 130.227 44.298V40.422H131.295V44.298C131.295 44.758 131.399 45.114 131.607 45.366C131.819 45.618 132.141 45.744 132.573 45.744C132.889 45.744 133.183 45.67 133.455 45.522C133.731 45.37 133.985 45.162 134.217 44.898V40.422H135.285ZM137.993 41.64C138.185 41.224 138.421 40.9 138.701 40.668C138.981 40.432 139.323 40.314 139.727 40.314C139.855 40.314 139.977 40.328 140.093 40.356C140.213 40.384 140.319 40.428 140.411 40.488L140.333 41.286C140.309 41.386 140.249 41.436 140.153 41.436C140.097 41.436 140.015 41.424 139.907 41.4C139.799 41.376 139.677 41.364 139.541 41.364C139.349 41.364 139.177 41.392 139.025 41.448C138.877 41.504 138.743 41.588 138.623 41.7C138.507 41.808 138.401 41.944 138.305 42.108C138.213 42.268 138.129 42.452 138.053 42.66V46.5H136.979V40.422H137.591C137.707 40.422 137.787 40.444 137.831 40.488C137.875 40.532 137.905 40.608 137.921 40.716L137.993 41.64ZM150.45 44.724C150.514 44.724 150.57 44.75 150.618 44.802L151.08 45.3C150.728 45.708 150.3 46.026 149.796 46.254C149.296 46.482 148.69 46.596 147.978 46.596C147.362 46.596 146.802 46.49 146.298 46.278C145.794 46.062 145.364 45.762 145.008 45.378C144.652 44.99 144.376 44.526 144.18 43.986C143.984 43.446 143.886 42.852 143.886 42.204C143.886 41.556 143.988 40.962 144.192 40.422C144.396 39.882 144.682 39.418 145.05 39.03C145.422 38.642 145.866 38.342 146.382 38.13C146.898 37.914 147.468 37.806 148.092 37.806C148.704 37.806 149.244 37.904 149.712 38.1C150.18 38.296 150.592 38.562 150.948 38.898L150.564 39.432C150.54 39.472 150.508 39.506 150.468 39.534C150.432 39.558 150.382 39.57 150.318 39.57C150.246 39.57 150.158 39.532 150.054 39.456C149.95 39.376 149.814 39.288 149.646 39.192C149.478 39.096 149.268 39.01 149.016 38.934C148.764 38.854 148.454 38.814 148.086 38.814C147.642 38.814 147.236 38.892 146.868 39.048C146.5 39.2 146.182 39.422 145.914 39.714C145.65 40.006 145.444 40.362 145.296 40.782C145.148 41.202 145.074 41.676 145.074 42.204C145.074 42.74 145.15 43.218 145.302 43.638C145.458 44.058 145.668 44.414 145.932 44.706C146.2 44.994 146.514 45.214 146.874 45.366C147.238 45.518 147.63 45.594 148.05 45.594C148.306 45.594 148.536 45.58 148.74 45.552C148.948 45.52 149.138 45.472 149.31 45.408C149.486 45.344 149.648 45.264 149.796 45.168C149.948 45.068 150.098 44.95 150.246 44.814C150.314 44.754 150.382 44.724 150.45 44.724ZM156.828 39.246C156.792 39.306 156.752 39.352 156.708 39.384C156.668 39.412 156.618 39.426 156.558 39.426C156.49 39.426 156.41 39.392 156.318 39.324C156.226 39.256 156.11 39.182 155.97 39.102C155.834 39.018 155.668 38.942 155.472 38.874C155.28 38.806 155.046 38.772 154.77 38.772C154.51 38.772 154.28 38.808 154.08 38.88C153.884 38.948 153.718 39.042 153.582 39.162C153.45 39.282 153.35 39.424 153.282 39.588C153.214 39.748 153.18 39.922 153.18 40.11C153.18 40.35 153.238 40.55 153.354 40.71C153.474 40.866 153.63 41 153.822 41.112C154.018 41.224 154.238 41.322 154.482 41.406C154.73 41.486 154.982 41.57 155.238 41.658C155.498 41.746 155.75 41.846 155.994 41.958C156.242 42.066 156.462 42.204 156.654 42.372C156.85 42.54 157.006 42.746 157.122 42.99C157.242 43.234 157.302 43.534 157.302 43.89C157.302 44.266 157.238 44.62 157.11 44.952C156.982 45.28 156.794 45.566 156.546 45.81C156.302 46.054 156 46.246 155.64 46.386C155.284 46.526 154.878 46.596 154.422 46.596C153.862 46.596 153.354 46.496 152.898 46.296C152.442 46.092 152.052 45.818 151.728 45.474L152.064 44.922C152.096 44.878 152.134 44.842 152.178 44.814C152.226 44.782 152.278 44.766 152.334 44.766C152.386 44.766 152.444 44.788 152.508 44.832C152.576 44.872 152.652 44.924 152.736 44.988C152.82 45.052 152.916 45.122 153.024 45.198C153.132 45.274 153.254 45.344 153.39 45.408C153.53 45.472 153.688 45.526 153.864 45.57C154.04 45.61 154.238 45.63 154.458 45.63C154.734 45.63 154.98 45.592 155.196 45.516C155.412 45.44 155.594 45.334 155.742 45.198C155.894 45.058 156.01 44.892 156.09 44.7C156.17 44.508 156.21 44.294 156.21 44.058C156.21 43.798 156.15 43.586 156.03 43.422C155.914 43.254 155.76 43.114 155.568 43.002C155.376 42.89 155.156 42.796 154.908 42.72C154.66 42.64 154.408 42.56 154.152 42.48C153.896 42.396 153.644 42.3 153.396 42.192C153.148 42.084 152.928 41.944 152.736 41.772C152.544 41.6 152.388 41.386 152.268 41.13C152.152 40.87 152.094 40.55 152.094 40.17C152.094 39.866 152.152 39.572 152.268 39.288C152.388 39.004 152.56 38.752 152.784 38.532C153.012 38.312 153.29 38.136 153.618 38.004C153.95 37.872 154.33 37.806 154.758 37.806C155.238 37.806 155.674 37.882 156.066 38.034C156.462 38.186 156.81 38.406 157.11 38.694L156.828 39.246ZM165.783 37.902L162.279 46.5H161.235L157.731 37.902H158.661C158.765 37.902 158.849 37.928 158.913 37.98C158.977 38.032 159.025 38.098 159.057 38.178L161.481 44.244C161.533 44.38 161.583 44.528 161.631 44.688C161.683 44.848 161.729 45.016 161.769 45.192C161.809 45.016 161.851 44.848 161.895 44.688C161.939 44.528 161.987 44.38 162.039 44.244L164.457 38.178C164.481 38.11 164.527 38.048 164.595 37.992C164.667 37.932 164.753 37.902 164.853 37.902H165.783ZM169.37 41.424C169.322 41.512 169.248 41.556 169.148 41.556C169.088 41.556 169.02 41.534 168.944 41.49C168.868 41.446 168.774 41.398 168.662 41.346C168.554 41.29 168.424 41.24 168.272 41.196C168.12 41.148 167.94 41.124 167.732 41.124C167.552 41.124 167.39 41.148 167.246 41.196C167.102 41.24 166.978 41.302 166.874 41.382C166.774 41.462 166.696 41.556 166.64 41.664C166.588 41.768 166.562 41.882 166.562 42.006C166.562 42.162 166.606 42.292 166.694 42.396C166.786 42.5 166.906 42.59 167.054 42.666C167.202 42.742 167.37 42.81 167.558 42.87C167.746 42.926 167.938 42.988 168.134 43.056C168.334 43.12 168.528 43.192 168.716 43.272C168.904 43.352 169.072 43.452 169.22 43.572C169.368 43.692 169.486 43.84 169.574 44.016C169.666 44.188 169.712 44.396 169.712 44.64C169.712 44.92 169.662 45.18 169.562 45.42C169.462 45.656 169.314 45.862 169.118 46.038C168.922 46.21 168.682 46.346 168.398 46.446C168.114 46.546 167.786 46.596 167.414 46.596C166.99 46.596 166.606 46.528 166.262 46.392C165.918 46.252 165.626 46.074 165.386 45.858L165.638 45.45C165.67 45.398 165.708 45.358 165.752 45.33C165.796 45.302 165.852 45.288 165.92 45.288C165.992 45.288 166.068 45.316 166.148 45.372C166.228 45.428 166.324 45.49 166.436 45.558C166.552 45.626 166.692 45.688 166.856 45.744C167.02 45.8 167.224 45.828 167.468 45.828C167.676 45.828 167.858 45.802 168.014 45.75C168.17 45.694 168.3 45.62 168.404 45.528C168.508 45.436 168.584 45.33 168.632 45.21C168.684 45.09 168.71 44.962 168.71 44.826C168.71 44.658 168.664 44.52 168.572 44.412C168.484 44.3 168.366 44.206 168.218 44.13C168.07 44.05 167.9 43.982 167.708 43.926C167.52 43.866 167.326 43.804 167.126 43.74C166.93 43.676 166.736 43.604 166.544 43.524C166.356 43.44 166.188 43.336 166.04 43.212C165.892 43.088 165.772 42.936 165.68 42.756C165.592 42.572 165.548 42.35 165.548 42.09C165.548 41.858 165.596 41.636 165.692 41.424C165.788 41.208 165.928 41.02 166.112 40.86C166.296 40.696 166.522 40.566 166.79 40.47C167.058 40.374 167.364 40.326 167.708 40.326C168.108 40.326 168.466 40.39 168.782 40.518C169.102 40.642 169.378 40.814 169.61 41.034L169.37 41.424ZM178.052 41.868C177.852 41.6 177.636 41.414 177.404 41.31C177.172 41.202 176.912 41.148 176.624 41.148C176.06 41.148 175.626 41.35 175.322 41.754C175.018 42.158 174.866 42.734 174.866 43.482C174.866 43.878 174.9 44.218 174.968 44.502C175.036 44.782 175.136 45.014 175.268 45.198C175.4 45.378 175.562 45.51 175.754 45.594C175.946 45.678 176.164 45.72 176.408 45.72C176.76 45.72 177.066 45.64 177.326 45.48C177.59 45.32 177.832 45.094 178.052 44.802V41.868ZM179.12 37.662V46.5H178.484C178.332 46.5 178.236 46.426 178.196 46.278L178.1 45.54C177.84 45.852 177.544 46.104 177.212 46.296C176.88 46.488 176.496 46.584 176.06 46.584C175.712 46.584 175.396 46.518 175.112 46.386C174.828 46.25 174.586 46.052 174.386 45.792C174.186 45.532 174.032 45.208 173.924 44.82C173.816 44.432 173.762 43.986 173.762 43.482C173.762 43.034 173.822 42.618 173.942 42.234C174.062 41.846 174.234 41.51 174.458 41.226C174.682 40.942 174.956 40.72 175.28 40.56C175.608 40.396 175.976 40.314 176.384 40.314C176.756 40.314 177.074 40.378 177.338 40.506C177.606 40.63 177.844 40.804 178.052 41.028V37.662H179.12ZM184.875 42.798C184.875 42.55 184.839 42.324 184.767 42.12C184.699 41.912 184.597 41.734 184.461 41.586C184.329 41.434 184.167 41.318 183.975 41.238C183.783 41.154 183.565 41.112 183.321 41.112C182.809 41.112 182.403 41.262 182.103 41.562C181.807 41.858 181.623 42.27 181.551 42.798H184.875ZM185.739 45.648C185.607 45.808 185.449 45.948 185.265 46.068C185.081 46.184 184.883 46.28 184.671 46.356C184.463 46.432 184.247 46.488 184.023 46.524C183.799 46.564 183.577 46.584 183.357 46.584C182.937 46.584 182.549 46.514 182.193 46.374C181.841 46.23 181.535 46.022 181.275 45.75C181.019 45.474 180.819 45.134 180.675 44.73C180.531 44.326 180.459 43.862 180.459 43.338C180.459 42.914 180.523 42.518 180.651 42.15C180.783 41.782 180.971 41.464 181.215 41.196C181.459 40.924 181.757 40.712 182.109 40.56C182.461 40.404 182.857 40.326 183.297 40.326C183.661 40.326 183.997 40.388 184.305 40.512C184.617 40.632 184.885 40.808 185.109 41.04C185.337 41.268 185.515 41.552 185.643 41.892C185.771 42.228 185.835 42.612 185.835 43.044C185.835 43.212 185.817 43.324 185.781 43.38C185.745 43.436 185.677 43.464 185.577 43.464H181.515C181.527 43.848 181.579 44.182 181.671 44.466C181.767 44.75 181.899 44.988 182.067 45.18C182.235 45.368 182.435 45.51 182.667 45.606C182.899 45.698 183.159 45.744 183.447 45.744C183.715 45.744 183.945 45.714 184.137 45.654C184.333 45.59 184.501 45.522 184.641 45.45C184.781 45.378 184.897 45.312 184.989 45.252C185.085 45.188 185.167 45.156 185.235 45.156C185.323 45.156 185.391 45.19 185.439 45.258L185.739 45.648ZM188.251 37.662V46.5H187.183V37.662H188.251ZM191.111 40.422V46.5H190.043V40.422H191.111ZM191.339 38.514C191.339 38.618 191.317 38.716 191.273 38.808C191.233 38.896 191.177 38.976 191.105 39.048C191.037 39.116 190.955 39.17 190.859 39.21C190.767 39.25 190.669 39.27 190.565 39.27C190.461 39.27 190.363 39.25 190.271 39.21C190.183 39.17 190.105 39.116 190.037 39.048C189.969 38.976 189.915 38.896 189.875 38.808C189.835 38.716 189.815 38.618 189.815 38.514C189.815 38.41 189.835 38.312 189.875 38.22C189.915 38.124 189.969 38.042 190.037 37.974C190.105 37.902 190.183 37.846 190.271 37.806C190.363 37.766 190.461 37.746 190.565 37.746C190.669 37.746 190.767 37.766 190.859 37.806C190.955 37.846 191.037 37.902 191.105 37.974C191.177 38.042 191.233 38.124 191.273 38.22C191.317 38.312 191.339 38.41 191.339 38.514ZM192.866 46.5V40.422H193.508C193.66 40.422 193.754 40.496 193.79 40.644L193.868 41.268C194.092 40.992 194.344 40.766 194.624 40.59C194.904 40.414 195.228 40.326 195.596 40.326C196.004 40.326 196.334 40.44 196.586 40.668C196.842 40.896 197.026 41.204 197.138 41.592C197.226 41.372 197.338 41.182 197.474 41.022C197.614 40.862 197.77 40.73 197.942 40.626C198.114 40.522 198.296 40.446 198.488 40.398C198.684 40.35 198.882 40.326 199.082 40.326C199.402 40.326 199.686 40.378 199.934 40.482C200.186 40.582 200.398 40.73 200.57 40.926C200.746 41.122 200.88 41.364 200.972 41.652C201.064 41.936 201.11 42.262 201.11 42.63V46.5H200.036V42.63C200.036 42.154 199.932 41.794 199.724 41.55C199.516 41.302 199.216 41.178 198.824 41.178C198.648 41.178 198.48 41.21 198.32 41.274C198.164 41.334 198.026 41.424 197.906 41.544C197.786 41.664 197.69 41.816 197.618 42C197.55 42.18 197.516 42.39 197.516 42.63V46.5H196.442V42.63C196.442 42.142 196.344 41.778 196.148 41.538C195.952 41.298 195.666 41.178 195.29 41.178C195.026 41.178 194.782 41.25 194.558 41.394C194.334 41.534 194.128 41.726 193.94 41.97V46.5H192.866ZM203.861 40.422V46.5H202.793V40.422H203.861ZM204.089 38.514C204.089 38.618 204.067 38.716 204.023 38.808C203.983 38.896 203.927 38.976 203.855 39.048C203.787 39.116 203.705 39.17 203.609 39.21C203.517 39.25 203.419 39.27 203.315 39.27C203.211 39.27 203.113 39.25 203.021 39.21C202.933 39.17 202.855 39.116 202.787 39.048C202.719 38.976 202.665 38.896 202.625 38.808C202.585 38.716 202.565 38.618 202.565 38.514C202.565 38.41 202.585 38.312 202.625 38.22C202.665 38.124 202.719 38.042 202.787 37.974C202.855 37.902 202.933 37.846 203.021 37.806C203.113 37.766 203.211 37.746 203.315 37.746C203.419 37.746 203.517 37.766 203.609 37.806C203.705 37.846 203.787 37.902 203.855 37.974C203.927 38.042 203.983 38.124 204.023 38.22C204.067 38.312 204.089 38.41 204.089 38.514ZM207.482 46.596C207.002 46.596 206.632 46.462 206.372 46.194C206.116 45.926 205.988 45.54 205.988 45.036V41.316H205.256C205.192 41.316 205.138 41.298 205.094 41.262C205.05 41.222 205.028 41.162 205.028 41.082V40.656L206.024 40.53L206.27 38.652C206.282 38.592 206.308 38.544 206.348 38.508C206.392 38.468 206.448 38.448 206.516 38.448H207.056V40.542H208.814V41.316H207.056V44.964C207.056 45.22 207.118 45.41 207.242 45.534C207.366 45.658 207.526 45.72 207.722 45.72C207.834 45.72 207.93 45.706 208.01 45.678C208.094 45.646 208.166 45.612 208.226 45.576C208.286 45.54 208.336 45.508 208.376 45.48C208.42 45.448 208.458 45.432 208.49 45.432C208.546 45.432 208.596 45.466 208.64 45.534L208.952 46.044C208.768 46.216 208.546 46.352 208.286 46.452C208.026 46.548 207.758 46.596 207.482 46.596ZM213.949 42.798C213.949 42.55 213.913 42.324 213.841 42.12C213.773 41.912 213.671 41.734 213.535 41.586C213.403 41.434 213.241 41.318 213.049 41.238C212.857 41.154 212.639 41.112 212.395 41.112C211.883 41.112 211.477 41.262 211.177 41.562C210.881 41.858 210.697 42.27 210.625 42.798H213.949ZM214.813 45.648C214.681 45.808 214.523 45.948 214.339 46.068C214.155 46.184 213.957 46.28 213.745 46.356C213.537 46.432 213.321 46.488 213.097 46.524C212.873 46.564 212.651 46.584 212.431 46.584C212.011 46.584 211.623 46.514 211.267 46.374C210.915 46.23 210.609 46.022 210.349 45.75C210.093 45.474 209.893 45.134 209.749 44.73C209.605 44.326 209.533 43.862 209.533 43.338C209.533 42.914 209.597 42.518 209.725 42.15C209.857 41.782 210.045 41.464 210.289 41.196C210.533 40.924 210.831 40.712 211.183 40.56C211.535 40.404 211.931 40.326 212.371 40.326C212.735 40.326 213.071 40.388 213.379 40.512C213.691 40.632 213.959 40.808 214.183 41.04C214.411 41.268 214.589 41.552 214.717 41.892C214.845 42.228 214.909 42.612 214.909 43.044C214.909 43.212 214.891 43.324 214.855 43.38C214.819 43.436 214.751 43.464 214.651 43.464H210.589C210.601 43.848 210.653 44.182 210.745 44.466C210.841 44.75 210.973 44.988 211.141 45.18C211.309 45.368 211.509 45.51 211.741 45.606C211.973 45.698 212.233 45.744 212.521 45.744C212.789 45.744 213.019 45.714 213.211 45.654C213.407 45.59 213.575 45.522 213.715 45.45C213.855 45.378 213.971 45.312 214.063 45.252C214.159 45.188 214.241 45.156 214.309 45.156C214.397 45.156 214.465 45.19 214.513 45.258L214.813 45.648ZM217.235 41.64C217.427 41.224 217.663 40.9 217.943 40.668C218.223 40.432 218.565 40.314 218.969 40.314C219.097 40.314 219.219 40.328 219.335 40.356C219.455 40.384 219.561 40.428 219.653 40.488L219.575 41.286C219.551 41.386 219.491 41.436 219.395 41.436C219.339 41.436 219.257 41.424 219.149 41.4C219.041 41.376 218.919 41.364 218.783 41.364C218.591 41.364 218.419 41.392 218.267 41.448C218.119 41.504 217.985 41.588 217.865 41.7C217.749 41.808 217.643 41.944 217.547 42.108C217.455 42.268 217.371 42.452 217.295 42.66V46.5H216.221V40.422H216.833C216.949 40.422 217.029 40.444 217.073 40.488C217.117 40.532 217.147 40.608 217.163 40.716L217.235 41.64ZM226.699 43.764C226.207 43.78 225.787 43.82 225.439 43.884C225.095 43.944 224.813 44.024 224.593 44.124C224.377 44.224 224.219 44.342 224.119 44.478C224.023 44.614 223.975 44.766 223.975 44.934C223.975 45.094 224.001 45.232 224.053 45.348C224.105 45.464 224.175 45.56 224.263 45.636C224.355 45.708 224.461 45.762 224.581 45.798C224.705 45.83 224.837 45.846 224.977 45.846C225.165 45.846 225.337 45.828 225.493 45.792C225.649 45.752 225.795 45.696 225.931 45.624C226.071 45.552 226.203 45.466 226.327 45.366C226.455 45.266 226.579 45.152 226.699 45.024V43.764ZM223.249 41.28C223.585 40.956 223.947 40.714 224.335 40.554C224.723 40.394 225.153 40.314 225.625 40.314C225.965 40.314 226.267 40.37 226.531 40.482C226.795 40.594 227.017 40.75 227.197 40.95C227.377 41.15 227.513 41.392 227.605 41.676C227.697 41.96 227.743 42.272 227.743 42.612V46.5H227.269C227.165 46.5 227.085 46.484 227.029 46.452C226.973 46.416 226.929 46.348 226.897 46.248L226.777 45.672C226.617 45.82 226.461 45.952 226.309 46.068C226.157 46.18 225.997 46.276 225.829 46.356C225.661 46.432 225.481 46.49 225.289 46.53C225.101 46.574 224.891 46.596 224.659 46.596C224.423 46.596 224.201 46.564 223.993 46.5C223.785 46.432 223.603 46.332 223.447 46.2C223.295 46.068 223.173 45.902 223.081 45.702C222.993 45.498 222.949 45.258 222.949 44.982C222.949 44.742 223.015 44.512 223.147 44.292C223.279 44.068 223.493 43.87 223.789 43.698C224.085 43.526 224.471 43.386 224.947 43.278C225.423 43.166 226.007 43.102 226.699 43.086V42.612C226.699 42.14 226.597 41.784 226.393 41.544C226.189 41.3 225.891 41.178 225.499 41.178C225.235 41.178 225.013 41.212 224.833 41.28C224.657 41.344 224.503 41.418 224.371 41.502C224.243 41.582 224.131 41.656 224.035 41.724C223.943 41.788 223.851 41.82 223.759 41.82C223.687 41.82 223.625 41.802 223.573 41.766C223.521 41.726 223.477 41.678 223.441 41.622L223.249 41.28ZM230.377 41.304C230.509 41.156 230.649 41.022 230.797 40.902C230.945 40.782 231.101 40.68 231.265 40.596C231.433 40.508 231.609 40.442 231.793 40.398C231.981 40.35 232.183 40.326 232.399 40.326C232.731 40.326 233.023 40.382 233.275 40.494C233.531 40.602 233.743 40.758 233.911 40.962C234.083 41.162 234.213 41.404 234.301 41.688C234.389 41.972 234.433 42.286 234.433 42.63V46.5H233.359V42.63C233.359 42.17 233.253 41.814 233.041 41.562C232.833 41.306 232.515 41.178 232.087 41.178C231.771 41.178 231.475 41.254 231.199 41.406C230.927 41.558 230.675 41.764 230.443 42.024V46.5H229.369V40.422H230.011C230.163 40.422 230.257 40.496 230.293 40.644L230.377 41.304ZM240.021 41.868C239.821 41.6 239.605 41.414 239.373 41.31C239.141 41.202 238.881 41.148 238.593 41.148C238.029 41.148 237.595 41.35 237.291 41.754C236.987 42.158 236.835 42.734 236.835 43.482C236.835 43.878 236.869 44.218 236.937 44.502C237.005 44.782 237.105 45.014 237.237 45.198C237.369 45.378 237.531 45.51 237.723 45.594C237.915 45.678 238.133 45.72 238.377 45.72C238.729 45.72 239.035 45.64 239.295 45.48C239.559 45.32 239.801 45.094 240.021 44.802V41.868ZM241.089 37.662V46.5H240.453C240.301 46.5 240.205 46.426 240.165 46.278L240.069 45.54C239.809 45.852 239.513 46.104 239.181 46.296C238.849 46.488 238.465 46.584 238.029 46.584C237.681 46.584 237.365 46.518 237.081 46.386C236.797 46.25 236.555 46.052 236.355 45.792C236.155 45.532 236.001 45.208 235.893 44.82C235.785 44.432 235.731 43.986 235.731 43.482C235.731 43.034 235.791 42.618 235.911 42.234C236.031 41.846 236.203 41.51 236.427 41.226C236.651 40.942 236.925 40.72 237.249 40.56C237.577 40.396 237.945 40.314 238.353 40.314C238.725 40.314 239.043 40.378 239.307 40.506C239.575 40.63 239.813 40.804 240.021 41.028V37.662H241.089ZM246.86 41.64C247.052 41.224 247.288 40.9 247.568 40.668C247.848 40.432 248.19 40.314 248.594 40.314C248.722 40.314 248.844 40.328 248.96 40.356C249.08 40.384 249.186 40.428 249.278 40.488L249.2 41.286C249.176 41.386 249.116 41.436 249.02 41.436C248.964 41.436 248.882 41.424 248.774 41.4C248.666 41.376 248.544 41.364 248.408 41.364C248.216 41.364 248.044 41.392 247.892 41.448C247.744 41.504 247.61 41.588 247.49 41.7C247.374 41.808 247.268 41.944 247.172 42.108C247.08 42.268 246.996 42.452 246.92 42.66V46.5H245.846V40.422H246.458C246.574 40.422 246.654 40.444 246.698 40.488C246.742 40.532 246.772 40.608 246.788 40.716L246.86 41.64ZM254.039 42.798C254.039 42.55 254.003 42.324 253.931 42.12C253.863 41.912 253.761 41.734 253.625 41.586C253.493 41.434 253.331 41.318 253.139 41.238C252.947 41.154 252.729 41.112 252.485 41.112C251.973 41.112 251.567 41.262 251.267 41.562C250.971 41.858 250.787 42.27 250.715 42.798H254.039ZM254.903 45.648C254.771 45.808 254.613 45.948 254.429 46.068C254.245 46.184 254.047 46.28 253.835 46.356C253.627 46.432 253.411 46.488 253.187 46.524C252.963 46.564 252.741 46.584 252.521 46.584C252.101 46.584 251.713 46.514 251.357 46.374C251.005 46.23 250.699 46.022 250.439 45.75C250.183 45.474 249.983 45.134 249.839 44.73C249.695 44.326 249.623 43.862 249.623 43.338C249.623 42.914 249.687 42.518 249.815 42.15C249.947 41.782 250.135 41.464 250.379 41.196C250.623 40.924 250.921 40.712 251.273 40.56C251.625 40.404 252.021 40.326 252.461 40.326C252.825 40.326 253.161 40.388 253.469 40.512C253.781 40.632 254.049 40.808 254.273 41.04C254.501 41.268 254.679 41.552 254.807 41.892C254.935 42.228 254.999 42.612 254.999 43.044C254.999 43.212 254.981 43.324 254.945 43.38C254.909 43.436 254.841 43.464 254.741 43.464H250.679C250.691 43.848 250.743 44.182 250.835 44.466C250.931 44.75 251.063 44.988 251.231 45.18C251.399 45.368 251.599 45.51 251.831 45.606C252.063 45.698 252.323 45.744 252.611 45.744C252.879 45.744 253.109 45.714 253.301 45.654C253.497 45.59 253.665 45.522 253.805 45.45C253.945 45.378 254.061 45.312 254.153 45.252C254.249 45.188 254.331 45.156 254.399 45.156C254.487 45.156 254.555 45.19 254.603 45.258L254.903 45.648ZM256.311 46.5V40.422H256.953C257.105 40.422 257.199 40.496 257.235 40.644L257.313 41.268C257.537 40.992 257.789 40.766 258.069 40.59C258.349 40.414 258.673 40.326 259.041 40.326C259.449 40.326 259.779 40.44 260.031 40.668C260.287 40.896 260.471 41.204 260.583 41.592C260.671 41.372 260.783 41.182 260.919 41.022C261.059 40.862 261.215 40.73 261.387 40.626C261.559 40.522 261.741 40.446 261.933 40.398C262.129 40.35 262.327 40.326 262.527 40.326C262.847 40.326 263.131 40.378 263.379 40.482C263.631 40.582 263.843 40.73 264.015 40.926C264.191 41.122 264.325 41.364 264.417 41.652C264.509 41.936 264.555 42.262 264.555 42.63V46.5H263.481V42.63C263.481 42.154 263.377 41.794 263.169 41.55C262.961 41.302 262.661 41.178 262.269 41.178C262.093 41.178 261.925 41.21 261.765 41.274C261.609 41.334 261.471 41.424 261.351 41.544C261.231 41.664 261.135 41.816 261.063 42C260.995 42.18 260.961 42.39 260.961 42.63V46.5H259.887V42.63C259.887 42.142 259.789 41.778 259.593 41.538C259.397 41.298 259.111 41.178 258.735 41.178C258.471 41.178 258.227 41.25 258.003 41.394C257.779 41.534 257.573 41.726 257.385 41.97V46.5H256.311ZM269.472 43.764C268.98 43.78 268.56 43.82 268.212 43.884C267.868 43.944 267.586 44.024 267.366 44.124C267.15 44.224 266.992 44.342 266.892 44.478C266.796 44.614 266.748 44.766 266.748 44.934C266.748 45.094 266.774 45.232 266.826 45.348C266.878 45.464 266.948 45.56 267.036 45.636C267.128 45.708 267.234 45.762 267.354 45.798C267.478 45.83 267.61 45.846 267.75 45.846C267.938 45.846 268.11 45.828 268.266 45.792C268.422 45.752 268.568 45.696 268.704 45.624C268.844 45.552 268.976 45.466 269.1 45.366C269.228 45.266 269.352 45.152 269.472 45.024V43.764ZM266.022 41.28C266.358 40.956 266.72 40.714 267.108 40.554C267.496 40.394 267.926 40.314 268.398 40.314C268.738 40.314 269.04 40.37 269.304 40.482C269.568 40.594 269.79 40.75 269.97 40.95C270.15 41.15 270.286 41.392 270.378 41.676C270.47 41.96 270.516 42.272 270.516 42.612V46.5H270.042C269.938 46.5 269.858 46.484 269.802 46.452C269.746 46.416 269.702 46.348 269.67 46.248L269.55 45.672C269.39 45.82 269.234 45.952 269.082 46.068C268.93 46.18 268.77 46.276 268.602 46.356C268.434 46.432 268.254 46.49 268.062 46.53C267.874 46.574 267.664 46.596 267.432 46.596C267.196 46.596 266.974 46.564 266.766 46.5C266.558 46.432 266.376 46.332 266.22 46.2C266.068 46.068 265.946 45.902 265.854 45.702C265.766 45.498 265.722 45.258 265.722 44.982C265.722 44.742 265.788 44.512 265.92 44.292C266.052 44.068 266.266 43.87 266.562 43.698C266.858 43.526 267.244 43.386 267.72 43.278C268.196 43.166 268.78 43.102 269.472 43.086V42.612C269.472 42.14 269.37 41.784 269.166 41.544C268.962 41.3 268.664 41.178 268.272 41.178C268.008 41.178 267.786 41.212 267.606 41.28C267.43 41.344 267.276 41.418 267.144 41.502C267.016 41.582 266.904 41.656 266.808 41.724C266.716 41.788 266.624 41.82 266.532 41.82C266.46 41.82 266.398 41.802 266.346 41.766C266.294 41.726 266.25 41.678 266.214 41.622L266.022 41.28ZM273.217 45.036C273.413 45.3 273.627 45.486 273.859 45.594C274.091 45.702 274.351 45.756 274.639 45.756C275.207 45.756 275.643 45.554 275.947 45.15C276.251 44.746 276.403 44.17 276.403 43.422C276.403 43.026 276.367 42.686 276.295 42.402C276.227 42.118 276.127 41.886 275.995 41.706C275.863 41.522 275.701 41.388 275.509 41.304C275.317 41.22 275.099 41.178 274.855 41.178C274.507 41.178 274.201 41.258 273.937 41.418C273.677 41.578 273.437 41.804 273.217 42.096V45.036ZM273.163 41.364C273.419 41.048 273.715 40.794 274.051 40.602C274.387 40.41 274.771 40.314 275.203 40.314C275.555 40.314 275.873 40.382 276.157 40.518C276.441 40.65 276.683 40.848 276.883 41.112C277.083 41.372 277.237 41.696 277.345 42.084C277.453 42.472 277.507 42.918 277.507 43.422C277.507 43.87 277.447 44.288 277.327 44.676C277.207 45.06 277.033 45.394 276.805 45.678C276.581 45.958 276.305 46.18 275.977 46.344C275.653 46.504 275.287 46.584 274.879 46.584C274.507 46.584 274.187 46.522 273.919 46.398C273.655 46.27 273.421 46.094 273.217 45.87V48.558H272.143V40.422H272.785C272.937 40.422 273.031 40.496 273.067 40.644L273.163 41.364ZM286.17 41.502C286.138 41.546 286.106 41.58 286.074 41.604C286.042 41.628 285.998 41.64 285.942 41.64C285.882 41.64 285.816 41.616 285.744 41.568C285.672 41.516 285.582 41.46 285.474 41.4C285.37 41.34 285.24 41.286 285.084 41.238C284.932 41.186 284.744 41.16 284.52 41.16C284.22 41.16 283.956 41.214 283.728 41.322C283.5 41.426 283.308 41.578 283.152 41.778C283 41.978 282.884 42.22 282.804 42.504C282.728 42.788 282.69 43.106 282.69 43.458C282.69 43.826 282.732 44.154 282.816 44.442C282.9 44.726 283.018 44.966 283.17 45.162C283.326 45.354 283.512 45.502 283.728 45.606C283.948 45.706 284.194 45.756 284.466 45.756C284.726 45.756 284.94 45.726 285.108 45.666C285.276 45.602 285.414 45.532 285.522 45.456C285.634 45.38 285.726 45.312 285.798 45.252C285.874 45.188 285.948 45.156 286.02 45.156C286.108 45.156 286.176 45.19 286.224 45.258L286.524 45.648C286.392 45.812 286.242 45.952 286.074 46.068C285.906 46.184 285.724 46.282 285.528 46.362C285.336 46.438 285.134 46.494 284.922 46.53C284.71 46.566 284.494 46.584 284.274 46.584C283.894 46.584 283.54 46.514 283.212 46.374C282.888 46.234 282.606 46.032 282.366 45.768C282.126 45.5 281.938 45.172 281.802 44.784C281.666 44.396 281.598 43.954 281.598 43.458C281.598 43.006 281.66 42.588 281.784 42.204C281.912 41.82 282.096 41.49 282.336 41.214C282.58 40.934 282.878 40.716 283.23 40.56C283.586 40.404 283.994 40.326 284.454 40.326C284.882 40.326 285.258 40.396 285.582 40.536C285.91 40.672 286.2 40.866 286.452 41.118L286.17 41.502ZM290.127 40.326C290.571 40.326 290.971 40.4 291.327 40.548C291.683 40.696 291.987 40.906 292.239 41.178C292.491 41.45 292.683 41.78 292.815 42.168C292.951 42.552 293.019 42.982 293.019 43.458C293.019 43.938 292.951 44.37 292.815 44.754C292.683 45.138 292.491 45.466 292.239 45.738C291.987 46.01 291.683 46.22 291.327 46.368C290.971 46.512 290.571 46.584 290.127 46.584C289.679 46.584 289.275 46.512 288.915 46.368C288.559 46.22 288.255 46.01 288.003 45.738C287.751 45.466 287.557 45.138 287.421 44.754C287.289 44.37 287.223 43.938 287.223 43.458C287.223 42.982 287.289 42.552 287.421 42.168C287.557 41.78 287.751 41.45 288.003 41.178C288.255 40.906 288.559 40.696 288.915 40.548C289.275 40.4 289.679 40.326 290.127 40.326ZM290.127 45.75C290.727 45.75 291.175 45.55 291.471 45.15C291.767 44.746 291.915 44.184 291.915 43.464C291.915 42.74 291.767 42.176 291.471 41.772C291.175 41.368 290.727 41.166 290.127 41.166C289.823 41.166 289.557 41.218 289.329 41.322C289.105 41.426 288.917 41.576 288.765 41.772C288.617 41.968 288.505 42.21 288.429 42.498C288.357 42.782 288.321 43.104 288.321 43.464C288.321 44.184 288.469 44.746 288.765 45.15C289.065 45.55 289.519 45.75 290.127 45.75ZM295.477 37.662V46.5H294.409V37.662H295.477ZM302.207 40.422V46.5H301.571C301.419 46.5 301.323 46.426 301.283 46.278L301.199 45.624C300.935 45.916 300.639 46.152 300.311 46.332C299.983 46.508 299.607 46.596 299.183 46.596C298.851 46.596 298.557 46.542 298.301 46.434C298.049 46.322 297.837 46.166 297.665 45.966C297.493 45.766 297.363 45.524 297.275 45.24C297.191 44.956 297.149 44.642 297.149 44.298V40.422H298.217V44.298C298.217 44.758 298.321 45.114 298.529 45.366C298.741 45.618 299.063 45.744 299.495 45.744C299.811 45.744 300.105 45.67 300.377 45.522C300.653 45.37 300.907 45.162 301.139 44.898V40.422H302.207ZM303.901 46.5V40.422H304.543C304.695 40.422 304.789 40.496 304.825 40.644L304.903 41.268C305.127 40.992 305.379 40.766 305.659 40.59C305.939 40.414 306.263 40.326 306.631 40.326C307.039 40.326 307.369 40.44 307.621 40.668C307.877 40.896 308.061 41.204 308.173 41.592C308.261 41.372 308.373 41.182 308.509 41.022C308.649 40.862 308.805 40.73 308.977 40.626C309.149 40.522 309.331 40.446 309.523 40.398C309.719 40.35 309.917 40.326 310.117 40.326C310.437 40.326 310.721 40.378 310.969 40.482C311.221 40.582 311.433 40.73 311.605 40.926C311.781 41.122 311.915 41.364 312.007 41.652C312.099 41.936 312.145 42.262 312.145 42.63V46.5H311.071V42.63C311.071 42.154 310.967 41.794 310.759 41.55C310.551 41.302 310.251 41.178 309.859 41.178C309.683 41.178 309.515 41.21 309.355 41.274C309.199 41.334 309.061 41.424 308.941 41.544C308.821 41.664 308.725 41.816 308.653 42C308.585 42.18 308.551 42.39 308.551 42.63V46.5H307.477V42.63C307.477 42.142 307.379 41.778 307.183 41.538C306.987 41.298 306.701 41.178 306.325 41.178C306.061 41.178 305.817 41.25 305.593 41.394C305.369 41.534 305.163 41.726 304.975 41.97V46.5H303.901ZM314.776 41.304C314.908 41.156 315.048 41.022 315.196 40.902C315.344 40.782 315.5 40.68 315.664 40.596C315.832 40.508 316.008 40.442 316.192 40.398C316.38 40.35 316.582 40.326 316.798 40.326C317.13 40.326 317.422 40.382 317.674 40.494C317.93 40.602 318.142 40.758 318.31 40.962C318.482 41.162 318.612 41.404 318.7 41.688C318.788 41.972 318.832 42.286 318.832 42.63V46.5H317.758V42.63C317.758 42.17 317.652 41.814 317.44 41.562C317.232 41.306 316.914 41.178 316.486 41.178C316.17 41.178 315.874 41.254 315.598 41.406C315.326 41.558 315.074 41.764 314.842 42.024V46.5H313.768V40.422H314.41C314.562 40.422 314.656 40.496 314.692 40.644L314.776 41.304ZM324.604 41.232C324.864 40.956 325.152 40.736 325.468 40.572C325.784 40.408 326.148 40.326 326.56 40.326C326.892 40.326 327.184 40.382 327.436 40.494C327.692 40.602 327.904 40.758 328.072 40.962C328.244 41.162 328.374 41.404 328.462 41.688C328.55 41.972 328.594 42.286 328.594 42.63V46.5H327.52V42.63C327.52 42.17 327.414 41.814 327.202 41.562C326.994 41.306 326.676 41.178 326.248 41.178C325.932 41.178 325.636 41.254 325.36 41.406C325.088 41.558 324.836 41.764 324.604 42.024V46.5H323.53V37.662H324.604V41.232ZM334.289 42.798C334.289 42.55 334.253 42.324 334.181 42.12C334.113 41.912 334.011 41.734 333.875 41.586C333.743 41.434 333.581 41.318 333.389 41.238C333.197 41.154 332.979 41.112 332.735 41.112C332.223 41.112 331.817 41.262 331.517 41.562C331.221 41.858 331.037 42.27 330.965 42.798H334.289ZM335.153 45.648C335.021 45.808 334.863 45.948 334.679 46.068C334.495 46.184 334.297 46.28 334.085 46.356C333.877 46.432 333.661 46.488 333.437 46.524C333.213 46.564 332.991 46.584 332.771 46.584C332.351 46.584 331.963 46.514 331.607 46.374C331.255 46.23 330.949 46.022 330.689 45.75C330.433 45.474 330.233 45.134 330.089 44.73C329.945 44.326 329.873 43.862 329.873 43.338C329.873 42.914 329.937 42.518 330.065 42.15C330.197 41.782 330.385 41.464 330.629 41.196C330.873 40.924 331.171 40.712 331.523 40.56C331.875 40.404 332.271 40.326 332.711 40.326C333.075 40.326 333.411 40.388 333.719 40.512C334.031 40.632 334.299 40.808 334.523 41.04C334.751 41.268 334.929 41.552 335.057 41.892C335.185 42.228 335.249 42.612 335.249 43.044C335.249 43.212 335.231 43.324 335.195 43.38C335.159 43.436 335.091 43.464 334.991 43.464H330.929C330.941 43.848 330.993 44.182 331.085 44.466C331.181 44.75 331.313 44.988 331.481 45.18C331.649 45.368 331.849 45.51 332.081 45.606C332.313 45.698 332.573 45.744 332.861 45.744C333.129 45.744 333.359 45.714 333.551 45.654C333.747 45.59 333.915 45.522 334.055 45.45C334.195 45.378 334.311 45.312 334.403 45.252C334.499 45.188 334.581 45.156 334.649 45.156C334.737 45.156 334.805 45.19 334.853 45.258L335.153 45.648ZM339.855 43.764C339.363 43.78 338.943 43.82 338.595 43.884C338.251 43.944 337.969 44.024 337.749 44.124C337.533 44.224 337.375 44.342 337.275 44.478C337.179 44.614 337.131 44.766 337.131 44.934C337.131 45.094 337.157 45.232 337.209 45.348C337.261 45.464 337.331 45.56 337.419 45.636C337.511 45.708 337.617 45.762 337.737 45.798C337.861 45.83 337.993 45.846 338.133 45.846C338.321 45.846 338.493 45.828 338.649 45.792C338.805 45.752 338.951 45.696 339.087 45.624C339.227 45.552 339.359 45.466 339.483 45.366C339.611 45.266 339.735 45.152 339.855 45.024V43.764ZM336.405 41.28C336.741 40.956 337.103 40.714 337.491 40.554C337.879 40.394 338.309 40.314 338.781 40.314C339.121 40.314 339.423 40.37 339.687 40.482C339.951 40.594 340.173 40.75 340.353 40.95C340.533 41.15 340.669 41.392 340.761 41.676C340.853 41.96 340.899 42.272 340.899 42.612V46.5H340.425C340.321 46.5 340.241 46.484 340.185 46.452C340.129 46.416 340.085 46.348 340.053 46.248L339.933 45.672C339.773 45.82 339.617 45.952 339.465 46.068C339.313 46.18 339.153 46.276 338.985 46.356C338.817 46.432 338.637 46.49 338.445 46.53C338.257 46.574 338.047 46.596 337.815 46.596C337.579 46.596 337.357 46.564 337.149 46.5C336.941 46.432 336.759 46.332 336.603 46.2C336.451 46.068 336.329 45.902 336.237 45.702C336.149 45.498 336.105 45.258 336.105 44.982C336.105 44.742 336.171 44.512 336.303 44.292C336.435 44.068 336.649 43.87 336.945 43.698C337.241 43.526 337.627 43.386 338.103 43.278C338.579 43.166 339.163 43.102 339.855 43.086V42.612C339.855 42.14 339.753 41.784 339.549 41.544C339.345 41.3 339.047 41.178 338.655 41.178C338.391 41.178 338.169 41.212 337.989 41.28C337.813 41.344 337.659 41.418 337.527 41.502C337.399 41.582 337.287 41.656 337.191 41.724C337.099 41.788 337.007 41.82 336.915 41.82C336.843 41.82 336.781 41.802 336.729 41.766C336.677 41.726 336.633 41.678 336.597 41.622L336.405 41.28ZM346.486 41.868C346.286 41.6 346.07 41.414 345.838 41.31C345.606 41.202 345.346 41.148 345.058 41.148C344.494 41.148 344.06 41.35 343.756 41.754C343.452 42.158 343.3 42.734 343.3 43.482C343.3 43.878 343.334 44.218 343.402 44.502C343.47 44.782 343.57 45.014 343.702 45.198C343.834 45.378 343.996 45.51 344.188 45.594C344.38 45.678 344.598 45.72 344.842 45.72C345.194 45.72 345.5 45.64 345.76 45.48C346.024 45.32 346.266 45.094 346.486 44.802V41.868ZM347.554 37.662V46.5H346.918C346.766 46.5 346.67 46.426 346.63 46.278L346.534 45.54C346.274 45.852 345.978 46.104 345.646 46.296C345.314 46.488 344.93 46.584 344.494 46.584C344.146 46.584 343.83 46.518 343.546 46.386C343.262 46.25 343.02 46.052 342.82 45.792C342.62 45.532 342.466 45.208 342.358 44.82C342.25 44.432 342.196 43.986 342.196 43.482C342.196 43.034 342.256 42.618 342.376 42.234C342.496 41.846 342.668 41.51 342.892 41.226C343.116 40.942 343.39 40.72 343.714 40.56C344.042 40.396 344.41 40.314 344.818 40.314C345.19 40.314 345.508 40.378 345.772 40.506C346.04 40.63 346.278 40.804 346.486 41.028V37.662H347.554ZM353.309 42.798C353.309 42.55 353.273 42.324 353.201 42.12C353.133 41.912 353.031 41.734 352.895 41.586C352.763 41.434 352.601 41.318 352.409 41.238C352.217 41.154 351.999 41.112 351.755 41.112C351.243 41.112 350.837 41.262 350.537 41.562C350.241 41.858 350.057 42.27 349.985 42.798H353.309ZM354.173 45.648C354.041 45.808 353.883 45.948 353.699 46.068C353.515 46.184 353.317 46.28 353.105 46.356C352.897 46.432 352.681 46.488 352.457 46.524C352.233 46.564 352.011 46.584 351.791 46.584C351.371 46.584 350.983 46.514 350.627 46.374C350.275 46.23 349.969 46.022 349.709 45.75C349.453 45.474 349.253 45.134 349.109 44.73C348.965 44.326 348.893 43.862 348.893 43.338C348.893 42.914 348.957 42.518 349.085 42.15C349.217 41.782 349.405 41.464 349.649 41.196C349.893 40.924 350.191 40.712 350.543 40.56C350.895 40.404 351.291 40.326 351.731 40.326C352.095 40.326 352.431 40.388 352.739 40.512C353.051 40.632 353.319 40.808 353.543 41.04C353.771 41.268 353.949 41.552 354.077 41.892C354.205 42.228 354.269 42.612 354.269 43.044C354.269 43.212 354.251 43.324 354.215 43.38C354.179 43.436 354.111 43.464 354.011 43.464H349.949C349.961 43.848 350.013 44.182 350.105 44.466C350.201 44.75 350.333 44.988 350.501 45.18C350.669 45.368 350.869 45.51 351.101 45.606C351.333 45.698 351.593 45.744 351.881 45.744C352.149 45.744 352.379 45.714 352.571 45.654C352.767 45.59 352.935 45.522 353.075 45.45C353.215 45.378 353.331 45.312 353.423 45.252C353.519 45.188 353.601 45.156 353.669 45.156C353.757 45.156 353.825 45.19 353.873 45.258L354.173 45.648ZM356.594 41.64C356.786 41.224 357.022 40.9 357.302 40.668C357.582 40.432 357.924 40.314 358.328 40.314C358.456 40.314 358.578 40.328 358.694 40.356C358.814 40.384 358.92 40.428 359.012 40.488L358.934 41.286C358.91 41.386 358.85 41.436 358.754 41.436C358.698 41.436 358.616 41.424 358.508 41.4C358.4 41.376 358.278 41.364 358.142 41.364C357.95 41.364 357.778 41.392 357.626 41.448C357.478 41.504 357.344 41.588 357.224 41.7C357.108 41.808 357.002 41.944 356.906 42.108C356.814 42.268 356.73 42.452 356.654 42.66V46.5H355.58V40.422H356.192C356.308 40.422 356.388 40.444 356.432 40.488C356.476 40.532 356.506 40.608 356.522 40.716L356.594 41.64ZM363.456 41.424C363.408 41.512 363.334 41.556 363.234 41.556C363.174 41.556 363.106 41.534 363.03 41.49C362.954 41.446 362.86 41.398 362.748 41.346C362.64 41.29 362.51 41.24 362.358 41.196C362.206 41.148 362.026 41.124 361.818 41.124C361.638 41.124 361.476 41.148 361.332 41.196C361.188 41.24 361.064 41.302 360.96 41.382C360.86 41.462 360.782 41.556 360.726 41.664C360.674 41.768 360.648 41.882 360.648 42.006C360.648 42.162 360.692 42.292 360.78 42.396C360.872 42.5 360.992 42.59 361.14 42.666C361.288 42.742 361.456 42.81 361.644 42.87C361.832 42.926 362.024 42.988 362.22 43.056C362.42 43.12 362.614 43.192 362.802 43.272C362.99 43.352 363.158 43.452 363.306 43.572C363.454 43.692 363.572 43.84 363.66 44.016C363.752 44.188 363.798 44.396 363.798 44.64C363.798 44.92 363.748 45.18 363.648 45.42C363.548 45.656 363.4 45.862 363.204 46.038C363.008 46.21 362.768 46.346 362.484 46.446C362.2 46.546 361.872 46.596 361.5 46.596C361.076 46.596 360.692 46.528 360.348 46.392C360.004 46.252 359.712 46.074 359.472 45.858L359.724 45.45C359.756 45.398 359.794 45.358 359.838 45.33C359.882 45.302 359.938 45.288 360.006 45.288C360.078 45.288 360.154 45.316 360.234 45.372C360.314 45.428 360.41 45.49 360.522 45.558C360.638 45.626 360.778 45.688 360.942 45.744C361.106 45.8 361.31 45.828 361.554 45.828C361.762 45.828 361.944 45.802 362.1 45.75C362.256 45.694 362.386 45.62 362.49 45.528C362.594 45.436 362.67 45.33 362.718 45.21C362.77 45.09 362.796 44.962 362.796 44.826C362.796 44.658 362.75 44.52 362.658 44.412C362.57 44.3 362.452 44.206 362.304 44.13C362.156 44.05 361.986 43.982 361.794 43.926C361.606 43.866 361.412 43.804 361.212 43.74C361.016 43.676 360.822 43.604 360.63 43.524C360.442 43.44 360.274 43.336 360.126 43.212C359.978 43.088 359.858 42.936 359.766 42.756C359.678 42.572 359.634 42.35 359.634 42.09C359.634 41.858 359.682 41.636 359.778 41.424C359.874 41.208 360.014 41.02 360.198 40.86C360.382 40.696 360.608 40.566 360.876 40.47C361.144 40.374 361.45 40.326 361.794 40.326C362.194 40.326 362.552 40.39 362.868 40.518C363.188 40.642 363.464 40.814 363.696 41.034L363.456 41.424ZM364.928 45.84C364.928 45.736 364.946 45.638 364.982 45.546C365.022 45.454 365.074 45.374 365.138 45.306C365.206 45.238 365.286 45.184 365.378 45.144C365.47 45.104 365.568 45.084 365.672 45.084C365.776 45.084 365.874 45.104 365.966 45.144C366.058 45.184 366.138 45.238 366.206 45.306C366.274 45.374 366.328 45.454 366.368 45.546C366.408 45.638 366.428 45.736 366.428 45.84C366.428 45.948 366.408 46.048 366.368 46.14C366.328 46.228 366.274 46.306 366.206 46.374C366.138 46.442 366.058 46.494 365.966 46.53C365.874 46.57 365.776 46.59 365.672 46.59C365.568 46.59 365.47 46.57 365.378 46.53C365.286 46.494 365.206 46.442 365.138 46.374C365.074 46.306 365.022 46.228 364.982 46.14C364.946 46.048 364.928 45.948 364.928 45.84Z" fill="#393D5E"/>
</svg>
