<svg width="158" height="64" viewBox="0 0 158 64" fill="none" xmlns="http://www.w3.org/2000/svg">
<path d="M19.9122 36.7301C19.5082 36.729 19.1059 36.6771 18.7148 36.5758C17.6697 36.3006 16.7521 35.6704 16.1183 34.7925C15.4846 33.9147 15.1741 32.8435 15.2397 31.7617C15.3053 30.6799 15.7429 29.6545 16.478 28.8601C17.2131 28.0657 18.2001 27.5517 19.2708 27.4056C20.3415 27.2594 21.4295 27.4904 22.3495 28.0588C23.2695 28.6274 23.9644 29.4983 24.3157 30.5232C24.667 31.5482 24.6532 32.6635 24.2763 33.6793C23.8995 34.695 23.1831 35.5483 22.2492 36.0935C21.5399 36.509 20.7335 36.7287 19.9122 36.7301ZM19.9122 29.4955C19.3518 29.4971 18.8076 29.6842 18.3641 30.0278C17.9207 30.3715 17.6028 30.8523 17.4598 31.3958C17.3322 31.8832 17.3513 32.3976 17.5148 32.8741C17.6783 33.3506 17.9788 33.7679 18.3785 34.0733C18.7781 34.3787 19.259 34.5586 19.7604 34.5902C20.2619 34.6218 20.7614 34.5038 21.1961 34.2511C21.6792 33.9685 22.0561 33.5341 22.2683 33.0152C22.4806 32.4961 22.5164 31.9215 22.3702 31.38C22.224 30.8386 21.904 30.3606 21.4597 30.0198C21.0154 29.6792 20.4715 29.4949 19.9122 29.4955Z" fill="#0AA5A5"/>
<path d="M21.4206 44.6499C18.6545 45.0039 15.8498 44.4225 13.4503 42.9978C11.0508 41.573 9.19362 39.3861 8.1728 36.7834C7.49764 37.0236 6.80242 37.2028 6.09546 37.3188C6.38125 38.0799 6.73031 38.8156 7.13894 39.5181C8.44538 41.7566 10.3127 43.6135 12.5556 44.9046C14.7986 46.1956 17.339 46.876 19.9251 46.8782C20.2377 46.8782 20.5454 46.8782 20.8579 46.8444C20.9494 46.0914 21.1386 45.3537 21.4206 44.6499Z" fill="#0AA5A5"/>
<path d="M32.6642 24.5911C31.1316 21.9458 28.8193 19.8418 26.0456 18.5686C23.2719 17.2954 20.1729 16.9156 17.1752 17.4814C14.1774 18.0472 11.4281 19.5309 9.30553 21.7282C7.18294 23.9256 5.79137 26.7287 5.32227 29.7518C6.52313 29.2411 7.53277 28.3635 8.20745 27.2438C9.15021 24.9113 10.7642 22.9134 12.8436 21.5046C14.923 20.0959 17.3735 19.3402 19.8828 19.3339C22.6722 19.3226 25.3871 20.2358 27.6056 21.9317C29.8242 23.6275 31.422 26.0109 32.1507 28.7115C32.8795 31.412 32.6984 34.2784 31.6356 36.8651C30.5727 39.4518 28.6877 41.6139 26.2735 43.0152C26.0619 43.1407 25.8407 43.2468 25.6195 43.3576C24.7031 44.142 24.0514 45.1917 23.7538 46.3624C25.0113 46.0219 26.2177 45.5142 27.341 44.8528C30.7228 42.8712 33.1825 39.6248 34.1805 35.8262C35.1785 32.0276 34.6331 27.9869 32.6642 24.5911Z" fill="#0AA5A5"/>
<path d="M12.6892 29.2406L12.8719 28.8934C13.5811 27.3158 14.7985 26.0232 16.3283 25.2231C17.8582 24.4229 19.6117 24.1618 21.3074 24.4815C23.003 24.8014 24.5423 25.6835 25.6779 26.9863C26.8135 28.2891 27.4796 29.937 27.5691 31.6652C27.6586 33.3934 27.1664 35.1016 26.1715 36.5154C25.1765 37.9293 23.7367 38.9667 22.0832 39.461C20.4297 39.9553 18.6586 39.8778 17.0544 39.2409C15.4501 38.6042 14.1057 37.4449 13.2374 35.9495C12.9066 35.3734 12.6497 34.7576 12.4728 34.1168C11.9312 34.6387 11.3419 35.1086 10.7128 35.5203C11.5143 37.6386 13.0229 39.4129 14.9816 40.5413C16.9404 41.6698 19.2285 42.0827 21.4566 41.7097C23.6848 41.3368 25.7152 40.2011 27.2025 38.4958C28.6898 36.7905 29.5421 34.621 29.6144 32.3565C29.6867 30.092 28.9744 27.8722 27.5989 26.075C26.2234 24.2778 24.2695 23.0142 22.0697 22.4991C19.87 21.984 17.5602 22.2492 15.5335 23.2497C13.5067 24.2502 11.8882 25.9241 10.9533 27.9867L10.8042 28.2664C10.2208 29.3482 9.42631 30.3011 8.468 31.0684C7.50969 31.8357 6.40719 32.4016 5.2262 32.7326C5.25305 33.3633 5.32051 33.9916 5.42816 34.6135C6.40615 34.4823 7.35819 34.2009 8.25083 33.7792C10.1253 32.7138 11.6634 31.141 12.6892 29.2406Z" fill="#0AA5A5"/>
<path d="M54.408 31.216C53.58 31.216 52.83 31.078 52.158 30.802C51.486 30.526 50.91 30.112 50.43 29.56C49.962 29.008 49.596 28.33 49.332 27.526C49.068 26.722 48.936 25.786 48.936 24.718C48.936 23.662 49.068 22.732 49.332 21.928C49.596 21.112 49.962 20.428 50.43 19.876C50.91 19.324 51.486 18.91 52.158 18.634C52.83 18.358 53.58 18.22 54.408 18.22C55.236 18.22 55.986 18.358 56.658 18.634C57.33 18.91 57.906 19.324 58.386 19.876C58.866 20.428 59.232 21.112 59.484 21.928C59.748 22.732 59.88 23.662 59.88 24.718C59.88 25.786 59.748 26.722 59.484 27.526C59.232 28.33 58.866 29.008 58.386 29.56C57.906 30.112 57.33 30.526 56.658 30.802C55.986 31.078 55.236 31.216 54.408 31.216ZM54.408 29.11C55.308 29.11 56.022 28.81 56.55 28.21C57.09 27.61 57.36 26.77 57.36 25.69V23.746C57.36 22.666 57.09 21.826 56.55 21.226C56.022 20.626 55.308 20.326 54.408 20.326C53.508 20.326 52.788 20.626 52.248 21.226C51.72 21.826 51.456 22.666 51.456 23.746V25.69C51.456 26.77 51.72 27.61 52.248 28.21C52.788 28.81 53.508 29.11 54.408 29.11ZM62.1465 21.604H64.4505V23.152H64.5225C64.6905 22.612 65.0085 22.186 65.4765 21.874C65.9445 21.55 66.4905 21.388 67.1145 21.388C68.3145 21.388 69.2265 21.814 69.8505 22.666C70.4865 23.506 70.8045 24.712 70.8045 26.284C70.8045 27.868 70.4865 29.086 69.8505 29.938C69.2265 30.79 68.3145 31.216 67.1145 31.216C66.4905 31.216 65.9445 31.054 65.4765 30.73C65.0205 30.406 64.7025 29.974 64.5225 29.434H64.4505V34.6H62.1465V21.604ZM66.3765 29.308C66.9765 29.308 67.4625 29.11 67.8345 28.714C68.2065 28.318 68.3925 27.784 68.3925 27.112V25.492C68.3925 24.82 68.2065 24.286 67.8345 23.89C67.4625 23.482 66.9765 23.278 66.3765 23.278C65.8245 23.278 65.3625 23.416 64.9905 23.692C64.6305 23.968 64.4505 24.334 64.4505 24.79V27.778C64.4505 28.27 64.6305 28.648 64.9905 28.912C65.3625 29.176 65.8245 29.308 66.3765 29.308ZM75.768 31C74.976 31 74.37 30.796 73.95 30.388C73.542 29.968 73.338 29.374 73.338 28.606V23.44H71.952V21.604H72.672C73.02 21.604 73.254 21.526 73.374 21.37C73.506 21.202 73.572 20.956 73.572 20.632V19.03H75.642V21.604H77.568V23.44H75.642V29.164H77.424V31H75.768ZM86.4784 31C85.9744 31 85.5724 30.856 85.2724 30.568C84.9844 30.268 84.8044 29.872 84.7324 29.38H84.6244C84.4684 29.992 84.1504 30.454 83.6704 30.766C83.1904 31.066 82.5964 31.216 81.8884 31.216C80.9284 31.216 80.1904 30.964 79.6744 30.46C79.1584 29.956 78.9004 29.284 78.9004 28.444C78.9004 27.472 79.2484 26.752 79.9444 26.284C80.6404 25.804 81.6304 25.564 82.9144 25.564H84.5164V24.88C84.5164 24.352 84.3784 23.944 84.1024 23.656C83.8264 23.368 83.3824 23.224 82.7704 23.224C82.2304 23.224 81.7924 23.344 81.4564 23.584C81.1324 23.812 80.8564 24.088 80.6284 24.412L79.2604 23.188C79.6084 22.648 80.0704 22.216 80.6464 21.892C81.2224 21.556 81.9844 21.388 82.9324 21.388C84.2044 21.388 85.1704 21.676 85.8304 22.252C86.4904 22.828 86.8204 23.656 86.8204 24.736V29.164H87.7564V31H86.4784ZM82.6624 29.542C83.1784 29.542 83.6164 29.428 83.9764 29.2C84.3364 28.972 84.5164 28.636 84.5164 28.192V26.95H83.0404C81.8404 26.95 81.2404 27.334 81.2404 28.102V28.408C81.2404 28.792 81.3604 29.08 81.6004 29.272C81.8524 29.452 82.2064 29.542 82.6624 29.542ZM89.6211 17.68H91.9251V23.152H91.9971C92.1651 22.612 92.4831 22.186 92.9511 21.874C93.4191 21.55 93.9651 21.388 94.5891 21.388C95.7891 21.388 96.7011 21.814 97.3251 22.666C97.9611 23.506 98.2791 24.712 98.2791 26.284C98.2791 27.868 97.9611 29.086 97.3251 29.938C96.7011 30.79 95.7891 31.216 94.5891 31.216C93.9651 31.216 93.4191 31.054 92.9511 30.73C92.4951 30.406 92.1771 29.974 91.9971 29.434H91.9251V31H89.6211V17.68ZM93.8511 29.308C94.4511 29.308 94.9371 29.11 95.3091 28.714C95.6811 28.318 95.8671 27.784 95.8671 27.112V25.492C95.8671 24.82 95.6811 24.286 95.3091 23.89C94.9371 23.482 94.4511 23.278 93.8511 23.278C93.2991 23.278 92.8371 23.416 92.4651 23.692C92.1051 23.968 91.9251 24.334 91.9251 24.79V27.778C91.9251 28.27 92.1051 28.648 92.4651 28.912C92.8371 29.176 93.2991 29.308 93.8511 29.308ZM102.718 31C101.926 31 101.344 30.802 100.972 30.406C100.6 30.01 100.414 29.452 100.414 28.732V17.68H102.718V29.164H103.96V31H102.718ZM109.503 31.216C108.807 31.216 108.183 31.102 107.631 30.874C107.091 30.634 106.629 30.304 106.245 29.884C105.873 29.452 105.585 28.936 105.381 28.336C105.177 27.724 105.075 27.04 105.075 26.284C105.075 25.54 105.171 24.868 105.363 24.268C105.567 23.668 105.855 23.158 106.227 22.738C106.599 22.306 107.055 21.976 107.595 21.748C108.135 21.508 108.747 21.388 109.431 21.388C110.163 21.388 110.799 21.514 111.339 21.766C111.879 22.018 112.323 22.36 112.671 22.792C113.019 23.224 113.277 23.728 113.445 24.304C113.625 24.868 113.715 25.474 113.715 26.122V26.878H107.469V27.112C107.469 27.796 107.661 28.348 108.045 28.768C108.429 29.176 108.999 29.38 109.755 29.38C110.331 29.38 110.799 29.26 111.159 29.02C111.531 28.78 111.861 28.474 112.149 28.102L113.391 29.488C113.007 30.028 112.479 30.454 111.807 30.766C111.147 31.066 110.379 31.216 109.503 31.216ZM109.467 23.116C108.855 23.116 108.369 23.32 108.009 23.728C107.649 24.136 107.469 24.664 107.469 25.312V25.456H111.321V25.294C111.321 24.646 111.159 24.124 110.835 23.728C110.523 23.32 110.067 23.116 109.467 23.116Z" fill="#434343"/>
<path d="M48.666 45.34C48.666 45.236 48.684 45.138 48.72 45.046C48.76 44.954 48.812 44.874 48.876 44.806C48.944 44.738 49.024 44.684 49.116 44.644C49.208 44.604 49.306 44.584 49.41 44.584C49.514 44.584 49.612 44.604 49.704 44.644C49.796 44.684 49.876 44.738 49.944 44.806C50.012 44.874 50.066 44.954 50.106 45.046C50.146 45.138 50.166 45.236 50.166 45.34C50.166 45.448 50.146 45.548 50.106 45.64C50.066 45.728 50.012 45.806 49.944 45.874C49.876 45.942 49.796 45.994 49.704 46.03C49.612 46.07 49.514 46.09 49.41 46.09C49.306 46.09 49.208 46.07 49.116 46.03C49.024 45.994 48.944 45.942 48.876 45.874C48.812 45.806 48.76 45.728 48.72 45.64C48.684 45.548 48.666 45.448 48.666 45.34ZM57.6887 44.224C57.7527 44.224 57.8087 44.25 57.8567 44.302L58.3187 44.8C57.9667 45.208 57.5387 45.526 57.0347 45.754C56.5347 45.982 55.9287 46.096 55.2167 46.096C54.6007 46.096 54.0407 45.99 53.5367 45.778C53.0327 45.562 52.6027 45.262 52.2467 44.878C51.8907 44.49 51.6147 44.026 51.4187 43.486C51.2227 42.946 51.1247 42.352 51.1247 41.704C51.1247 41.056 51.2267 40.462 51.4307 39.922C51.6347 39.382 51.9207 38.918 52.2887 38.53C52.6607 38.142 53.1047 37.842 53.6207 37.63C54.1367 37.414 54.7067 37.306 55.3307 37.306C55.9427 37.306 56.4827 37.404 56.9507 37.6C57.4187 37.796 57.8307 38.062 58.1867 38.398L57.8027 38.932C57.7787 38.972 57.7467 39.006 57.7067 39.034C57.6707 39.058 57.6207 39.07 57.5567 39.07C57.4847 39.07 57.3967 39.032 57.2927 38.956C57.1887 38.876 57.0527 38.788 56.8847 38.692C56.7167 38.596 56.5067 38.51 56.2547 38.434C56.0027 38.354 55.6927 38.314 55.3247 38.314C54.8807 38.314 54.4747 38.392 54.1067 38.548C53.7387 38.7 53.4207 38.922 53.1527 39.214C52.8887 39.506 52.6827 39.862 52.5347 40.282C52.3867 40.702 52.3127 41.176 52.3127 41.704C52.3127 42.24 52.3887 42.718 52.5407 43.138C52.6967 43.558 52.9067 43.914 53.1707 44.206C53.4387 44.494 53.7527 44.714 54.1127 44.866C54.4767 45.018 54.8687 45.094 55.2887 45.094C55.5447 45.094 55.7747 45.08 55.9787 45.052C56.1867 45.02 56.3767 44.972 56.5487 44.908C56.7247 44.844 56.8867 44.764 57.0347 44.668C57.1867 44.568 57.3367 44.45 57.4847 44.314C57.5527 44.254 57.6207 44.224 57.6887 44.224ZM64.0663 38.746C64.0303 38.806 63.9903 38.852 63.9463 38.884C63.9063 38.912 63.8563 38.926 63.7963 38.926C63.7283 38.926 63.6483 38.892 63.5563 38.824C63.4643 38.756 63.3483 38.682 63.2083 38.602C63.0723 38.518 62.9063 38.442 62.7103 38.374C62.5183 38.306 62.2843 38.272 62.0083 38.272C61.7483 38.272 61.5183 38.308 61.3183 38.38C61.1223 38.448 60.9563 38.542 60.8203 38.662C60.6883 38.782 60.5883 38.924 60.5203 39.088C60.4523 39.248 60.4183 39.422 60.4183 39.61C60.4183 39.85 60.4763 40.05 60.5923 40.21C60.7123 40.366 60.8683 40.5 61.0603 40.612C61.2563 40.724 61.4763 40.822 61.7203 40.906C61.9683 40.986 62.2203 41.07 62.4763 41.158C62.7363 41.246 62.9883 41.346 63.2323 41.458C63.4803 41.566 63.7003 41.704 63.8923 41.872C64.0883 42.04 64.2443 42.246 64.3603 42.49C64.4803 42.734 64.5403 43.034 64.5403 43.39C64.5403 43.766 64.4763 44.12 64.3483 44.452C64.2203 44.78 64.0323 45.066 63.7843 45.31C63.5403 45.554 63.2383 45.746 62.8783 45.886C62.5223 46.026 62.1163 46.096 61.6603 46.096C61.1003 46.096 60.5923 45.996 60.1363 45.796C59.6803 45.592 59.2903 45.318 58.9663 44.974L59.3023 44.422C59.3343 44.378 59.3723 44.342 59.4163 44.314C59.4643 44.282 59.5163 44.266 59.5723 44.266C59.6243 44.266 59.6823 44.288 59.7463 44.332C59.8143 44.372 59.8903 44.424 59.9743 44.488C60.0583 44.552 60.1543 44.622 60.2623 44.698C60.3703 44.774 60.4923 44.844 60.6283 44.908C60.7683 44.972 60.9263 45.026 61.1023 45.07C61.2783 45.11 61.4763 45.13 61.6963 45.13C61.9723 45.13 62.2183 45.092 62.4343 45.016C62.6503 44.94 62.8323 44.834 62.9803 44.698C63.1323 44.558 63.2483 44.392 63.3283 44.2C63.4083 44.008 63.4483 43.794 63.4483 43.558C63.4483 43.298 63.3883 43.086 63.2683 42.922C63.1523 42.754 62.9983 42.614 62.8063 42.502C62.6143 42.39 62.3943 42.296 62.1463 42.22C61.8983 42.14 61.6463 42.06 61.3903 41.98C61.1343 41.896 60.8823 41.8 60.6343 41.692C60.3863 41.584 60.1663 41.444 59.9743 41.272C59.7823 41.1 59.6263 40.886 59.5063 40.63C59.3903 40.37 59.3323 40.05 59.3323 39.67C59.3323 39.366 59.3903 39.072 59.5063 38.788C59.6263 38.504 59.7983 38.252 60.0223 38.032C60.2503 37.812 60.5283 37.636 60.8563 37.504C61.1883 37.372 61.5683 37.306 61.9963 37.306C62.4763 37.306 62.9123 37.382 63.3043 37.534C63.7003 37.686 64.0483 37.906 64.3483 38.194L64.0663 38.746ZM73.0216 37.402L69.5176 46H68.4736L64.9696 37.402H65.8996C66.0036 37.402 66.0876 37.428 66.1516 37.48C66.2156 37.532 66.2636 37.598 66.2956 37.678L68.7196 43.744C68.7716 43.88 68.8216 44.028 68.8696 44.188C68.9216 44.348 68.9676 44.516 69.0076 44.692C69.0476 44.516 69.0896 44.348 69.1336 44.188C69.1776 44.028 69.2256 43.88 69.2776 43.744L71.6956 37.678C71.7196 37.61 71.7656 37.548 71.8336 37.492C71.9056 37.432 71.9916 37.402 72.0916 37.402H73.0216ZM82.0934 45.052L82.0874 46H76.7894V37.402H82.0874V38.35H77.9534V41.206H81.3014V42.118H77.9534V45.052H82.0934ZM87.1654 41.368C86.9654 41.1 86.7494 40.914 86.5174 40.81C86.2854 40.702 86.0254 40.648 85.7374 40.648C85.1734 40.648 84.7394 40.85 84.4354 41.254C84.1314 41.658 83.9794 42.234 83.9794 42.982C83.9794 43.378 84.0134 43.718 84.0814 44.002C84.1494 44.282 84.2494 44.514 84.3814 44.698C84.5134 44.878 84.6754 45.01 84.8674 45.094C85.0594 45.178 85.2774 45.22 85.5214 45.22C85.8734 45.22 86.1794 45.14 86.4394 44.98C86.7034 44.82 86.9454 44.594 87.1654 44.302V41.368ZM88.2334 37.162V46H87.5974C87.4454 46 87.3494 45.926 87.3094 45.778L87.2134 45.04C86.9534 45.352 86.6574 45.604 86.3254 45.796C85.9934 45.988 85.6094 46.084 85.1734 46.084C84.8254 46.084 84.5094 46.018 84.2254 45.886C83.9414 45.75 83.6994 45.552 83.4994 45.292C83.2994 45.032 83.1454 44.708 83.0374 44.32C82.9294 43.932 82.8754 43.486 82.8754 42.982C82.8754 42.534 82.9354 42.118 83.0554 41.734C83.1754 41.346 83.3474 41.01 83.5714 40.726C83.7954 40.442 84.0694 40.22 84.3934 40.06C84.7214 39.896 85.0894 39.814 85.4974 39.814C85.8694 39.814 86.1874 39.878 86.4514 40.006C86.7194 40.13 86.9574 40.304 87.1654 40.528V37.162H88.2334ZM91.0482 39.922V46H89.9802V39.922H91.0482ZM91.2762 38.014C91.2762 38.118 91.2542 38.216 91.2102 38.308C91.1702 38.396 91.1142 38.476 91.0422 38.548C90.9742 38.616 90.8922 38.67 90.7962 38.71C90.7042 38.75 90.6062 38.77 90.5022 38.77C90.3982 38.77 90.3002 38.75 90.2082 38.71C90.1202 38.67 90.0422 38.616 89.9742 38.548C89.9062 38.476 89.8522 38.396 89.8122 38.308C89.7722 38.216 89.7522 38.118 89.7522 38.014C89.7522 37.91 89.7722 37.812 89.8122 37.72C89.8522 37.624 89.9062 37.542 89.9742 37.474C90.0422 37.402 90.1202 37.346 90.2082 37.306C90.3002 37.266 90.3982 37.246 90.5022 37.246C90.6062 37.246 90.7042 37.266 90.7962 37.306C90.8922 37.346 90.9742 37.402 91.0422 37.474C91.1142 37.542 91.1702 37.624 91.2102 37.72C91.2542 37.812 91.2762 37.91 91.2762 38.014ZM98.443 46H97.375V40.816H94.243V44.464C94.243 44.72 94.305 44.91 94.429 45.034C94.553 45.158 94.713 45.22 94.909 45.22C95.021 45.22 95.117 45.206 95.197 45.178C95.281 45.146 95.353 45.112 95.413 45.076C95.473 45.04 95.523 45.008 95.563 44.98C95.607 44.948 95.645 44.932 95.677 44.932C95.733 44.932 95.783 44.966 95.827 45.034L96.139 45.544C95.955 45.716 95.733 45.852 95.473 45.952C95.213 46.048 94.945 46.096 94.669 46.096C94.189 46.096 93.819 45.962 93.559 45.694C93.303 45.426 93.175 45.04 93.175 44.536V40.816H92.443C92.379 40.816 92.325 40.798 92.281 40.762C92.237 40.722 92.215 40.662 92.215 40.582V40.156L93.211 40.024L93.457 38.152C93.469 38.092 93.495 38.044 93.535 38.008C93.579 37.968 93.635 37.948 93.703 37.948H94.243V40.042H98.443V46ZM98.707 37.972C98.707 38.076 98.685 38.174 98.641 38.266C98.601 38.354 98.545 38.432 98.473 38.5C98.405 38.568 98.325 38.622 98.233 38.662C98.141 38.702 98.043 38.722 97.939 38.722C97.835 38.722 97.737 38.702 97.645 38.662C97.557 38.622 97.479 38.568 97.411 38.5C97.343 38.432 97.289 38.354 97.249 38.266C97.209 38.174 97.189 38.076 97.189 37.972C97.189 37.868 97.209 37.77 97.249 37.678C97.289 37.582 97.343 37.5 97.411 37.432C97.479 37.36 97.557 37.304 97.645 37.264C97.737 37.224 97.835 37.204 97.939 37.204C98.043 37.204 98.141 37.224 98.233 37.264C98.325 37.304 98.405 37.36 98.473 37.432C98.545 37.5 98.601 37.582 98.641 37.678C98.685 37.77 98.707 37.868 98.707 37.972ZM101.206 40.804C101.338 40.656 101.478 40.522 101.626 40.402C101.774 40.282 101.93 40.18 102.094 40.096C102.262 40.008 102.438 39.942 102.622 39.898C102.81 39.85 103.012 39.826 103.228 39.826C103.56 39.826 103.852 39.882 104.104 39.994C104.36 40.102 104.572 40.258 104.74 40.462C104.912 40.662 105.042 40.904 105.13 41.188C105.218 41.472 105.262 41.786 105.262 42.13V46H104.188V42.13C104.188 41.67 104.082 41.314 103.87 41.062C103.662 40.806 103.344 40.678 102.916 40.678C102.6 40.678 102.304 40.754 102.028 40.906C101.756 41.058 101.504 41.264 101.272 41.524V46H100.198V39.922H100.84C100.992 39.922 101.086 39.996 101.122 40.144L101.206 40.804ZM109.007 43.03C109.223 43.03 109.413 43 109.577 42.94C109.741 42.88 109.879 42.796 109.991 42.688C110.103 42.58 110.187 42.452 110.243 42.304C110.299 42.152 110.327 41.986 110.327 41.806C110.327 41.434 110.213 41.138 109.985 40.918C109.761 40.698 109.435 40.588 109.007 40.588C108.575 40.588 108.245 40.698 108.017 40.918C107.793 41.138 107.681 41.434 107.681 41.806C107.681 41.986 107.709 42.152 107.765 42.304C107.825 42.452 107.911 42.58 108.023 42.688C108.135 42.796 108.273 42.88 108.437 42.94C108.601 43 108.791 43.03 109.007 43.03ZM110.933 46.33C110.933 46.182 110.891 46.062 110.807 45.97C110.723 45.878 110.609 45.806 110.465 45.754C110.325 45.702 110.161 45.666 109.973 45.646C109.785 45.622 109.585 45.604 109.373 45.592C109.165 45.58 108.953 45.568 108.737 45.556C108.521 45.544 108.313 45.524 108.113 45.496C107.889 45.6 107.705 45.732 107.561 45.892C107.421 46.048 107.351 46.232 107.351 46.444C107.351 46.58 107.385 46.706 107.453 46.822C107.525 46.942 107.633 47.044 107.777 47.128C107.921 47.216 108.101 47.284 108.317 47.332C108.537 47.384 108.795 47.41 109.091 47.41C109.379 47.41 109.637 47.384 109.865 47.332C110.093 47.28 110.285 47.206 110.441 47.11C110.601 47.014 110.723 46.9 110.807 46.768C110.891 46.636 110.933 46.49 110.933 46.33ZM112.019 40.162V40.558C112.019 40.69 111.935 40.774 111.767 40.81L111.077 40.9C111.213 41.164 111.281 41.456 111.281 41.776C111.281 42.072 111.223 42.342 111.107 42.586C110.995 42.826 110.839 43.032 110.639 43.204C110.439 43.376 110.199 43.508 109.919 43.6C109.639 43.692 109.335 43.738 109.007 43.738C108.723 43.738 108.455 43.704 108.203 43.636C108.075 43.716 107.977 43.802 107.909 43.894C107.841 43.982 107.807 44.072 107.807 44.164C107.807 44.308 107.865 44.418 107.981 44.494C108.101 44.566 108.257 44.618 108.449 44.65C108.641 44.682 108.859 44.702 109.103 44.71C109.351 44.718 109.603 44.732 109.859 44.752C110.119 44.768 110.371 44.798 110.615 44.842C110.863 44.886 111.083 44.958 111.275 45.058C111.467 45.158 111.621 45.296 111.737 45.472C111.857 45.648 111.917 45.876 111.917 46.156C111.917 46.416 111.851 46.668 111.719 46.912C111.591 47.156 111.405 47.372 111.161 47.56C110.917 47.752 110.617 47.904 110.261 48.016C109.909 48.132 109.511 48.19 109.067 48.19C108.623 48.19 108.235 48.146 107.903 48.058C107.571 47.97 107.295 47.852 107.075 47.704C106.855 47.556 106.689 47.384 106.577 47.188C106.469 46.996 106.415 46.794 106.415 46.582C106.415 46.282 106.509 46.028 106.697 45.82C106.885 45.612 107.143 45.446 107.471 45.322C107.291 45.242 107.147 45.136 107.039 45.004C106.935 44.868 106.883 44.686 106.883 44.458C106.883 44.37 106.899 44.28 106.931 44.188C106.963 44.092 107.011 43.998 107.075 43.906C107.143 43.81 107.225 43.72 107.321 43.636C107.417 43.552 107.529 43.478 107.657 43.414C107.357 43.246 107.123 43.024 106.955 42.748C106.787 42.468 106.703 42.144 106.703 41.776C106.703 41.48 106.759 41.212 106.871 40.972C106.987 40.728 107.147 40.522 107.351 40.354C107.555 40.182 107.797 40.05 108.077 39.958C108.361 39.866 108.671 39.82 109.007 39.82C109.271 39.82 109.517 39.85 109.745 39.91C109.973 39.966 110.181 40.05 110.369 40.162H112.019ZM121.896 38.38H119.112V46H117.954V38.38H115.164V37.402H121.896V38.38ZM124.017 39.826C124.461 39.826 124.861 39.9 125.217 40.048C125.573 40.196 125.877 40.406 126.129 40.678C126.381 40.95 126.573 41.28 126.705 41.668C126.841 42.052 126.909 42.482 126.909 42.958C126.909 43.438 126.841 43.87 126.705 44.254C126.573 44.638 126.381 44.966 126.129 45.238C125.877 45.51 125.573 45.72 125.217 45.868C124.861 46.012 124.461 46.084 124.017 46.084C123.569 46.084 123.165 46.012 122.805 45.868C122.449 45.72 122.145 45.51 121.893 45.238C121.641 44.966 121.447 44.638 121.311 44.254C121.179 43.87 121.113 43.438 121.113 42.958C121.113 42.482 121.179 42.052 121.311 41.668C121.447 41.28 121.641 40.95 121.893 40.678C122.145 40.406 122.449 40.196 122.805 40.048C123.165 39.9 123.569 39.826 124.017 39.826ZM124.017 45.25C124.617 45.25 125.065 45.05 125.361 44.65C125.657 44.246 125.805 43.684 125.805 42.964C125.805 42.24 125.657 41.676 125.361 41.272C125.065 40.868 124.617 40.666 124.017 40.666C123.713 40.666 123.447 40.718 123.219 40.822C122.995 40.926 122.807 41.076 122.655 41.272C122.507 41.468 122.395 41.71 122.319 41.998C122.247 42.282 122.211 42.604 122.211 42.964C122.211 43.684 122.359 44.246 122.655 44.65C122.955 45.05 123.409 45.25 124.017 45.25ZM130.826 39.826C131.27 39.826 131.67 39.9 132.026 40.048C132.382 40.196 132.686 40.406 132.938 40.678C133.19 40.95 133.382 41.28 133.514 41.668C133.65 42.052 133.718 42.482 133.718 42.958C133.718 43.438 133.65 43.87 133.514 44.254C133.382 44.638 133.19 44.966 132.938 45.238C132.686 45.51 132.382 45.72 132.026 45.868C131.67 46.012 131.27 46.084 130.826 46.084C130.378 46.084 129.974 46.012 129.614 45.868C129.258 45.72 128.954 45.51 128.702 45.238C128.45 44.966 128.256 44.638 128.12 44.254C127.988 43.87 127.922 43.438 127.922 42.958C127.922 42.482 127.988 42.052 128.12 41.668C128.256 41.28 128.45 40.95 128.702 40.678C128.954 40.406 129.258 40.196 129.614 40.048C129.974 39.9 130.378 39.826 130.826 39.826ZM130.826 45.25C131.426 45.25 131.874 45.05 132.17 44.65C132.466 44.246 132.614 43.684 132.614 42.964C132.614 42.24 132.466 41.676 132.17 41.272C131.874 40.868 131.426 40.666 130.826 40.666C130.522 40.666 130.256 40.718 130.028 40.822C129.804 40.926 129.616 41.076 129.464 41.272C129.316 41.468 129.204 41.71 129.128 41.998C129.056 42.282 129.02 42.604 129.02 42.964C129.02 43.684 129.168 44.246 129.464 44.65C129.764 45.05 130.218 45.25 130.826 45.25ZM136.177 37.162V46H135.109V37.162H136.177Z" fill="#434343"/>
</svg>
