<svg width="40" height="40" viewBox="0 0 40 40" fill="none" xmlns="http://www.w3.org/2000/svg">
<path d="M19.912 24.7306C19.5081 24.7295 19.1058 24.6776 18.7147 24.5763C17.6696 24.3011 16.7519 23.6709 16.1182 22.793C15.4845 21.9152 15.174 20.844 15.2396 19.7622C15.3052 18.6804 15.7428 17.655 16.4779 16.8606C17.213 16.0662 18.2 15.5522 19.2707 15.4061C20.3414 15.2599 21.4294 15.4908 22.3494 16.0593C23.2693 16.6279 23.9642 17.4988 24.3156 18.5237C24.6669 19.5486 24.6531 20.664 24.2762 21.6798C23.8994 22.6955 23.1829 23.5488 22.2491 24.094C21.5398 24.5095 20.7334 24.7292 19.912 24.7306ZM19.912 17.496C19.3517 17.4976 18.8075 17.6847 18.364 18.0283C17.9206 18.372 17.6027 18.8528 17.4596 19.3963C17.3321 19.8837 17.3512 20.3981 17.5147 20.8746C17.6782 21.3511 17.9787 21.7684 18.3783 22.0738C18.778 22.3792 19.2589 22.5591 19.7603 22.5907C20.2617 22.6223 20.7613 22.5043 21.196 22.2516C21.6791 21.969 22.056 21.5346 22.2682 21.0157C22.4805 20.4966 22.5162 19.922 22.3701 19.3805C22.2239 18.8391 21.9039 18.361 21.4596 18.0203C21.0152 17.6797 20.4713 17.4954 19.912 17.496Z" fill="#0AA5A5"/>
<path d="M21.4206 32.6501C18.6545 33.0042 15.8498 32.4228 13.4503 30.998C11.0508 29.5732 9.19362 27.3863 8.1728 24.7837C7.49764 25.0239 6.80242 25.203 6.09546 25.319C6.38125 26.0802 6.73031 26.8159 7.13894 27.5183C8.44538 29.7568 10.3127 31.6137 12.5556 32.9048C14.7986 34.1959 17.339 34.8763 19.9251 34.8784C20.2377 34.8784 20.5454 34.8784 20.8579 34.8446C20.9494 34.0916 21.1386 33.3539 21.4206 32.6501Z" fill="#0AA5A5"/>
<path d="M32.6642 12.5916C31.1316 9.94625 28.8193 7.84225 26.0456 6.56907C23.2719 5.29589 20.1729 4.91608 17.1752 5.4819C14.1774 6.04772 11.4281 7.53135 9.30553 9.7287C7.18294 11.9261 5.79137 14.7291 5.32227 17.7523C6.52313 17.2416 7.53277 16.3639 8.20745 15.2442C9.15021 12.9118 10.7642 10.9139 12.8436 9.50511C14.923 8.09637 17.3735 7.34068 19.8828 7.33442C22.6722 7.3231 25.3871 8.23633 27.6056 9.93217C29.8242 11.628 31.422 14.0114 32.1507 16.712C32.8795 19.4125 32.6984 22.2789 31.6356 24.8656C30.5727 27.4523 28.6877 29.6144 26.2735 31.0157C26.0619 31.1411 25.8407 31.2473 25.6195 31.3581C24.7031 32.1425 24.0514 33.1921 23.7538 34.3629C25.0113 34.0224 26.2177 33.5147 27.341 32.8533C30.7228 30.8717 33.1825 27.6253 34.1805 23.8266C35.1785 20.028 34.6331 15.9874 32.6642 12.5916Z" fill="#0AA5A5"/>
<path d="M12.6891 17.2409L12.8718 16.8936C13.581 15.3161 14.7983 14.0234 16.3282 13.2233C17.858 12.4231 19.6116 12.162 21.3073 12.4818C23.0029 12.8016 24.5422 13.6838 25.6778 14.9866C26.8134 16.2894 27.4795 17.9373 27.569 19.6655C27.6585 21.3937 27.1662 23.1019 26.1713 24.5157C25.1764 25.9295 23.7365 26.9669 22.0831 27.4612C20.4296 27.9555 18.6585 27.878 17.0543 27.2412C15.45 26.6044 14.1056 25.4452 13.2373 23.9498C12.9065 23.3736 12.6496 22.7578 12.4727 22.1171C11.931 22.639 11.3418 23.1089 10.7127 23.5205C11.5142 25.6389 13.0227 27.4131 14.9815 28.5416C16.9403 29.6701 19.2284 30.0829 21.4565 29.71C23.6846 29.337 25.7151 28.2013 27.2023 26.496C28.6897 24.7908 29.542 22.6212 29.6143 20.3567C29.6865 18.0922 28.9743 15.8725 27.5987 14.0753C26.2233 12.2781 24.2694 11.0144 22.0696 10.4993C19.8699 9.98423 17.5601 10.2495 15.5333 11.25C13.5066 12.2504 11.8881 13.9244 10.9532 15.9869L10.8041 16.2666C10.2207 17.3484 9.42619 18.3014 8.46788 19.0687C7.50956 19.836 6.40707 20.4019 5.22607 20.7328C5.25292 21.3635 5.32039 21.9919 5.42804 22.6138C6.40603 22.4826 7.35806 22.2011 8.25071 21.7794C10.1252 20.714 11.6632 19.1413 12.6891 17.2409Z" fill="#0AA5A5"/>
</svg>
